<?xml version="1.0" encoding="UTF-8"?>
<svg version="1.1" xmlns="http://www.w3.org/2000/svg" width="500" height="285">
<path d="M0 0 C30.69 0 61.38 0 93 0 C93 0.66 93 1.32 93 2 C93.556875 2.02578125 94.11375 2.0515625 94.6875 2.078125 C102.946167 2.69194484 108.78145704 5.55146471 115 11 C131.32414443 31.85492738 129.05513383 66.42219387 126.3125 91.5625 C125.12602461 99.90221831 122.78023555 108.4395289 119 116 C118.34 116 117.68 116 117 116 C116.7215625 117.051875 116.7215625 117.051875 116.4375 118.125 C113.14466961 124.71066077 107.26493054 127.65001885 100.625 130.23828125 C94.49915892 132.01586906 88.38718396 132.14530836 82.06713867 132.12939453 C80.7683226 132.13202301 80.7683226 132.13202301 79.44326782 132.13470459 C76.60148066 132.13908095 73.75975646 132.13620132 70.91796875 132.1328125 C68.93736255 132.13348644 66.95675643 132.13445722 64.97615051 132.13571167 C60.83638721 132.13718266 56.69664555 132.13505218 52.55688477 132.13037109 C47.2425907 132.12465548 41.92834693 132.12796814 36.61405468 132.13394356 C32.52982704 132.13754943 28.44561143 132.13641079 24.36138344 132.13381577 C22.40090237 132.13314753 20.44042022 132.13397131 18.47994041 132.13629532 C15.74856017 132.13882426 13.01726272 132.13497865 10.28588867 132.12939453 C9.47186081 132.13141876 8.65783295 132.13344299 7.81913757 132.13552856 C2.22853612 132.11426806 2.22853612 132.11426806 0 131 C0 87.77 0 44.54 0 0 Z M28 33 C28 54.78 28 76.56 28 99 C38.291875 99.0825 48.58375 99.165 59.1875 99.25 C62.43102295 99.28641602 65.6745459 99.32283203 69.01635742 99.36035156 C71.58772113 99.3720342 74.15909222 99.38222702 76.73046875 99.390625 C77.39500565 99.40107849 78.05954254 99.41153198 78.74421692 99.42230225 C80.71234358 99.45170045 82.68082385 99.45335732 84.64916992 99.45410156 C85.7572551 99.46298401 86.86534027 99.47186646 88.00700378 99.48101807 C91.69430576 98.88841496 93.34913541 97.57788267 96 95 C96.97406117 92.99115688 96.97406117 92.99115688 97.25 90.8125 C97.37890625 90.11769531 97.5078125 89.42289063 97.640625 88.70703125 C97.81851563 87.36705078 97.81851563 87.36705078 98 86 C98.08612549 85.38729248 98.17225098 84.77458496 98.26098633 84.14331055 C99.11165036 77.49328421 99.18361298 70.88484206 99.1875 64.1875 C99.19974609 63.08857422 99.21199219 61.98964844 99.22460938 60.85742188 C99.60519618 48.27124117 99.60519618 48.27124117 95.48510742 36.78588867 C88.48887349 31.75814024 79.09490025 32.73234147 70.87109375 32.8046875 C69.23340027 32.80770874 69.23340027 32.80770874 67.56262207 32.81079102 C63.5208714 32.82118076 59.47918106 32.84910281 55.4375 32.875 C46.383125 32.91625 37.32875 32.9575 28 33 Z " fill="#EA0D11" transform="translate(21,38)"/>
<path d="M0 0 C14.52 0 29.04 0 44 0 C44 0.66 44 1.32 44 2 C45.134375 2.0825 46.26875 2.165 47.4375 2.25 C56.01970042 3.37007554 63.33634739 7.46027041 69 14 C72.40237882 19.5552488 75.12370609 25.04627782 75.1328125 31.6328125 C75.13410156 32.52097656 75.13539063 33.40914062 75.13671875 34.32421875 C75.13285156 35.24847656 75.12898438 36.17273438 75.125 37.125 C75.12886719 38.05699219 75.13273437 38.98898438 75.13671875 39.94921875 C75.13542969 40.83480469 75.13414062 41.72039062 75.1328125 42.6328125 C75.13168457 43.44637207 75.13055664 44.25993164 75.12939453 45.09814453 C75 47 75 47 74 48 C72.15840977 48.09959621 70.31303033 48.13080411 68.46875 48.1328125 C67.34855469 48.13410156 66.22835937 48.13539062 65.07421875 48.13671875 C63.89472656 48.13285156 62.71523438 48.12898438 61.5 48.125 C59.73076172 48.13080078 59.73076172 48.13080078 57.92578125 48.13671875 C56.24548828 48.13478516 56.24548828 48.13478516 54.53125 48.1328125 C53.49548828 48.13168457 52.45972656 48.13055664 51.39257812 48.12939453 C49 48 49 48 48 47 C47.92773498 45.14712498 47.9161878 43.29166122 47.9375 41.4375 C47.94652344 40.42558594 47.95554687 39.41367188 47.96484375 38.37109375 C47.97644531 37.58863281 47.98804688 36.80617187 48 36 C42.44055979 34.43391111 37.49233682 33.69183963 31.73046875 33.69921875 C30.96881912 33.69493362 30.20716949 33.6906485 29.42243958 33.68623352 C27.8215941 33.68052956 26.22072273 33.67996066 24.61987305 33.68432617 C22.20380183 33.68747873 19.78896668 33.66400423 17.37304688 33.63867188 C8.71181783 33.60489773 1.29828502 34.18437778 -7 37 C-7.33 40.63 -7.66 44.26 -8 48 C-1.42733014 48.97363803 5.01760982 49.18004508 11.65625 49.24609375 C13.91797283 49.27901811 16.17969148 49.31222999 18.44140625 49.34570312 C21.97637214 49.39312759 25.51131944 49.43762546 29.04638672 49.47680664 C32.47900907 49.51665427 35.91130813 49.56814624 39.34375 49.62109375 C40.39292603 49.6295079 41.44210205 49.63792206 42.52307129 49.64659119 C52.90711509 49.82033498 61.13529542 51.6279306 68.953125 58.7890625 C77.00684161 67.282688 78.99034637 78.84268107 79.00390625 90.30078125 C78.26896224 102.82482721 76.12360576 114.21211166 67 123.1875 C58.18763836 130.69109506 46.89747948 131.96216287 35.6953125 132.3515625 C35.01827774 132.37525909 34.34124298 132.39895569 33.64369202 132.42337036 C31.47093399 132.49651484 29.29807699 132.56207566 27.125 132.625 C26.38456451 132.64679321 25.64412903 132.66858643 24.8812561 132.69104004 C-14.112284 133.79690984 -14.112284 133.79690984 -26 125 C-35.77880189 114.79500335 -37.09493002 102.75237682 -37.1328125 89.28515625 C-37 87 -37 87 -36 85 C-27.09 85 -18.18 85 -9 85 C-8.67 89.29 -8.34 93.58 -8 98 C-2.25816409 98.98044464 3.31422572 99.16085824 9.1328125 99.16796875 C10.08767548 99.17129715 11.04253845 99.17462555 12.02633667 99.17805481 C14.03496827 99.18309564 16.04360817 99.18546402 18.05224609 99.18530273 C21.12220954 99.187498 24.19181834 99.20570786 27.26171875 99.22460938 C29.21874878 99.22754215 31.1757805 99.22952772 33.1328125 99.23046875 C34.50483322 99.24124702 34.50483322 99.24124702 35.90457153 99.25224304 C42.18837673 99.24318316 42.18837673 99.24318316 48 97 C49.38226016 94.23547967 49.09525387 91.9538637 49.0625 88.875 C49.05347656 87.77929688 49.04445313 86.68359375 49.03515625 85.5546875 C49.02355469 84.71164063 49.01195312 83.86859375 49 83 C48.41721283 83.00444122 47.83442566 83.00888245 47.23397827 83.01345825 C41.10067223 83.05812893 34.96741331 83.08804545 28.83398438 83.10986328 C26.55304076 83.11984482 24.27210969 83.1334348 21.99121094 83.15087891 C-15.31008027 83.42875881 -15.31008027 83.42875881 -26.80078125 73.43359375 C-28 72 -28 72 -28 70 C-28.66 70 -29.32 70 -30 70 C-34.37889978 61.81045461 -36.19099211 54.22493719 -37 45 C-37.0721875 44.28199219 -37.144375 43.56398437 -37.21875 42.82421875 C-37.72335053 33.00553334 -35.01392421 22.75380165 -29 15 C-28.401875 14.113125 -27.80375 13.22625 -27.1875 12.3125 C-21.06943821 5.84483468 -13.64567084 3.46678278 -5 2 C-3.33389296 1.95681305 -1.66566215 1.94214336 0 2 C0 1.34 0 0.68 0 0 Z " fill="#EA0D11" transform="translate(322,38)"/>
<path d="M0 0 C33.66 0 67.32 0 102 0 C102 10.89 102 21.78 102 33 C77.25 33 52.5 33 27 33 C27 37.95 27 42.9 27 48 C50.76 48 74.52 48 99 48 C99 58.56 99 69.12 99 80 C98 81 98 81 95.18431091 81.12025452 C93.29568077 81.1169236 93.29568077 81.1169236 91.36889648 81.11352539 C90.67624695 81.11367142 89.98359741 81.11381744 89.2699585 81.1139679 C86.97030554 81.11326874 84.67073263 81.10547628 82.37109375 81.09765625 C80.78068588 81.09579208 79.19027743 81.09436817 77.59986877 81.09336853 C73.4060407 81.08954329 69.21224705 81.07971295 65.01843262 81.06866455 C60.74211086 81.05845057 56.46578356 81.05387094 52.18945312 81.04882812 C43.79295116 81.03809068 35.39648382 81.02049384 27 81 C27 86.94 27 92.88 27 99 C29.23644287 98.99476318 31.47288574 98.98952637 33.77709961 98.98413086 C41.14919278 98.96759418 48.52128674 98.95652846 55.89339352 98.94818783 C60.36505549 98.94295926 64.83669853 98.93586211 69.30834961 98.92456055 C73.62011973 98.91373071 77.93187159 98.90772296 82.24365425 98.90512276 C83.89236298 98.90326868 85.54107066 98.8996484 87.18977165 98.89426994 C89.49103872 98.88705822 91.7922294 98.88600911 94.09350586 98.88647461 C96.06207802 98.88314369 96.06207802 98.88314369 98.07041931 98.87974548 C101 99 101 99 102 100 C102.0883967 102.3756852 102.11530305 104.72208674 102.09765625 107.09765625 C102.0962413 107.80651474 102.09482635 108.51537323 102.09336853 109.24571228 C102.08775443 111.51801712 102.07519963 113.79022475 102.0625 116.0625 C102.05748681 117.59960796 102.05292359 119.13671745 102.04882812 120.67382812 C102.03778042 124.44925642 102.02050641 128.22461171 102 132 C88.71812591 132.02312079 75.43625657 132.04091374 62.15436649 132.05181217 C55.9877508 132.05704158 49.82114882 132.06414027 43.65454102 132.07543945 C37.70883994 132.08626629 31.76315211 132.0922764 25.81744194 132.09487724 C23.54353057 132.09673186 21.26961996 132.10035317 18.99571419 132.10573006 C15.8227288 132.11293778 12.64979883 132.11399106 9.47680664 132.11352539 C8.52662659 132.11712067 7.57644653 132.12071594 6.59747314 132.12442017 C0.11405216 132.11405216 0.11405216 132.11405216 -1 131 C-1.09831212 129.33431676 -1.12631988 127.66444674 -1.12698364 125.99586487 C-1.12980347 124.91195465 -1.13262329 123.82804443 -1.13552856 122.71128845 C-1.13350433 121.51178055 -1.1314801 120.31227264 -1.12939453 119.07641602 C-1.13114685 117.82127197 -1.13289917 116.56612793 -1.13470459 115.27294922 C-1.1392787 111.82049517 -1.13748934 108.36807087 -1.1343255 104.91561627 C-1.13180123 101.30905401 -1.13413968 97.70249437 -1.13571167 94.09593201 C-1.1375334 88.03717591 -1.13512721 81.97843198 -1.13037109 75.91967773 C-1.12493092 68.90840318 -1.12668934 61.89715771 -1.1321975 54.88588387 C-1.13673145 48.87483933 -1.13737772 42.86380357 -1.13475883 36.85275787 C-1.1331973 33.25889003 -1.13299887 29.66503587 -1.13629532 26.0711689 C-1.13971284 22.06508784 -1.13497966 18.05905713 -1.12939453 14.05297852 C-1.13141876 12.85549484 -1.13344299 11.65801117 -1.13552856 10.42424011 C-1.13270874 9.33751007 -1.12988892 8.25078003 -1.12698364 7.13111877 C-1.12660662 6.18297082 -1.12622959 5.23482286 -1.12584114 4.25794315 C-1 2 -1 2 0 0 Z " fill="#EA0C10" transform="translate(169,38)"/>
<path d="M0 0 C3.63 0 7.26 0 11 0 C13.36332782 5.21872682 15.12522861 10.43104534 16.6875 15.9375 C17.450625 18.598125 18.21375 21.25875 19 24 C19.33 16.08 19.66 8.16 20 0 C23.3 0 26.6 0 30 0 C30 7.26 30 14.52 30 22 C33.63 22 37.26 22 41 22 C44.465 11.11 44.465 11.11 48 0 C51.63 0 55.26 0 59 0 C62.21310219 6.7475146 64.01538939 13.81434088 66 21 C66.33 14.07 66.66 7.14 67 0 C70.2175 -0.103125 73.435 -0.20625 76.75 -0.3125 C78.26158691 -0.38078003 78.26158691 -0.38078003 79.80371094 -0.45043945 C86.35184357 -0.55238407 86.35184357 -0.55238407 89.6171875 2.23046875 C91.00415381 5.00831935 91.49095435 6.55748031 91.375 9.625 C91.36210937 10.38039062 91.34921875 11.13578125 91.3359375 11.9140625 C91 14 91 14 89 17 C89.36798353 20.58783942 90.34738712 22.69477423 92 26 C92.33 17.42 92.66 8.84 93 0 C96.96 0 100.92 0 105 0 C105.99 2.31 106.98 4.62 108 7 C108.66 4.69 109.32 2.38 110 0 C113.96 0 117.92 0 122 0 C122 10.23 122 20.46 122 31 C108.66666667 31 95.33333333 31 82 31 C80.68 28.36 79.36 25.72 78 23 C77.67 25.64 77.34 28.28 77 31 C70.73 31 64.46 31 58 31 C57.67 29.35 57.34 27.7 57 26 C55.02 26 53.04 26 51 26 C50.505 28.475 50.505 28.475 50 31 C36.8 31 23.6 31 10 31 C9.505 28.525 9.505 28.525 9 26 C7.02 26 5.04 26 3 26 C2.67 27.65 2.34 29.3 2 31 C-1.3 31 -4.6 31 -8 31 C-7.40316369 24.00608717 -5.54772419 17.67750149 -3.4375 11 C-3.10814453 9.93910156 -2.77878906 8.87820312 -2.43945312 7.78515625 C-1.632301 5.18823203 -0.81697743 2.59385 0 0 Z M77 9 C77 9.66 77 10.32 77 11 C78.32 10.67 79.64 10.34 81 10 C79.68 9.67 78.36 9.34 77 9 Z M5 15 C6 17 6 17 6 17 Z M53 15 C54 17 54 17 54 17 Z " fill="#D1BDBD" transform="translate(43,177)"/>
<path d="M0 0 C7.92 0 15.84 0 24 0 C26.59435345 3.89153018 26.27327001 7.13451996 26.24291992 11.64648438 C26.24481827 12.5296785 26.24671661 13.41287262 26.24867249 14.3228302 C26.25238162 17.24656001 26.24167386 20.17004221 26.23046875 23.09375 C26.22927688 25.12251761 26.2288238 27.15128577 26.2290802 29.18005371 C26.22751508 33.43371023 26.21922332 37.68728261 26.20581055 41.94091797 C26.18882072 47.3987225 26.18499621 52.85643452 26.18575573 58.31426239 C26.18548405 62.50405768 26.18000312 66.69383267 26.17275429 70.88362122 C26.16956773 72.89630479 26.16760024 74.90899067 26.16686058 76.92167664 C26.1646969 79.73232964 26.15595195 82.54288379 26.14526367 85.35351562 C26.14594345 86.60664299 26.14594345 86.60664299 26.14663696 87.88508606 C26.12828976 91.17802987 26.04865903 93.85402291 25 97 C16.75 97 8.5 97 0 97 C0 64.99 0 32.98 0 0 Z " fill="#EA0B0F" transform="translate(419,73)"/>
<path d="M0 0 C2.14576637 -0.02685938 4.29162645 -0.04633088 6.4375 -0.0625 C7.63246094 -0.07410156 8.82742188 -0.08570313 10.05859375 -0.09765625 C13 0 13 0 14 1 C14 2.65 14 4.3 14 6 C18.95 6.33 23.9 6.66 29 7 C32 16.5 32 16.5 32 21 C32.66 21 33.32 21 34 21 C34.185625 19.205625 34.185625 19.205625 34.375 17.375 C34.77380462 13.51988866 35.70431438 10.88705687 37 7 C47.56 7 58.12 7 69 7 C69 9.97 69 12.94 69 16 C68.505 16.495 68.505 16.495 68 17 C67.92820036 18.51928038 67.91607993 20.04167482 67.9375 21.5625 C67.958125 23.026875 67.97875 24.49125 68 26 C64.37 26 60.74 26 57 26 C57 26.99 57 27.98 57 29 C57.85464844 28.98839844 58.70929688 28.97679687 59.58984375 28.96484375 C60.69457031 28.95582031 61.79929687 28.94679687 62.9375 28.9375 C64.03964844 28.92589844 65.14179688 28.91429687 66.27734375 28.90234375 C69 29 69 29 70 30 C70.125 33.5 70.125 33.5 70 37 C69 38 69 38 66.86694336 38.11352539 C65.49227905 38.10567017 65.49227905 38.10567017 64.08984375 38.09765625 C63.199021 38.09515869 62.30819824 38.09266113 61.39038086 38.09008789 C60.25093018 38.08098389 59.11147949 38.07187988 57.9375 38.0625 C54.328125 38.041875 50.71875 38.02125 47 38 C46.67 30.08 46.34 22.16 46 14 C43.73785022 21.52324789 43.73785022 21.52324789 41.48266602 29.04858398 C41.20092529 29.98001221 40.91918457 30.91144043 40.62890625 31.87109375 C40.34088135 32.82943115 40.05285645 33.78776855 39.75610352 34.77514648 C39 37 39 37 38 38 C36.31391034 38.07205511 34.62499341 38.08386068 32.9375 38.0625 C32.01839844 38.05347656 31.09929687 38.04445312 30.15234375 38.03515625 C29.44207031 38.02355469 28.73179687 38.01195312 28 38 C25.63646302 32.7808113 23.87469701 27.57030637 22.3125 22.0625 C22.08755859 21.28326172 21.86261719 20.50402344 21.63085938 19.70117188 C21.08322633 17.80193386 20.54104051 15.90112655 20 14 C19.96261719 15.24136719 19.92523438 16.48273438 19.88671875 17.76171875 C19.8210405 19.40367511 19.7545938 21.04560087 19.6875 22.6875 C19.66494141 23.50412109 19.64238281 24.32074219 19.61914062 25.16210938 C19.41067036 29.8432145 19.12093963 33.26487087 16 37 C11.58333546 40.08139387 6.15118693 39.62670227 1 39 C-2.68241305 36.89576397 -4.43527224 34.88395439 -6 31 C-6.22705078 28.34277344 -6.22705078 28.34277344 -6.1953125 25.359375 C-6.18886719 24.28945312 -6.18242187 23.21953125 -6.17578125 22.1171875 C-6.15902344 21.00601563 -6.14226562 19.89484375 -6.125 18.75 C-6.11597656 17.62335938 -6.10695313 16.49671875 -6.09765625 15.3359375 C-6.07410658 12.55707635 -6.0412168 9.7786461 -6 7 C-4.02 7 -2.04 7 0 7 C0 4.69 0 2.38 0 0 Z M4 7 C3.9131671 10.458176 3.85966718 13.91607344 3.8125 17.375 C3.78736328 18.35984375 3.76222656 19.3446875 3.73632812 20.359375 C3.72666016 21.30039063 3.71699219 22.24140625 3.70703125 23.2109375 C3.6913208 24.08024902 3.67561035 24.94956055 3.65942383 25.84521484 C3.77181396 26.55629395 3.8842041 27.26737305 4 28 C5.485 28.99 5.485 28.99 7 30 C7.66 29.67 8.32 29.34 9 29 C9.33 21.74 9.66 14.48 10 7 C8.02 7 6.04 7 4 7 Z " fill="#D0BABA" transform="translate(272,170)"/>
<path d="M0 0 C33.66 0 67.32 0 102 0 C102 10.89 102 21.78 102 33 C77.25 33 52.5 33 27 33 C27 37.95 27 42.9 27 48 C50.76 48 74.52 48 99 48 C99 58.56 99 69.12 99 80 C98 81 98 81 95.18431091 81.12025452 C93.29568077 81.1169236 93.29568077 81.1169236 91.36889648 81.11352539 C90.67624695 81.11367142 89.98359741 81.11381744 89.2699585 81.1139679 C86.97030554 81.11326874 84.67073263 81.10547628 82.37109375 81.09765625 C80.78068588 81.09579208 79.19027743 81.09436817 77.59986877 81.09336853 C73.4060407 81.08954329 69.21224705 81.07971295 65.01843262 81.06866455 C60.74211086 81.05845057 56.46578356 81.05387094 52.18945312 81.04882812 C43.79295116 81.03809068 35.39648382 81.02049384 27 81 C27 86.94 27 92.88 27 99 C29.23644287 98.99476318 31.47288574 98.98952637 33.77709961 98.98413086 C41.14919278 98.96759418 48.52128674 98.95652846 55.89339352 98.94818783 C60.36505549 98.94295926 64.83669853 98.93586211 69.30834961 98.92456055 C73.62011973 98.91373071 77.93187159 98.90772296 82.24365425 98.90512276 C83.89236298 98.90326868 85.54107066 98.8996484 87.18977165 98.89426994 C89.49103872 98.88705822 91.7922294 98.88600911 94.09350586 98.88647461 C96.06207802 98.88314369 96.06207802 98.88314369 98.07041931 98.87974548 C101 99 101 99 102 100 C102.0883967 102.3756852 102.11530305 104.72208674 102.09765625 107.09765625 C102.0962413 107.80651474 102.09482635 108.51537323 102.09336853 109.24571228 C102.08775443 111.51801712 102.07519963 113.79022475 102.0625 116.0625 C102.05748681 117.59960796 102.05292359 119.13671745 102.04882812 120.67382812 C102.03778042 124.44925642 102.02050641 128.22461171 102 132 C88.71812591 132.02312079 75.43625657 132.04091374 62.15436649 132.05181217 C55.9877508 132.05704158 49.82114882 132.06414027 43.65454102 132.07543945 C37.70883994 132.08626629 31.76315211 132.0922764 25.81744194 132.09487724 C23.54353057 132.09673186 21.26961996 132.10035317 18.99571419 132.10573006 C15.8227288 132.11293778 12.64979883 132.11399106 9.47680664 132.11352539 C8.52662659 132.11712067 7.57644653 132.12071594 6.59747314 132.12442017 C0.11405216 132.11405216 0.11405216 132.11405216 -1 131 C-1.09831212 129.33431676 -1.12631988 127.66444674 -1.12698364 125.99586487 C-1.12980347 124.91195465 -1.13262329 123.82804443 -1.13552856 122.71128845 C-1.13350433 121.51178055 -1.1314801 120.31227264 -1.12939453 119.07641602 C-1.13114685 117.82127197 -1.13289917 116.56612793 -1.13470459 115.27294922 C-1.1392787 111.82049517 -1.13748934 108.36807087 -1.1343255 104.91561627 C-1.13180123 101.30905401 -1.13413968 97.70249437 -1.13571167 94.09593201 C-1.1375334 88.03717591 -1.13512721 81.97843198 -1.13037109 75.91967773 C-1.12493092 68.90840318 -1.12668934 61.89715771 -1.1321975 54.88588387 C-1.13673145 48.87483933 -1.13737772 42.86380357 -1.13475883 36.85275787 C-1.1331973 33.25889003 -1.13299887 29.66503587 -1.13629532 26.0711689 C-1.13971284 22.06508784 -1.13497966 18.05905713 -1.12939453 14.05297852 C-1.13141876 12.85549484 -1.13344299 11.65801117 -1.13552856 10.42424011 C-1.13270874 9.33751007 -1.12988892 8.25078003 -1.12698364 7.13111877 C-1.12660662 6.18297082 -1.12622959 5.23482286 -1.12584114 4.25794315 C-1 2 -1 2 0 0 Z M1 3 C1 44.91 1 86.82 1 130 C33.67 130 66.34 130 100 130 C100 120.76 100 111.52 100 102 C63.37 101.505 63.37 101.505 26 101 C25.67 93.74 25.34 86.48 25 79 C27.17585693 79.00523682 29.35171387 79.01047363 31.59350586 79.01586914 C38.76602919 79.0324061 45.93855334 79.04347165 53.11109066 79.05181217 C57.46168459 79.05704065 61.81225907 79.06413765 66.1628418 79.07543945 C70.35790258 79.08626959 74.55294459 79.0922771 78.74801826 79.09487724 C80.35206968 79.09673126 81.95612003 79.10035144 83.5601635 79.10573006 C85.79916515 79.11294219 88.0380883 79.11399087 90.27709961 79.11352539 C91.55395126 79.115746 92.83080292 79.11796661 94.14634705 79.12025452 C96.89888855 79.32668089 96.89888855 79.32668089 98 78 C98.09993532 75.9394469 98.13080906 73.8754741 98.1328125 71.8125 C98.13410156 70.55695313 98.13539063 69.30140625 98.13671875 68.0078125 C98.13462402 67.35071289 98.1325293 66.69361328 98.13037109 66.01660156 C98.12502234 64.00838665 98.13031691 62.00039541 98.13671875 59.9921875 C98.13542969 58.73664063 98.13414062 57.48109375 98.1328125 56.1875 C98.13112061 54.44533203 98.13112061 54.44533203 98.12939453 52.66796875 C98.30337474 50.07936716 98.30337474 50.07936716 97 49 C94.76070114 48.90563471 92.5183825 48.88257673 90.27709961 48.88647461 C89.5746965 48.88632858 88.8722934 48.88618256 88.14860535 48.8860321 C85.81648722 48.88673128 83.484448 48.89452383 81.15234375 48.90234375 C79.53951562 48.90420792 77.92668693 48.90563182 76.31385803 48.90663147 C72.06084643 48.91045677 67.80786876 48.92028715 63.55487061 48.93133545 C59.2182257 48.94154931 54.88157533 48.94612904 50.54492188 48.95117188 C42.02993058 48.96190941 33.51497341 48.9795063 25 49 C25.33 43.39 25.66 37.78 26 32 C50.42 31.67 74.84 31.34 100 31 C100 21.76 100 12.52 100 3 C67.33 3 34.66 3 1 3 Z " fill="#F78E91" transform="translate(169,38)"/>
<path d="M0 0 C3.3 0 6.6 0 10 0 C13 9.5 13 9.5 13 14 C13.66 14 14.32 14 15 14 C15.12375 12.80375 15.2475 11.6075 15.375 10.375 C15.77380462 6.51988866 16.70431438 3.88705687 18 0 C28.56 0 39.12 0 50 0 C50 2.97 50 5.94 50 9 C49.67 9.33 49.34 9.66 49 10 C48.92820036 11.51928038 48.91607993 13.04167482 48.9375 14.5625 C48.958125 16.026875 48.97875 17.49125 49 19 C45.37 19 41.74 19 38 19 C38 19.99 38 20.98 38 22 C39.28197266 21.98259766 39.28197266 21.98259766 40.58984375 21.96484375 C41.69457031 21.95582031 42.79929688 21.94679687 43.9375 21.9375 C45.03964844 21.92589844 46.14179688 21.91429687 47.27734375 21.90234375 C50 22 50 22 51 23 C51.125 26.5 51.125 26.5 51 30 C50 31 50 31 47.86694336 31.11352539 C46.95050049 31.10828857 46.03405762 31.10305176 45.08984375 31.09765625 C44.199021 31.09515869 43.30819824 31.09266113 42.39038086 31.09008789 C41.25093018 31.08098389 40.11147949 31.07187988 38.9375 31.0625 C35.328125 31.041875 31.71875 31.02125 28 31 C27.505 19.12 27.505 19.12 27 7 C24.73785022 14.52324789 24.73785022 14.52324789 22.48266602 22.04858398 C22.20092529 22.98001221 21.91918457 23.91144043 21.62890625 24.87109375 C21.34088135 25.82943115 21.05285645 26.78776855 20.75610352 27.77514648 C20 30 20 30 19 31 C17.31391034 31.07205511 15.62499341 31.08386068 13.9375 31.0625 C13.01839844 31.05347656 12.09929687 31.04445312 11.15234375 31.03515625 C10.44207031 31.02355469 9.73179687 31.01195312 9 31 C6.45190185 25.39112329 4.56843956 19.71332404 2.8125 13.8125 C2.53986328 12.92369141 2.26722656 12.03488281 1.98632812 11.11914062 C1.72916016 10.26126953 1.47199219 9.40339844 1.20703125 8.51953125 C0.9747583 7.74714111 0.74248535 6.97475098 0.50317383 6.17895508 C0 4 0 4 0 0 Z " fill="#CEBFBF" transform="translate(176,177)"/>
<path d="M0 0 C1.35193175 2.7038635 0.61008377 4.06213603 0 7 C-0.22054422 11.45610522 -0.18513214 15.91396037 -0.1875 20.375 C-0.19974609 21.5815625 -0.21199219 22.788125 -0.22460938 24.03125 C-0.24306714 35.2289629 1.54532752 42.33564436 9 51 C13.09528258 54.37205387 17.90538565 55.75037761 23 57 C23.61580429 57.17883224 24.23160858 57.35766449 24.86607361 57.54191589 C27.43972319 58.09439417 29.82236662 58.13229414 32.45532227 58.1418457 C33.54647842 58.14888016 34.63763458 58.15591461 35.76185608 58.16316223 C36.93485764 58.16732651 38.10785919 58.17149078 39.31640625 58.17578125 C41.79623257 58.19896666 44.27605032 58.22308346 46.75585938 58.24804688 C50.66892338 58.28325977 54.58166934 58.31256546 58.49487305 58.32592773 C62.26910779 58.34134052 66.04241471 58.38149396 69.81640625 58.42578125 C71.57894493 58.42291862 71.57894493 58.42291862 73.37709045 58.41999817 C74.46509445 58.43648911 75.55309845 58.45298004 76.67407227 58.4699707 C77.6324147 58.47583694 78.59075714 58.48170319 79.57814026 58.48774719 C82 59 82 59 83.80577087 60.88298035 C85.97093425 64.72118301 85.63618273 68.7334267 85 73 C82.94892412 76.39488422 81.29515379 77.80323081 78 80 C75.81938171 80.26069641 75.81938171 80.26069641 73.2565918 80.2746582 C71.81445564 80.28895622 71.81445564 80.28895622 70.34318542 80.30354309 C68.78692192 80.30217598 68.78692192 80.30217598 67.19921875 80.30078125 C66.13008743 80.30506638 65.06095612 80.3093515 63.95942688 80.31376648 C61.69569609 80.31951296 59.43194683 80.32000772 57.16821289 80.31567383 C53.71142844 80.31252182 50.25550623 80.33594218 46.79882812 80.36132812 C44.59895941 80.36360193 42.3990884 80.36430424 40.19921875 80.36328125 C39.16778244 80.372491 38.13634613 80.38170074 37.07365417 80.39118958 C31.53111001 80.35563078 27.70438609 80.02157311 23 77 C23 73.04 23 69.08 23 65 C15.08 65 7.16 65 -1 65 C-0.938125 68.609375 -0.87625 72.21875 -0.8125 75.9375 C-0.80581299 77.05632568 -0.79912598 78.17515137 -0.79223633 79.32788086 C-0.52527586 87.98153073 1.93877891 94.24293597 8.1875 100.3125 C19.56041364 109.15537022 33.80740148 108.18681573 47.47729492 108.18530273 C49.66670488 108.18747933 51.85560107 108.2056787 54.04492188 108.22460938 C79.18344231 108.52533528 79.18344231 108.52533528 100.67578125 97.4921875 C109.42906917 87.62860052 109.5085909 73.44709319 109 61 C108.2050234 51.5284216 106.01136496 44.01136496 99.1875 37.1875 C90.8728918 31.48139633 85.16414427 30.41768933 75.1796875 30.4609375 C73.96225861 30.44914459 72.74482971 30.43735168 71.49050903 30.42520142 C67.61854138 30.39003416 63.74711411 30.38077999 59.875 30.375 C55.99590708 30.35863861 52.11705393 30.33657152 48.23806763 30.30337524 C45.82966285 30.28380023 43.42114824 30.27440438 41.01266479 30.27645874 C34.09464954 30.23248898 28.89425805 29.92950537 23 26 C22.29293673 22.28791785 22.43121038 18.72750477 23 15 C26.44135061 10.44853629 31.63016411 9.91375567 37 9 C39.91339765 8.74114638 42.80275912 8.69562217 45.7265625 8.69921875 C46.51847992 8.69493362 47.31039734 8.6906485 48.12631226 8.68623352 C49.78504487 8.68053801 51.44380243 8.67995426 53.10253906 8.68432617 C55.62608466 8.68750136 58.14847242 8.6639157 60.671875 8.63867188 C62.29426937 8.63639973 63.91666686 8.63569499 65.5390625 8.63671875 C66.28402985 8.627509 67.02899719 8.61829926 67.79653931 8.60881042 C72.77496749 8.65241282 78.27584987 9.27584987 82 13 C82 16.63 82 20.26 82 24 C90.25 24 98.5 24 107 24 C107 19.38 107 14.76 107 10 C107.33 10 107.66 10 108 10 C108.02685095 12.47923801 108.04676547 14.9581884 108.0625 17.4375 C108.07087891 18.14455078 108.07925781 18.85160156 108.08789062 19.58007812 C108.09653588 21.38693559 108.05220011 23.19387603 108 25 C106.25454395 26.74545605 103.83875783 26.1302316 101.46875 26.1328125 C100.34855469 26.13410156 99.22835937 26.13539062 98.07421875 26.13671875 C96.89472656 26.13285156 95.71523438 26.12898438 94.5 26.125 C92.73076172 26.13080078 92.73076172 26.13080078 90.92578125 26.13671875 C89.24548828 26.13478516 89.24548828 26.13478516 87.53125 26.1328125 C86.49548828 26.13168457 85.45972656 26.13055664 84.39257812 26.12939453 C82 26 82 26 81 25 C80.92773498 23.14712498 80.9161878 21.29166122 80.9375 19.4375 C80.94652344 18.42558594 80.95554687 17.41367188 80.96484375 16.37109375 C80.97644531 15.58863281 80.98804688 14.80617188 81 14 C75.44055979 12.43391111 70.49233682 11.69183963 64.73046875 11.69921875 C63.96881912 11.69493362 63.20716949 11.6906485 62.42243958 11.68623352 C60.8215941 11.68052956 59.22072273 11.67996066 57.61987305 11.68432617 C55.20380183 11.68747873 52.78896668 11.66400423 50.37304688 11.63867188 C41.71181783 11.60489773 34.29828502 12.18437778 26 15 C25.67 18.63 25.34 22.26 25 26 C31.57266986 26.97363803 38.01760982 27.18004508 44.65625 27.24609375 C46.91797283 27.27901811 49.17969148 27.31222999 51.44140625 27.34570312 C54.97637214 27.39312759 58.51131944 27.43762546 62.04638672 27.47680664 C65.47900907 27.51665427 68.91130813 27.56814624 72.34375 27.62109375 C73.39292603 27.6295079 74.44210205 27.63792206 75.52307129 27.64659119 C85.90711509 27.82033498 94.13529542 29.6279306 101.953125 36.7890625 C110.00684161 45.282688 111.99034637 56.84268107 112.00390625 68.30078125 C111.26896224 80.82482721 109.12360576 92.21211166 100 101.1875 C91.18763836 108.69109506 79.89747948 109.96216287 68.6953125 110.3515625 C68.01827774 110.37525909 67.34124298 110.39895569 66.64369202 110.42337036 C64.47093399 110.49651484 62.29807699 110.56207566 60.125 110.625 C59.38456451 110.64679321 58.64412903 110.66858643 57.8812561 110.69104004 C18.887716 111.79690984 18.887716 111.79690984 7 103 C-2.77880189 92.79500335 -4.09493002 80.75237682 -4.1328125 67.28515625 C-4 65 -4 65 -3 63 C5.91 63 14.82 63 24 63 C24.33 67.29 24.66 71.58 25 76 C30.74183591 76.98044464 36.31422572 77.16085824 42.1328125 77.16796875 C43.08767548 77.17129715 44.04253845 77.17462555 45.02633667 77.17805481 C47.03496827 77.18309564 49.04360817 77.18546402 51.05224609 77.18530273 C54.12220954 77.187498 57.19181834 77.20570786 60.26171875 77.22460938 C62.21874878 77.22754215 64.1757805 77.22952772 66.1328125 77.23046875 C67.50483322 77.24124702 67.50483322 77.24124702 68.90457153 77.25224304 C75.18837673 77.24318316 75.18837673 77.24318316 81 75 C82.38226016 72.23547967 82.09525387 69.9538637 82.0625 66.875 C82.05347656 65.77929688 82.04445313 64.68359375 82.03515625 63.5546875 C82.02355469 62.71164063 82.01195312 61.86859375 82 61 C81.41721283 61.00444122 80.83442566 61.00888245 80.23397827 61.01345825 C74.10067223 61.05812893 67.96741331 61.08804545 61.83398438 61.10986328 C59.55304076 61.11984482 57.27210969 61.1334348 54.99121094 61.15087891 C17.68991973 61.42875881 17.68991973 61.42875881 6.19921875 51.43359375 C5 50 5 50 5 48 C4.34 48 3.68 48 3 48 C-1.37889978 39.81045461 -3.19099211 32.22493719 -4 23 C-4.0721875 22.28199219 -4.144375 21.56398438 -4.21875 20.82421875 C-4.56172033 14.15058773 -2.67792947 7.40743014 -1 1 C-0.67 0.67 -0.34 0.34 0 0 Z " fill="#F59396" transform="translate(289,60)"/>
<path d="M0 0 C10.87774465 -0.78069938 10.87774465 -0.78069938 14.875 2 C15.57625 2.99 16.2775 3.98 17 5 C17.51175781 5.65097656 18.02351563 6.30195312 18.55078125 6.97265625 C24.67674161 14.79458654 26.14718282 21.10777155 25.33740234 30.99072266 C24.23987279 37.52666203 19.83558032 42.35969418 15.0625 46.625 C9.84636788 48.96693687 5.39953494 49.68948913 -0.0625 48.0625 C-5.65301971 45.63040383 -9.41159713 41.18243837 -12.1015625 35.79296875 C-15.1922065 27.54643733 -14.80373312 20.39563097 -11.2734375 12.37109375 C-9.05671231 8.24363305 -6.46634154 3.77073173 -1.8125 2.31640625 C-0.9153125 2.15978516 -0.9153125 2.15978516 0 2 C0 1.34 0 0.68 0 0 Z M-2 9 C-2 9.33 -2 9.66 -2 10 C2.95 10.33 7.9 10.66 13 11 C13.99778578 14.99114314 14.35847624 17.91337089 14 22 C12 24.9375 12 24.9375 10 27 C10.639375 27.928125 11.27875 28.85625 11.9375 29.8125 C14 33 14 33 15 36 C15.66 36 16.32 36 17 36 C19.88182493 29.79831276 20.40216525 22.24986168 18.2421875 15.703125 C16.44137269 12.38508825 14.35916444 9.72757028 11 8 C5.98594311 6.79291223 2.75535882 7.02826585 -2 9 Z M-5 12 C-7.61615514 16.5332847 -8.40909138 19.84083743 -8.375 25.0625 C-8.38273437 26.24972656 -8.39046875 27.43695313 -8.3984375 28.66015625 C-7.97406995 32.2173548 -7.1243391 34.14777822 -5 37 C-4.67 37 -4.34 37 -4 37 C-4 28.75 -4 20.5 -4 12 C-4.33 12 -4.66 12 -5 12 Z M0 15 C0 17.31 0 19.62 0 22 C1.27875 22.020625 2.5575 22.04125 3.875 22.0625 C4.59429687 22.07410156 5.31359375 22.08570313 6.0546875 22.09765625 C8.08185404 22.12649242 8.08185404 22.12649242 10 21 C10.042721 19.33388095 10.04063832 17.66617115 10 16 C8.99163938 14.76732652 8.99163938 14.76732652 6.93359375 14.90234375 C5.69802734 14.91974609 5.69802734 14.91974609 4.4375 14.9375 C3.19806641 14.95103516 3.19806641 14.95103516 1.93359375 14.96484375 C0.97646484 14.98224609 0.97646484 14.98224609 0 15 Z M1 27 C0.95101563 27.77085938 0.90203125 28.54171875 0.8515625 29.3359375 C0.77679688 30.33882812 0.70203125 31.34171875 0.625 32.375 C0.52058594 33.87160156 0.52058594 33.87160156 0.4140625 35.3984375 C0 38 0 38 -2 40 C1.09780948 42.06520632 1.9540481 42.29477024 5.5 42.3125 C6.66015625 42.33763672 6.66015625 42.33763672 7.84375 42.36328125 C10.47015897 41.92078843 11.33557103 41.02185443 13 39 C12.34 39 11.68 39 11 39 C10.5978125 37.948125 10.5978125 37.948125 10.1875 36.875 C9.795625 35.92625 9.40375 34.9775 9 34 C8.566875 32.9275 8.13375 31.855 7.6875 30.75 C6.28616495 27.75205194 6.28616495 27.75205194 3.39453125 27.328125 C2.60433594 27.21984375 1.81414062 27.1115625 1 27 Z " fill="#F58A8D" transform="translate(462,38)"/>
<path d="M0 0 C30.69 0 61.38 0 93 0 C93 0.66 93 1.32 93 2 C93.556875 2.02578125 94.11375 2.0515625 94.6875 2.078125 C102.65364108 2.67020305 109.19906332 5.36967911 115 11 C116.3125 13.75 116.3125 13.75 117 16 C116.5875 15.61328125 116.175 15.2265625 115.75 14.828125 C108.46986287 8.26300134 101.65606733 5.50381376 92 4 C92 3.34 92 2.68 92 2 C62.63 2 33.26 2 3 2 C3 44.24 3 86.48 3 130 C51.015 129.505 51.015 129.505 100 129 C100 128.34 100 127.68 100 127 C100.64066406 126.731875 101.28132813 126.46375 101.94140625 126.1875 C109.7346255 122.65674195 115.34730882 118.38729669 118.58984375 110.29296875 C120.12521552 105.97577017 120.92753298 101.64268409 121.625 97.125 C122.888125 89.22375 122.888125 89.22375 124 87 C124.11199025 84.01428346 124.16415172 81.05275386 124.16796875 78.06640625 C124.17129715 77.15986801 124.17462555 76.25332977 124.17805481 75.31932068 C124.18313096 73.38663235 124.18546292 71.45393522 124.18530273 69.52124023 C124.18744754 66.63314116 124.20547677 63.7454511 124.22460938 60.85742188 C124.26007725 48.77535009 123.53548119 36.98371294 122 25 C124.39901656 27.39901656 124.49378422 28.57740433 125.0625 31.875 C125.21847656 32.73867187 125.37445313 33.60234375 125.53515625 34.4921875 C126.91144476 44.87796132 127.20549642 55.219581 127.1875 65.6875 C127.18656342 66.39276825 127.18562683 67.0980365 127.18466187 67.82467651 C127.13687476 84.43693281 126.59641335 100.80717331 119 116 C118.34 116 117.68 116 117 116 C116.7215625 117.051875 116.7215625 117.051875 116.4375 118.125 C113.14466961 124.71066077 107.26493054 127.65001885 100.625 130.23828125 C94.49915892 132.01586906 88.38718396 132.14530836 82.06713867 132.12939453 C80.7683226 132.13202301 80.7683226 132.13202301 79.44326782 132.13470459 C76.60148066 132.13908095 73.75975646 132.13620132 70.91796875 132.1328125 C68.93736255 132.13348644 66.95675643 132.13445722 64.97615051 132.13571167 C60.83638721 132.13718266 56.69664555 132.13505218 52.55688477 132.13037109 C47.2425907 132.12465548 41.92834693 132.12796814 36.61405468 132.13394356 C32.52982704 132.13754943 28.44561143 132.13641079 24.36138344 132.13381577 C22.40090237 132.13314753 20.44042022 132.13397131 18.47994041 132.13629532 C15.74856017 132.13882426 13.01726272 132.13497865 10.28588867 132.12939453 C9.47186081 132.13141876 8.65783295 132.13344299 7.81913757 132.13552856 C2.22853612 132.11426806 2.22853612 132.11426806 0 131 C0 87.77 0 44.54 0 0 Z " fill="#F3565A" transform="translate(21,38)"/>
<path d="M0 0 C8.25 0 16.5 0 25 0 C26.42087464 5.68349856 26.22477176 11.22531588 26.25 17.0625 C26.270625 18.25939453 26.29125 19.45628906 26.3125 20.68945312 C26.31765625 21.83478516 26.3228125 22.98011719 26.328125 24.16015625 C26.34214355 25.73228882 26.34214355 25.73228882 26.35644531 27.33618164 C26 30 26 30 24.78051758 31.84448242 C22.45084759 33.35638809 20.95080807 33.35850229 18.18359375 33.328125 C17.25482422 33.32296875 16.32605469 33.3178125 15.36914062 33.3125 C13.91797852 33.2815625 13.91797852 33.2815625 12.4375 33.25 C11.46619141 33.24484375 10.49488281 33.2396875 9.49414062 33.234375 C2.30896855 33.15448428 2.30896855 33.15448428 0 32 C0 21.44 0 10.88 0 0 Z " fill="#EB1317" transform="translate(419,38)"/>
<path d="M0 0 C2.33294775 -0.04241723 4.66702567 -0.04092937 7 0 C8 1 8 1 8.11352539 4.60180664 C8.11336625 6.20459856 8.10767063 7.8073956 8.09765625 9.41015625 C8.0962413 10.25219101 8.09482635 11.09422577 8.09336853 11.96177673 C8.08775263 14.66205335 8.07519748 17.36224828 8.0625 20.0625 C8.05748705 21.88867068 8.05292379 23.71484266 8.04882812 25.54101562 C8.03862716 30.02740085 8.01905499 34.51360855 8 39 C-2.56 39 -13.12 39 -24 39 C-24 28.77 -24 18.54 -24 8 C-20.7 8 -17.4 8 -14 8 C-14 15.26 -14 22.52 -14 30 C-10.37 30 -6.74 30 -3 30 C-2.90912109 27.74349609 -2.90912109 27.74349609 -2.81640625 25.44140625 C-2.73201957 23.48176011 -2.64737065 21.52212524 -2.5625 19.5625 C-2.52318359 18.56927734 -2.48386719 17.57605469 -2.44335938 16.55273438 C-2.40146484 15.60849609 -2.35957031 14.66425781 -2.31640625 13.69140625 C-2.27974854 12.81685791 -2.24309082 11.94230957 -2.20532227 11.04125977 C-2 9 -2 9 -1 8 C-0.76924918 6.65252916 -0.58846937 5.29622435 -0.4375 3.9375 C-0.293125 2.638125 -0.14875 1.33875 0 0 Z " fill="#D0BFC0" transform="translate(394,169)"/>
<path d="M0 0 C3.78959324 2.01080458 4.71078061 3.28383771 6.3125 7.25 C6.539375 8.1575 6.76625 9.065 7 10 C3.58794404 12.09972674 0.9699753 12.33083127 -3 12 C-5.375 11 -5.375 11 -7 10 C-9.45811625 13.68717438 -9.31118164 15.64345704 -9 20 C-8.34 20.99 -7.68 21.98 -7 23 C-6.01 23 -5.02 23 -4 23 C-4.99 22.67 -5.98 22.34 -7 22 C-7 19.03 -7 16.06 -7 13 C-2.38 13 2.24 13 7 13 C8.03628964 26.0769883 8.03628964 26.0769883 5.86328125 30.109375 C1.51613479 33.68813964 -3.83566329 33.67396583 -9.25390625 33.41015625 C-13.01686137 32.8481217 -14.65763591 32.02240528 -17 29 C-20.37252871 22.87692533 -20.9736832 16.58442505 -19.53125 9.79296875 C-18.40805737 6.18939238 -17.20005173 4.20005173 -14.5 1.5 C-9.59390149 -0.60261365 -5.26039973 -0.7858524 0 0 Z " fill="#CC2124" transform="translate(257,176)"/>
<path d="M0 0 C3.3 0 6.6 0 10 0 C11.65 2.97 13.3 5.94 15 9 C15.33 6.03 15.66 3.06 16 0 C18.97 0 21.94 0 25 0 C25 10.23 25 20.46 25 31 C16 31 16 31 14.02734375 29.25 C13.66769531 28.5075 13.30804688 27.765 12.9375 27 C12.55464844 26.2575 12.17179687 25.515 11.77734375 24.75 C11.52082031 24.1725 11.26429688 23.595 11 23 C10.7834375 24.7015625 10.7834375 24.7015625 10.5625 26.4375 C10 30 10 30 9 31 C6.03 31 3.06 31 0 31 C0 20.77 0 10.54 0 0 Z " fill="#CC1F22" transform="translate(343,177)"/>
<path d="M0 0 C3.3 0 6.6 0 10 0 C10.33 1.65 10.66 3.3 11 5 C11.4125 4.175 11.825 3.35 12.25 2.5 C16.17659254 -1.06962958 19.38743882 -0.39047804 24.515625 -0.17578125 C25.33546875 -0.11777344 26.1553125 -0.05976563 27 0 C26.42569605 3.66422098 24.97166581 5.07926672 22.4375 7.6875 C20.58759949 9.9646603 20.58759949 9.9646603 20 13 C21.48083267 19.08643687 24.89775593 24.61742114 28 30 C27 31 27 31 24.49609375 31.09765625 C23.48675781 31.08605469 22.47742188 31.07445312 21.4375 31.0625 C20.42558594 31.05347656 19.41367187 31.04445312 18.37109375 31.03515625 C17.19740234 31.01775391 17.19740234 31.01775391 16 31 C15.01 28.03 14.02 25.06 13 22 C12.34 22.33 11.68 22.66 11 23 C10.53476937 24.89533342 10.53476937 24.89533342 10.375 27.0625 C10.25125 28.361875 10.1275 29.66125 10 31 C6.7 31 3.4 31 0 31 C0 20.77 0 10.54 0 0 Z " fill="#CC282B" transform="translate(405,177)"/>
<path d="M0 0 C3.3 0 6.6 0 10 0 C10.20496094 0.92683594 10.40992188 1.85367188 10.62109375 2.80859375 C10.89050781 4.00613281 11.15992188 5.20367187 11.4375 6.4375 C11.83775391 8.22994141 11.83775391 8.22994141 12.24609375 10.05859375 C12.70066748 12.8704686 12.70066748 12.8704686 14 14 C14.99 9.38 15.98 4.76 17 0 C20.3 0 23.6 0 27 0 C27 9.57 27 19.14 27 29 C25.02 29 23.04 29 21 29 C20.67 23.39 20.34 17.78 20 12 C19.05453691 16.84581465 19.05453691 16.84581465 18.11547852 21.69287109 C17.11111111 26.77777778 17.11111111 26.77777778 16 29 C14.35 29 12.7 29 11 29 C9.68 23.06 8.36 17.12 7 11 C6.67 16.94 6.34 22.88 6 29 C4.02 29 2.04 29 0 29 C0 19.43 0 9.86 0 0 Z " fill="#CC2225" transform="translate(137,178)"/>
<path d="M0 0 C7.92 0 15.84 0 24 0 C26.59435345 3.89153018 26.27327001 7.13451996 26.24291992 11.64648438 C26.24481827 12.5296785 26.24671661 13.41287262 26.24867249 14.3228302 C26.25238162 17.24656001 26.24167386 20.17004221 26.23046875 23.09375 C26.22927688 25.12251761 26.2288238 27.15128577 26.2290802 29.18005371 C26.22751508 33.43371023 26.21922332 37.68728261 26.20581055 41.94091797 C26.18882072 47.3987225 26.18499621 52.85643452 26.18575573 58.31426239 C26.18548405 62.50405768 26.18000312 66.69383267 26.17275429 70.88362122 C26.16956773 72.89630479 26.16760024 74.90899067 26.16686058 76.92167664 C26.1646969 79.73232964 26.15595195 82.54288379 26.14526367 85.35351562 C26.14594345 86.60664299 26.14594345 86.60664299 26.14663696 87.88508606 C26.12828976 91.17802987 26.04865903 93.85402291 25 97 C16.75 97 8.5 97 0 97 C0 64.99 0 32.98 0 0 Z M2 2 C2 32.69 2 63.38 2 95 C8.93 95 15.86 95 23 95 C23 64.31 23 33.62 23 2 C16.07 2 9.14 2 2 2 Z " fill="#F26265" transform="translate(419,73)"/>
<path d="M0 0 C1.04554047 -0.00637985 2.09108093 -0.0127597 3.16830444 -0.01933289 C4.30981964 -0.02044571 5.45133484 -0.02155853 6.62744141 -0.02270508 C7.79852448 -0.02603348 8.96960754 -0.02936188 10.17617798 -0.03279114 C12.66627611 -0.03786909 15.15638108 -0.0401992 17.64648438 -0.04003906 C21.42801475 -0.04220709 25.20924469 -0.06030229 28.99072266 -0.0793457 C31.41129458 -0.08228327 33.83186788 -0.08426563 36.25244141 -0.08520508 C37.37371429 -0.09239059 38.49498718 -0.09957611 39.65023804 -0.10697937 C57.16296277 -0.05695424 57.16296277 -0.05695424 64.10400391 4.14526367 C65.11572266 6.24682617 65.11572266 6.24682617 65.79150391 8.77026367 C66.13761719 9.99616211 66.13761719 9.99616211 66.49072266 11.24682617 C69.7968424 26.87192713 71.57042515 52.03456159 63.10400391 66.14526367 C59.30768177 69.84610119 56.92299712 70.64087703 51.66137695 70.59936523 C50.38042648 70.59906311 49.09947601 70.59876099 47.77970886 70.59844971 C46.39170706 70.5780262 45.00371169 70.55716227 43.61572266 70.53588867 C42.1879811 70.5284227 40.76022925 70.52273145 39.33247375 70.51873779 C35.58559579 70.50350914 31.83934399 70.46425244 28.0927124 70.41992188 C24.26518218 70.37890863 20.43755019 70.36071394 16.60986328 70.34057617 C9.10762556 70.29775444 1.60590267 70.22953803 -5.89599609 70.14526367 C-5.91912176 61.1660559 -5.93691232 52.18685831 -5.94780827 43.2076273 C-5.95303661 39.0386354 -5.96013336 34.8696638 -5.97143555 30.70068359 C-5.98226618 26.68068682 -5.9882733 22.66070962 -5.99087334 18.64069939 C-5.99272727 17.10363392 -5.99634728 15.56656958 -6.00172615 14.02951241 C-6.00893893 11.8839088 -6.00998694 9.73838712 -6.00952148 7.59277344 C-6.0117421 6.36921646 -6.01396271 5.14565948 -6.01625061 3.88502502 C-5.81462581 -0.70859722 -4.13296747 0.01705157 0 0 Z M-4.89599609 2.14526367 C-4.89599609 23.92526367 -4.89599609 45.70526367 -4.89599609 68.14526367 C5.39587891 68.22776367 15.68775391 68.31026367 26.29150391 68.39526367 C29.53502686 68.43167969 32.7785498 68.4680957 36.12036133 68.50561523 C38.69172503 68.51729787 41.26309613 68.5274907 43.83447266 68.53588867 C44.49900955 68.54634216 45.16354645 68.55679565 45.84822083 68.56756592 C47.81634748 68.59696412 49.78482776 68.59862099 51.75317383 68.59936523 C52.861259 68.60824768 53.96934418 68.61713013 55.11100769 68.62628174 C58.79830967 68.03367863 60.45313931 66.72314634 63.10400391 64.14526367 C64.07806508 62.13642055 64.07806508 62.13642055 64.35400391 59.95776367 C64.48291016 59.26295898 64.61181641 58.5681543 64.74462891 57.85229492 C64.92251953 56.51231445 64.92251953 56.51231445 65.10400391 55.14526367 C65.19012939 54.53255615 65.27625488 53.91984863 65.36499023 53.28857422 C66.21565427 46.63854788 66.28761688 40.03010573 66.29150391 33.33276367 C66.30375 32.23383789 66.31599609 31.13491211 66.32861328 30.00268555 C66.70920009 17.41650485 66.70920009 17.41650485 62.58911133 5.93115234 C55.59287739 0.90340392 46.19890415 1.87760514 37.97509766 1.94995117 C36.33740417 1.95297241 36.33740417 1.95297241 34.66662598 1.95605469 C30.6248753 1.96644443 26.58318497 1.99436648 22.54150391 2.02026367 C13.48712891 2.06151367 4.43275391 2.10276367 -4.89599609 2.14526367 Z " fill="#F4777A" transform="translate(53.89599609375,68.854736328125)"/>
<path d="M0 0 C1.35193175 2.7038635 0.61008377 4.06213603 0 7 C-0.22054422 11.45610522 -0.18513214 15.91396037 -0.1875 20.375 C-0.19974609 21.5815625 -0.21199219 22.788125 -0.22460938 24.03125 C-0.24306714 35.2289629 1.54532752 42.33564436 9 51 C13.09528258 54.37205387 17.90538565 55.75037761 23 57 C23.61580429 57.17883224 24.23160858 57.35766449 24.86607361 57.54191589 C27.43972319 58.09439417 29.82236662 58.13229414 32.45532227 58.1418457 C33.54647842 58.14888016 34.63763458 58.15591461 35.76185608 58.16316223 C36.93485764 58.16732651 38.10785919 58.17149078 39.31640625 58.17578125 C41.79623257 58.19896666 44.27605032 58.22308346 46.75585938 58.24804688 C50.66892338 58.28325977 54.58166934 58.31256546 58.49487305 58.32592773 C62.26910779 58.34134052 66.04241471 58.38149396 69.81640625 58.42578125 C71.57894493 58.42291862 71.57894493 58.42291862 73.37709045 58.41999817 C74.46509445 58.43648911 75.55309845 58.45298004 76.67407227 58.4699707 C77.6324147 58.47583694 78.59075714 58.48170319 79.57814026 58.48774719 C82 59 82 59 83.80577087 60.88298035 C85.97093425 64.72118301 85.63618273 68.7334267 85 73 C82.94892412 76.39488422 81.29515379 77.80323081 78 80 C75.81938171 80.26069641 75.81938171 80.26069641 73.2565918 80.2746582 C71.81445564 80.28895622 71.81445564 80.28895622 70.34318542 80.30354309 C68.78692192 80.30217598 68.78692192 80.30217598 67.19921875 80.30078125 C66.13008743 80.30506638 65.06095612 80.3093515 63.95942688 80.31376648 C61.69569609 80.31951296 59.43194683 80.32000772 57.16821289 80.31567383 C53.71142844 80.31252182 50.25550623 80.33594218 46.79882812 80.36132812 C44.59895941 80.36360193 42.3990884 80.36430424 40.19921875 80.36328125 C39.16778244 80.372491 38.13634613 80.38170074 37.07365417 80.39118958 C31.53111001 80.35563078 27.70438609 80.02157311 23 77 C23 73.04 23 69.08 23 65 C15.08 65 7.16 65 -1 65 C-1 71.6 -1 78.2 -1 85 C-1.66 85 -2.32 85 -3 85 C-5.28571429 67.57142857 -5.28571429 67.57142857 -3 63 C5.91 63 14.82 63 24 63 C24.33 67.29 24.66 71.58 25 76 C30.74183591 76.98044464 36.31422572 77.16085824 42.1328125 77.16796875 C43.08767548 77.17129715 44.04253845 77.17462555 45.02633667 77.17805481 C47.03496827 77.18309564 49.04360817 77.18546402 51.05224609 77.18530273 C54.12220954 77.187498 57.19181834 77.20570786 60.26171875 77.22460938 C62.21874878 77.22754215 64.1757805 77.22952772 66.1328125 77.23046875 C67.50483322 77.24124702 67.50483322 77.24124702 68.90457153 77.25224304 C75.18837673 77.24318316 75.18837673 77.24318316 81 75 C82.38226016 72.23547967 82.09525387 69.9538637 82.0625 66.875 C82.05347656 65.77929688 82.04445313 64.68359375 82.03515625 63.5546875 C82.02355469 62.71164063 82.01195312 61.86859375 82 61 C81.41721283 61.00444122 80.83442566 61.00888245 80.23397827 61.01345825 C74.10067223 61.05812893 67.96741331 61.08804545 61.83398438 61.10986328 C59.55304076 61.11984482 57.27210969 61.1334348 54.99121094 61.15087891 C17.68991973 61.42875881 17.68991973 61.42875881 6.19921875 51.43359375 C5 50 5 50 5 48 C4.34 48 3.68 48 3 48 C-1.37889978 39.81045461 -3.19099211 32.22493719 -4 23 C-4.0721875 22.28199219 -4.144375 21.56398438 -4.21875 20.82421875 C-4.56172033 14.15058773 -2.67792947 7.40743014 -1 1 C-0.67 0.67 -0.34 0.34 0 0 Z " fill="#F48B8E" transform="translate(289,60)"/>
<path d="M0 0 C3.5578125 -0.0928125 3.5578125 -0.0928125 7.1875 -0.1875 C8.29387817 -0.22846802 8.29387817 -0.22846802 9.42260742 -0.27026367 C13.79003441 -0.32511454 16.68003935 0.08553073 20 3 C20.90538006 6.36846371 20.63167524 9.58448165 20 13 C18 15.625 18 15.625 16 17 C16.69029297 17.59748047 16.69029297 17.59748047 17.39453125 18.20703125 C19.2674322 20.29866516 19.87389302 22.01421992 20.6875 24.6875 C20.93886719 25.49574219 21.19023437 26.30398437 21.44921875 27.13671875 C21.63097656 27.75160156 21.81273437 28.36648437 22 29 C19.36 29 16.72 29 14 29 C13.66226563 28.28972656 13.32453125 27.57945312 12.9765625 26.84765625 C12.30753906 25.46900391 12.30753906 25.46900391 11.625 24.0625 C11.18414062 23.14597656 10.74328125 22.22945312 10.2890625 21.28515625 C9.20800838 18.87096198 9.20800838 18.87096198 7 18 C7 21.63 7 25.26 7 29 C4.69 29 2.38 29 0 29 C0 19.43 0 9.86 0 0 Z M8 8 C8 8.66 8 9.32 8 10 C9.32 9.67 10.64 9.34 12 9 C10.68 8.67 9.36 8.34 8 8 Z " fill="#CC2023" transform="translate(112,178)"/>
<path d="M0 0 C30.69 0 61.38 0 93 0 C93 0.66 93 1.32 93 2 C93.556875 2.02578125 94.11375 2.0515625 94.6875 2.078125 C102.65364108 2.67020305 109.19906332 5.36967911 115 11 C116.3125 13.75 116.3125 13.75 117 16 C116.5875 15.61328125 116.175 15.2265625 115.75 14.828125 C108.46986287 8.26300134 101.65606733 5.50381376 92 4 C92 3.34 92 2.68 92 2 C47.945 2.495 47.945 2.495 3 3 C2.67 45.24 2.34 87.48 2 131 C1.34 131 0.68 131 0 131 C0 87.77 0 44.54 0 0 Z " fill="#F7B7B8" transform="translate(21,38)"/>
<path d="M0 0 C6.27 0 12.54 0 19 0 C19 2.31 19 4.62 19 7 C15.04 7 11.08 7 7 7 C7 7.99 7 8.98 7 10 C10.63 10 14.26 10 18 10 C18 12.31 18 14.62 18 17 C14.37 17 10.74 17 7 17 C7 18.65 7 20.3 7 22 C10.96 22 14.92 22 19 22 C19 24.31 19 26.62 19 29 C12.73 29 6.46 29 0 29 C0 19.43 0 9.86 0 0 Z " fill="#CC1F22" transform="translate(321,178)"/>
<path d="M0 0 C6.27 0 12.54 0 19 0 C19 2.31 19 4.62 19 7 C15.04 7 11.08 7 7 7 C7 7.99 7 8.98 7 10 C10.63 10 14.26 10 18 10 C18 12.31 18 14.62 18 17 C14.37 17 10.74 17 7 17 C7 18.65 7 20.3 7 22 C10.96 22 14.92 22 19 22 C19 24.31 19 26.62 19 29 C12.73 29 6.46 29 0 29 C0 19.43 0 9.86 0 0 Z " fill="#CC1F22" transform="translate(206,178)"/>
<path d="M0 0 C2.31 0 4.62 0 7 0 C7.02505615 0.59538574 7.0501123 1.19077148 7.07592773 1.80419922 C7.19177494 4.49469136 7.31455196 7.1848234 7.4375 9.875 C7.47681641 10.81214844 7.51613281 11.74929687 7.55664062 12.71484375 C7.59853516 13.61074219 7.64042969 14.50664062 7.68359375 15.4296875 C7.72025146 16.25710449 7.75690918 17.08452148 7.79467773 17.93701172 C7.88238327 20.06179429 7.88238327 20.06179429 9 22 C10.66611905 22.042721 12.33382885 22.04063832 14 22 C15.61780157 20.38219843 15.22272147 18.54364482 15.31640625 16.30859375 C15.35830078 15.36435547 15.40019531 14.42011719 15.44335938 13.44726562 C15.50233398 11.95743164 15.50233398 11.95743164 15.5625 10.4375 C15.60568359 9.44041016 15.64886719 8.44332031 15.69335938 7.41601562 C15.79980298 4.9441585 15.90181928 2.4721969 16 0 C18.31 0 20.62 0 23 0 C23.08797281 3.18732254 23.14071341 6.37432788 23.1875 9.5625 C23.21263672 10.45775391 23.23777344 11.35300781 23.26367188 12.27539062 C23.32654729 17.99705383 22.74758742 21.94948303 20 27 C17.5482746 29.37743069 15.96102569 29.97847302 12.55859375 30.0546875 C5.77288151 29.60033122 5.77288151 29.60033122 3.3203125 27.6953125 C0.52228464 24.1025785 -0.24819101 21.34442654 -0.1953125 16.796875 C-0.18886719 15.8171875 -0.18242187 14.8375 -0.17578125 13.828125 C-0.15902344 12.81234375 -0.14226562 11.7965625 -0.125 10.75 C-0.11597656 9.71875 -0.10695313 8.6875 -0.09765625 7.625 C-0.07412011 5.08309713 -0.04124023 2.5416672 0 0 Z " fill="#CC2225" transform="translate(267,178)"/>
<path d="M0 0 C0.33 0 0.66 0 1 0 C1 4.95 1 9.9 1 15 C24.76 15 48.52 15 73 15 C73 25.56 73 36.12 73 47 C72 48 72 48 69.18431091 48.12025452 C67.29568077 48.1169236 67.29568077 48.1169236 65.36889648 48.11352539 C64.67624695 48.11367142 63.98359741 48.11381744 63.2699585 48.1139679 C60.97030554 48.11326874 58.67073263 48.10547628 56.37109375 48.09765625 C54.78068588 48.09579208 53.19027743 48.09436817 51.59986877 48.09336853 C47.4060407 48.08954329 43.21224705 48.07971295 39.01843262 48.06866455 C34.74211086 48.05845057 30.46578356 48.05387094 26.18945312 48.04882812 C17.79295116 48.03809068 9.39648382 48.02049384 1 48 C1 53.94 1 59.88 1 66 C25.42 66 49.84 66 75 66 C75 66.99 75 67.98 75 69 C65.36879475 68.89266091 55.73766982 68.78006113 46.10660648 68.66066074 C41.63498006 68.60539123 37.16334715 68.55196493 32.69165039 68.50268555 C28.37982234 68.45510123 24.06807632 68.40276084 19.75634575 68.34705925 C18.10766061 68.32660872 16.45895294 68.30790019 14.81022835 68.29092598 C12.5089004 68.26694141 10.2077289 68.23687923 7.90649414 68.20532227 C6.5941127 68.18977798 5.28173126 68.1742337 3.92958069 68.15821838 C1 68 1 68 0 67 C0 60.07 0 53.14 0 46 C35.145 45.505 35.145 45.505 71 45 C71 35.76 71 26.52 71 17 C47.57 16.67 24.14 16.34 0 16 C0 10.72 0 5.44 0 0 Z " fill="#F69A9C" transform="translate(195,71)"/>
<path d="M0 0 C2.64 0 5.28 0 8 0 C9.15520791 3.51782635 10.29745345 7.03973385 11.4375 10.5625 C11.92573242 12.0484668 11.92573242 12.0484668 12.42382812 13.56445312 C14.0860321 18.7224263 15.46249631 23.60225164 16 29 C13.69 29 11.38 29 9 29 C8.505 26.525 8.505 26.525 8 24 C5.03 24 2.06 24 -1 24 C-1.33 25.65 -1.66 27.3 -2 29 C-4.31 29 -6.62 29 -9 29 C-3.19101124 6.38202247 -3.19101124 6.38202247 0 0 Z M3 14 C4 16 4 16 4 16 Z " fill="#CC2124" transform="translate(45,178)"/>
<path d="M0 0 C2.64 0 5.28 0 8 0 C9.15520791 3.51782635 10.29745345 7.03973385 11.4375 10.5625 C11.92573242 12.0484668 11.92573242 12.0484668 12.42382812 13.56445312 C14.0860321 18.7224263 15.46249631 23.60225164 16 29 C13.69 29 11.38 29 9 29 C8.505 26.525 8.505 26.525 8 24 C5.03 24 2.06 24 -1 24 C-1.33 25.65 -1.66 27.3 -2 29 C-4.31 29 -6.62 29 -9 29 C-3.19101124 6.38202247 -3.19101124 6.38202247 0 0 Z M3 14 C4 16 4 16 4 16 Z " fill="#CC2123" transform="translate(93,178)"/>
<path d="M0 0 C10.87774465 -0.78069938 10.87774465 -0.78069938 14.875 2 C15.57625 2.99 16.2775 3.98 17 5 C17.51175781 5.65097656 18.02351563 6.30195312 18.55078125 6.97265625 C24.67674161 14.79458654 26.14718282 21.10777155 25.33740234 30.99072266 C24.23987279 37.52666203 19.83558032 42.35969418 15.0625 46.625 C9.84636788 48.96693687 5.39953494 49.68948913 -0.0625 48.0625 C-5.65301971 45.63040383 -9.41159713 41.18243837 -12.1015625 35.79296875 C-15.1922065 27.54643733 -14.80373312 20.39563097 -11.2734375 12.37109375 C-9.05671231 8.24363305 -6.46634154 3.77073173 -1.8125 2.31640625 C-0.9153125 2.15978516 -0.9153125 2.15978516 0 2 C0 1.34 0 0.68 0 0 Z M6 5.375 C5.154375 5.44460937 4.30875 5.51421875 3.4375 5.5859375 C-0.13409543 6.19265083 -2.21968702 7.00612768 -4.484375 9.890625 C-8.88905867 18.10182542 -9.55210974 27.02496944 -7.125 36.0625 C-6.75375 37.031875 -6.3825 38.00125 -6 39 C-5.731875 39.9075 -5.46375 40.815 -5.1875 41.75 C-3.56595615 44.82239888 -2.20945177 45.67435688 1 47 C7.25360748 47.71762709 11.86537945 46.7412513 17 43 C22.55796376 37.31822022 23.01066386 31.75955013 23.25 24.0625 C23.16036952 16.00571545 20.7060096 10.7060096 15 5 C11.94596464 5 9.03373443 5.10677348 6 5.375 Z " fill="#EE4548" transform="translate(462,38)"/>
<path d="M0 0 C0.33 0 0.66 0 1 0 C1.33 6.93 1.66 13.86 2 21 C4.23644287 21.02505615 6.47288574 21.0501123 8.77709961 21.07592773 C16.14925363 21.15923809 23.5213355 21.24794472 30.89339352 21.33933926 C35.36501994 21.39460877 39.83665285 21.44803507 44.30834961 21.49731445 C48.62017766 21.54489877 52.93192368 21.59723916 57.24365425 21.65294075 C58.89233939 21.67339128 60.54104706 21.69209981 62.18977165 21.70907402 C64.4910996 21.73305859 66.7922711 21.76312077 69.09350586 21.79467773 C71.06207802 21.81799416 71.06207802 21.81799416 73.07041931 21.84178162 C76 22 76 22 77 23 C77 32.9 77 42.8 77 53 C43.67 53 10.34 53 -24 53 C-24 52.34 -24 51.68 -24 51 C8.67 51 41.34 51 75 51 C75 41.76 75 32.52 75 23 C72.76355713 23.00523682 70.52711426 23.01047363 68.22290039 23.01586914 C60.85080722 23.03240582 53.47871326 23.04347154 46.10660648 23.05181217 C41.63494451 23.05704074 37.16330147 23.06413789 32.69165039 23.07543945 C28.37988027 23.08626929 24.06812841 23.09227704 19.75634575 23.09487724 C18.10763702 23.09673132 16.45892934 23.1003516 14.81022835 23.10573006 C12.50896128 23.11294178 10.2077706 23.11399089 7.90649414 23.11352539 C5.93792198 23.11685631 5.93792198 23.11685631 3.92958069 23.12025452 C1 23 1 23 0 22 C-0.08700342 20.36527118 -0.10701063 18.72685945 -0.09765625 17.08984375 C-0.09443359 16.10048828 -0.09121094 15.11113281 -0.08789062 14.09179688 C-0.07951172 13.05087891 -0.07113281 12.00996094 -0.0625 10.9375 C-0.05798828 9.89271484 -0.05347656 8.84792969 -0.04882812 7.77148438 C-0.03699913 5.1809334 -0.02051689 2.59049441 0 0 Z " fill="#F25357" transform="translate(194,117)"/>
<path d="M0 0 C2.64 0 5.28 0 8 0 C8.67250524 2.58193977 9.33817901 5.16532071 10 7.75 C10.19078125 8.47960937 10.3815625 9.20921875 10.578125 9.9609375 C11.46515964 13.44571646 12 16.38123722 12 20 C12.66 20 13.32 20 14 20 C14.1546875 18.39125 14.1546875 18.39125 14.3125 16.75 C15.0099734 11.04712923 16.53076782 5.54427239 18 0 C20.31 0 22.62 0 25 0 C23.36559954 9.9698428 20.13564949 19.42196248 17 29 C14.36 29 11.72 29 9 29 C6.03 19.43 3.06 9.86 0 0 Z " fill="#CC2023" transform="translate(292,178)"/>
<path d="M0 0 C2.64 0 5.28 0 8 0 C8.67250524 2.58193977 9.33817901 5.16532071 10 7.75 C10.19078125 8.47960937 10.3815625 9.20921875 10.578125 9.9609375 C11.46515964 13.44571646 12 16.38123722 12 20 C12.66 20 13.32 20 14 20 C14.1546875 18.39125 14.1546875 18.39125 14.3125 16.75 C15.0099734 11.04712923 16.53076782 5.54427239 18 0 C20.31 0 22.62 0 25 0 C23.36559954 9.9698428 20.13564949 19.42196248 17 29 C14.36 29 11.72 29 9 29 C6.03 19.43 3.06 9.86 0 0 Z " fill="#CC2023" transform="translate(177,178)"/>
<path d="M0 0 C33 0 66 0 100 0 C104.6236109 9.24722181 101 20.66129172 101 31 C75.92 31 50.84 31 25 31 C25 36.28 25 41.56 25 47 C24.67 47 24.34 47 24 47 C23.97315688 44.18743719 23.95323812 41.37512759 23.9375 38.5625 C23.92912109 37.76005859 23.92074219 36.95761719 23.91210938 36.13085938 C23.9034857 34.08704779 23.9477185 32.04316098 24 30 C25 29 25 29 27.92958069 28.87974548 C29.24196213 28.88196609 30.55434357 28.88418671 31.90649414 28.88647461 C32.62840439 28.88632858 33.35031464 28.88618256 34.09410095 28.8860321 C36.49114947 28.88673131 38.88812123 28.89452405 41.28515625 28.90234375 C42.94282489 28.9042079 44.60049407 28.90563182 46.25816345 28.90663147 C50.62954214 28.91045688 55.00088781 28.92028735 59.37225342 28.93133545 C63.82954461 28.94154908 68.28684111 28.94612899 72.74414062 28.95117188 C81.49611062 28.9619096 90.2480474 28.97950658 99 29 C99 19.76 99 10.52 99 1 C66.33 1 33.66 1 0 1 C0 0.67 0 0.34 0 0 Z " fill="#F25256" transform="translate(170,40)"/>
<path d="M0 0 C2.14576637 -0.02685938 4.29162645 -0.04633088 6.4375 -0.0625 C7.63246094 -0.07410156 8.82742188 -0.08570313 10.05859375 -0.09765625 C13 0 13 0 14 1 C14 2.65 14 4.3 14 6 C18.29 6.33 22.58 6.66 27 7 C27 7.33 27 7.66 27 8 C24.69 8 22.38 8 20 8 C19.98541748 8.70084717 19.97083496 9.40169434 19.95581055 10.1237793 C19.88114513 13.31223009 19.78454525 16.49965513 19.6875 19.6875 C19.66494141 20.79029297 19.64238281 21.89308594 19.61914062 23.02929688 C19.58369141 24.09599609 19.54824219 25.16269531 19.51171875 26.26171875 C19.48553467 27.24100342 19.45935059 28.22028809 19.43237305 29.22924805 C18.93115592 32.44116969 17.87659535 34.36680631 16 37 C11.58333546 40.08139387 6.15118693 39.62670227 1 39 C-2.68241305 36.89576397 -4.43527224 34.88395439 -6 31 C-6.22705078 28.34277344 -6.22705078 28.34277344 -6.1953125 25.359375 C-6.18886719 24.28945312 -6.18242187 23.21953125 -6.17578125 22.1171875 C-6.15902344 21.00601563 -6.14226562 19.89484375 -6.125 18.75 C-6.11597656 17.62335938 -6.10695313 16.49671875 -6.09765625 15.3359375 C-6.07410658 12.55707635 -6.0412168 9.7786461 -6 7 C-4.02 7 -2.04 7 0 7 C0 4.69 0 2.38 0 0 Z M4 7 C3.9131671 10.458176 3.85966718 13.91607344 3.8125 17.375 C3.78736328 18.35984375 3.76222656 19.3446875 3.73632812 20.359375 C3.72666016 21.30039063 3.71699219 22.24140625 3.70703125 23.2109375 C3.6913208 24.08024902 3.67561035 24.94956055 3.65942383 25.84521484 C3.77181396 26.55629395 3.8842041 27.26737305 4 28 C5.485 28.99 5.485 28.99 7 30 C7.66 29.67 8.32 29.34 9 29 C9.33 21.74 9.66 14.48 10 7 C8.02 7 6.04 7 4 7 Z M-5 8 C-5.11681812 11.54138618 -5.187455 15.0822724 -5.25 18.625 C-5.28351563 19.62402344 -5.31703125 20.62304688 -5.3515625 21.65234375 C-5.43274006 27.78124949 -5.13853353 31.3584403 -1 36 C2.80427314 38.49995092 6.54360446 38.21967508 10.91015625 37.609375 C14.18419378 36.65470238 15.37719156 34.90753179 17 32 C17.9358316 29.02182381 18.11761125 26.34735433 18.09765625 23.234375 C18.09282227 21.90019531 18.09282227 21.90019531 18.08789062 20.5390625 C18.07951172 19.61867187 18.07113281 18.69828125 18.0625 17.75 C18.05798828 16.81414062 18.05347656 15.87828125 18.04882812 14.9140625 C18.03706918 12.60930959 18.02063426 10.30468773 18 8 C15.69 8 13.38 8 11 8 C10.97494385 8.63091553 10.9498877 9.26183105 10.92407227 9.91186523 C10.80845863 12.75396825 10.68557684 15.59571083 10.5625 18.4375 C10.52318359 19.43072266 10.48386719 20.42394531 10.44335938 21.44726562 C10.40146484 22.39150391 10.35957031 23.33574219 10.31640625 24.30859375 C10.26141968 25.62041626 10.26141968 25.62041626 10.20532227 26.95874023 C10 29 10 29 9 30 C7.33382885 30.04063832 5.66611905 30.042721 4 30 C2.82530556 27.65061112 2.79965111 26.04926795 2.68359375 23.4296875 C2.62075195 22.08583984 2.62075195 22.08583984 2.55664062 20.71484375 C2.51732422 19.77769531 2.47800781 18.84054688 2.4375 17.875 C2.39431641 16.93011719 2.35113281 15.98523438 2.30664062 15.01171875 C2.20040928 12.67462908 2.09836824 10.3374317 2 8 C-0.31 8 -2.62 8 -5 8 Z " fill="#D0C5C5" transform="translate(272,170)"/>
<path d="M0 0 C2.64 0 5.28 0 8 0 C8 7.26 8 14.52 8 22 C11.63 22 15.26 22 19 22 C19 24.31 19 26.62 19 29 C12.73 29 6.46 29 0 29 C0 19.43 0 9.86 0 0 Z " fill="#CC2A2D" transform="translate(371,178)"/>
<path d="M0 0 C2.64 0 5.28 0 8 0 C8 7.26 8 14.52 8 22 C11.63 22 15.26 22 19 22 C19 24.31 19 26.62 19 29 C12.73 29 6.46 29 0 29 C0 19.43 0 9.86 0 0 Z " fill="#CC2A2D" transform="translate(64,178)"/>
<path d="M0 0 C0.79191742 -0.00428513 1.58383484 -0.00857025 2.39974976 -0.01298523 C4.05848237 -0.01868074 5.71723993 -0.01926449 7.37597656 -0.01489258 C9.89952216 -0.01171739 12.42190992 -0.03530305 14.9453125 -0.06054688 C16.56770687 -0.06281902 18.19010436 -0.06352376 19.8125 -0.0625 C20.55746735 -0.07170975 21.30243469 -0.08091949 22.06997681 -0.09040833 C27.04840499 -0.04680593 32.54928737 0.57663112 36.2734375 4.30078125 C36.2734375 7.93078125 36.2734375 11.56078125 36.2734375 15.30078125 C44.5234375 15.30078125 52.7734375 15.30078125 61.2734375 15.30078125 C61.2734375 10.68078125 61.2734375 6.06078125 61.2734375 1.30078125 C61.6034375 1.30078125 61.9334375 1.30078125 62.2734375 1.30078125 C62.30028845 3.78001926 62.32020297 6.25896965 62.3359375 8.73828125 C62.34431641 9.44533203 62.35269531 10.15238281 62.36132812 10.88085938 C62.36997338 12.68771684 62.32563761 14.49465728 62.2734375 16.30078125 C60.52798145 18.0462373 58.11219533 17.43101285 55.7421875 17.43359375 C54.62199219 17.43488281 53.50179687 17.43617187 52.34765625 17.4375 C51.16816406 17.43363281 49.98867188 17.42976563 48.7734375 17.42578125 C47.00419922 17.43158203 47.00419922 17.43158203 45.19921875 17.4375 C43.51892578 17.43556641 43.51892578 17.43556641 41.8046875 17.43359375 C40.76892578 17.43246582 39.73316406 17.43133789 38.66601562 17.43017578 C36.2734375 17.30078125 36.2734375 17.30078125 35.2734375 16.30078125 C35.20117248 14.44790623 35.1896253 12.59244247 35.2109375 10.73828125 C35.21996094 9.72636719 35.22898437 8.71445313 35.23828125 7.671875 C35.24988281 6.88941406 35.26148438 6.10695313 35.2734375 5.30078125 C29.71399729 3.73469236 24.76577432 2.99262088 19.00390625 3 C18.24225662 2.99571487 17.48060699 2.99142975 16.69587708 2.98701477 C15.0950316 2.98131081 13.49416023 2.98074191 11.89331055 2.98510742 C9.47723933 2.98825998 7.06240418 2.96478548 4.64648438 2.93945312 C-4.01474467 2.90567898 -11.42827748 3.48515903 -19.7265625 6.30078125 C-20.0565625 9.93078125 -20.3865625 13.56078125 -20.7265625 17.30078125 C-8.78862026 19.56154629 2.96867653 19.73850651 15.0859375 19.92578125 C17.14649936 19.96404489 19.20704667 20.0031012 21.26757812 20.04296875 C26.26941035 20.13804216 31.27131702 20.22239908 36.2734375 20.30078125 C36.2734375 20.63078125 36.2734375 20.96078125 36.2734375 21.30078125 C29.26256408 21.35156882 22.25173828 21.38655169 15.24072266 21.41064453 C12.85659004 21.42069049 10.4724697 21.43432964 8.08837891 21.45166016 C4.65784672 21.47596989 1.22747773 21.48727859 -2.203125 21.49609375 C-3.26584625 21.50641632 -4.3285675 21.51673889 -5.42349243 21.52737427 C-12.09305976 21.5283812 -17.04430739 21.08895133 -22.7265625 17.30078125 C-23.43362577 13.5886991 -23.29535212 10.02828602 -22.7265625 6.30078125 C-17.8390617 -0.16333271 -7.51038165 -0.00923855 0 0 Z " fill="#F7989A" transform="translate(334.7265625,68.69921875)"/>
<path d="M0 0 C3.63 0 7.26 0 11 0 C13.36332782 5.21872682 15.12522861 10.43104534 16.6875 15.9375 C17.450625 18.598125 18.21375 21.25875 19 24 C19.33 16.08 19.66 8.16 20 0 C23.3 0 26.6 0 30 0 C30 7.26 30 14.52 30 22 C33.63 22 37.26 22 41 22 C41.495 25.465 41.495 25.465 42 29 C44.31 29.33 46.62 29.66 49 30 C49 30.33 49 30.66 49 31 C36.13 31 23.26 31 10 31 C9.505 28.525 9.505 28.525 9 26 C7.02 26 5.04 26 3 26 C2.67 27.65 2.34 29.3 2 31 C-1.3 31 -4.6 31 -8 31 C-7.40316369 24.00608717 -5.54772419 17.67750149 -3.4375 11 C-3.10814453 9.93910156 -2.77878906 8.87820312 -2.43945312 7.78515625 C-1.632301 5.18823203 -0.81697743 2.59385 0 0 Z M2 1 C-0.79161653 6.97724501 -2.50914705 13.06804695 -4.1875 19.4375 C-4.46013672 20.45521484 -4.73277344 21.47292969 -5.01367188 22.52148438 C-5.68044748 25.01311951 -6.34242178 27.50592482 -7 30 C-4.69 30 -2.38 30 0 30 C0.33 28.35 0.66 26.7 1 25 C3.97 25 6.94 25 10 25 C10.33 26.65 10.66 28.3 11 30 C13.31 30 15.62 30 18 30 C16.36559954 20.0301572 13.13564949 10.57803752 10 1 C7.36 1 4.72 1 2 1 Z M21 1 C21 10.57 21 20.14 21 30 C27.27 30 33.54 30 40 30 C40 27.69 40 25.38 40 23 C36.37 23 32.74 23 29 23 C29 15.74 29 8.48 29 1 C26.36 1 23.72 1 21 1 Z " fill="#D1C2C2" transform="translate(43,177)"/>
<path d="M0 0 C14.52 0 29.04 0 44 0 C44 0.66 44 1.32 44 2 C45.134375 2.0825 46.26875 2.165 47.4375 2.25 C56.03553815 3.37214254 63.31158716 7.46885934 69 14 C72.19974982 19.01003011 74.52682589 24.00646127 75 30 C71.74772461 26.74772461 70.17541151 23.62941778 68.9375 19.1875 C66.81494908 13.38072856 62.15556762 10.10335139 57 7 C37.40153972 -0.97132325 4.40607412 -0.48119961 -15.28515625 7.31640625 C-21.40506604 11.11163088 -26.18807746 16.7061202 -31 22 C-31.33 21.34 -31.66 20.68 -32 20 C-27.90613335 12.02773336 -22.52929182 6.80006776 -13.98828125 4.01953125 C-9.23852626 2.77513049 -4.92916864 1.82878573 0 2 C0 1.34 0 0.68 0 0 Z " fill="#F59194" transform="translate(322,38)"/>
<path d="M0 0 C30.69 0 61.38 0 93 0 C93 0.66 93 1.32 93 2 C93.556875 2.02578125 94.11375 2.0515625 94.6875 2.078125 C102.65364108 2.67020305 109.19906332 5.36967911 115 11 C116.3125 13.75 116.3125 13.75 117 16 C116.5875 15.61328125 116.175 15.2265625 115.75 14.828125 C108.46986287 8.26300134 101.65606733 5.50381376 92 4 C92 3.34 92 2.68 92 2 C46.46 2.495 46.46 2.495 0 3 C0 2.01 0 1.02 0 0 Z " fill="#F79D9F" transform="translate(21,38)"/>
<path d="M0 0 C2.39901656 2.39901656 2.49378422 3.57740433 3.0625 6.875 C3.21847656 7.73867187 3.37445313 8.60234375 3.53515625 9.4921875 C4.91144476 19.87796132 5.20549642 30.219581 5.1875 40.6875 C5.18656342 41.39276825 5.18562683 42.0980365 5.18466187 42.82467651 C5.13687476 59.43693281 4.59641335 75.80717331 -3 91 C-3.66 91 -4.32 91 -5 91 C-5.2784375 92.051875 -5.2784375 92.051875 -5.5625 93.125 C-8.87126237 99.74252473 -14.85046093 102.80868208 -21.59765625 105.25390625 C-28.31399475 107.33979349 -35.04114418 107.11325443 -42 107 C-42 106.67 -42 106.34 -42 106 C-32.1 105.01 -32.1 105.01 -22 104 C-22 103.34 -22 102.68 -22 102 C-21.03900391 101.5978125 -21.03900391 101.5978125 -20.05859375 101.1875 C-12.2653745 97.65674195 -6.65269118 93.38729669 -3.41015625 85.29296875 C-1.87478448 80.97577017 -1.07246702 76.64268409 -0.375 72.125 C0.888125 64.22375 0.888125 64.22375 2 62 C2.11199025 59.01428346 2.16415172 56.05275386 2.16796875 53.06640625 C2.17129715 52.15986801 2.17462555 51.25332977 2.17805481 50.31932068 C2.18313096 48.38663235 2.18546292 46.45393522 2.18530273 44.52124023 C2.18744754 41.63314116 2.20547677 38.7454511 2.22460938 35.85742188 C2.26007725 23.77535009 1.53548119 11.98371294 0 0 Z " fill="#F58083" transform="translate(143,63)"/>
<path d="M0 0 C3.78959324 2.01080458 4.71078061 3.28383771 6.3125 7.25 C6.539375 8.1575 6.76625 9.065 7 10 C3.58794404 12.09972674 0.9699753 12.33083127 -3 12 C-5.375 11 -5.375 11 -7 10 C-9.45811625 13.68717438 -9.31118164 15.64345704 -9 20 C-8.34 20.99 -7.68 21.98 -7 23 C-6.01 23 -5.02 23 -4 23 C-4.99 22.67 -5.98 22.34 -7 22 C-7 19.03 -7 16.06 -7 13 C-2.38 13 2.24 13 7 13 C8.03628964 26.0769883 8.03628964 26.0769883 5.86328125 30.109375 C1.51613479 33.68813964 -3.83566329 33.67396583 -9.25390625 33.41015625 C-13.01686137 32.8481217 -14.65763591 32.02240528 -17 29 C-20.37252871 22.87692533 -20.9736832 16.58442505 -19.53125 9.79296875 C-18.40805737 6.18939238 -17.20005173 4.20005173 -14.5 1.5 C-9.59390149 -0.60261365 -5.26039973 -0.7858524 0 0 Z M-16.11328125 6.18359375 C-19.53332103 11.28887052 -18.67296113 17.08609918 -18 23 C-16.83674872 26.81944538 -15.16222204 29.20304775 -11.8125 31.5 C-6.67543209 32.41325652 -2.07101383 31.82606209 2.76171875 29.8984375 C5.36054837 28.11851107 5.36054837 28.11851107 5.48828125 24.64453125 C5.43027344 23.37996094 5.37226563 22.11539063 5.3125 20.8125 C5.26738281 19.54019531 5.22226562 18.26789063 5.17578125 16.95703125 C5.11777344 15.98121094 5.05976563 15.00539062 5 14 C1.37 14 -2.26 14 -6 14 C-6 16.31 -6 18.62 -6 21 C-4.35 21 -2.7 21 -1 21 C-1 21.99 -1 22.98 -1 24 C-3.64 24 -6.28 24 -9 24 C-10.44207941 21.11584117 -10.09394887 18.58278472 -10.0625 15.375 C-10.05347656 14.18648437 -10.04445312 12.99796875 -10.03515625 11.7734375 C-10.02355469 10.85820312 -10.01195312 9.94296875 -10 9 C-6.625 8.875 -6.625 8.875 -3 9 C-2.34 9.66 -1.68 10.32 -1 11 C2.09926819 10.67801034 2.09926819 10.67801034 5 10 C4.5047783 6.33535945 3.9791794 4.29167646 1 2 C-6.11628257 -0.37209419 -10.9870684 0.88682299 -16.11328125 6.18359375 Z " fill="#CFC6C6" transform="translate(257,176)"/>
<path d="M0 0 C3.3 0 6.6 0 10 0 C11.65 2.97 13.3 5.94 15 9 C15.33 6.03 15.66 3.06 16 0 C18.97 0 21.94 0 25 0 C25 10.23 25 20.46 25 31 C16 31 16 31 14.02734375 29.25 C13.66769531 28.5075 13.30804688 27.765 12.9375 27 C12.55464844 26.2575 12.17179687 25.515 11.77734375 24.75 C11.52082031 24.1725 11.26429688 23.595 11 23 C10.7834375 24.7015625 10.7834375 24.7015625 10.5625 26.4375 C10 30 10 30 9 31 C6.03 31 3.06 31 0 31 C0 20.77 0 10.54 0 0 Z M2 1 C2 10.57 2 20.14 2 30 C3.98 30 5.96 30 8 30 C8.33 25.38 8.66 20.76 9 16 C11.64 20.62 14.28 25.24 17 30 C19.31 30 21.62 30 24 30 C24 20.43 24 10.86 24 1 C21.69 1 19.38 1 17 1 C16.67 5.29 16.34 9.58 16 14 C15.49210937 13.0615625 14.98421875 12.123125 14.4609375 11.15625 C13.76680479 9.93682767 13.07142672 8.71811365 12.375 7.5 C12.04371094 6.87996094 11.71242188 6.25992188 11.37109375 5.62109375 C10.24483661 3.57862546 10.24483661 3.57862546 8 1 C6.02 1 4.04 1 2 1 Z " fill="#CFBCBC" transform="translate(343,177)"/>
<path d="M0 0 C2.125 0 2.125 0 5 1 C11.37513635 7.66491528 12.25067998 13.03504168 12.15234375 22.02734375 C11.83027225 28.31186703 10.06275384 33.18884413 6 38 C0.856044 41.6922173 -3.75939094 42.80523988 -10 42 C-13.4375 40.3125 -13.4375 40.3125 -16 38 C-16.875 35.25 -16.875 35.25 -17 33 C-16.01 33.33 -15.02 33.66 -14 34 C-14 34.66 -14 35.32 -14 36 C-11.91673869 36.02709444 -9.83337559 36.04643873 -7.75 36.0625 C-6.00976562 36.07990234 -6.00976562 36.07990234 -4.234375 36.09765625 C-1.58112855 36.01754615 0.53028234 35.93496454 3 35 C3.33 34.34 3.66 33.68 4 33 C4.66 33 5.32 33 6 33 C8.83938776 26.0029373 10.57092135 19.15652713 8.30859375 11.73046875 C6.15459794 6.87271251 3.63089173 4.52594094 -1 2 C-0.67 1.34 -0.34 0.68 0 0 Z " fill="#EF3B3E" transform="translate(473,43)"/>
<path d="M0 0 C2.31 0 4.62 0 7 0 C7 9.57 7 19.14 7 29 C4.69 29 2.38 29 0 29 C0 19.43 0 9.86 0 0 Z " fill="#CC1E21" transform="translate(394,178)"/>
<path d="M0 0 C0.66 0.33 1.32 0.66 2 1 C1.31164062 1.51046875 1.31164062 1.51046875 0.609375 2.03125 C-4.06204469 5.721279 -7.46257994 9.13971647 -9 15 C-9.94742471 23.07992391 -10.03760808 30.32235117 -5.4375 37.26171875 C-2.99056396 40.22064955 -0.41870635 42.29064682 3 44 C9.29406336 44.54259167 13.80339543 43.73325916 19 40 C24.88505588 33.05865204 24.64566021 24.72228251 24 16 C22.76454488 10.71769974 19.55672662 6.94123761 16 3 C16.33 2.34 16.66 1.68 17 1 C18.11238779 2.20076929 19.21449912 3.41106114 20.3125 4.625 C21.23482422 5.63433594 21.23482422 5.63433594 22.17578125 6.6640625 C27.5445813 13.53888569 28.13603934 20.56734578 27.35351562 29.02294922 C26.18776677 35.54244798 21.83972715 40.3559885 17.0625 44.625 C11.84636788 46.96693687 7.39953494 47.68948913 1.9375 46.0625 C-3.65301971 43.63040383 -7.41159713 39.18243837 -10.1015625 33.79296875 C-13.19452829 25.54024226 -12.79123625 18.40645512 -9.28125 10.37109375 C-7.06443829 6.26864036 -4.24963091 2.12481546 0 0 Z " fill="#F59698" transform="translate(460,40)"/>
<path d="M0 0 C3.3 0 6.6 0 10 0 C13 9.5 13 9.5 13 14 C13.66 14 14.32 14 15 14 C15.12375 12.80375 15.2475 11.6075 15.375 10.375 C15.82325054 6.72403187 16.70446837 3.45475101 18 0 C18.66 0.33 19.32 0.66 20 1 C18.35 7.6 16.7 14.2 15 21 C14.34 21 13.68 21 13 21 C12.32749476 18.41806023 11.66182099 15.83467929 11 13.25 C10.80921875 12.52039063 10.6184375 11.79078125 10.421875 11.0390625 C9.53484036 7.55428354 9 4.61876278 9 1 C6.69 1.33 4.38 1.66 2 2 C2.36351562 3.16571533 2.36351562 3.16571533 2.734375 4.35498047 C3.82582986 7.86075446 4.91296783 11.36785228 6 14.875 C6.3815625 16.09832031 6.763125 17.32164062 7.15625 18.58203125 C7.5171875 19.74863281 7.878125 20.91523438 8.25 22.1171875 C8.58515625 23.19597168 8.9203125 24.27475586 9.265625 25.38623047 C10 28 10 28 10 30 C12.64 30 15.28 30 18 30 C18.226875 28.865625 18.45375 27.73125 18.6875 26.5625 C20.36794419 18.93303806 22.75098412 11.4766902 25 4 C27 7 27 7 26.6003418 9.43603516 C26.15428589 10.84828369 26.15428589 10.84828369 25.69921875 12.2890625 C25.38146484 13.31257812 25.06371094 14.33609375 24.73632812 15.390625 C24.39021484 16.45796875 24.04410156 17.5253125 23.6875 18.625 C23.18573242 20.23761719 23.18573242 20.23761719 22.67382812 21.8828125 C20.1703845 29.8296155 20.1703845 29.8296155 19 31 C17.31391034 31.07205511 15.62499341 31.08386068 13.9375 31.0625 C13.01839844 31.05347656 12.09929687 31.04445312 11.15234375 31.03515625 C10.44207031 31.02355469 9.73179687 31.01195312 9 31 C6.45190185 25.39112329 4.56843956 19.71332404 2.8125 13.8125 C2.53986328 12.92369141 2.26722656 12.03488281 1.98632812 11.11914062 C1.72916016 10.26126953 1.47199219 9.40339844 1.20703125 8.51953125 C0.9747583 7.74714111 0.74248535 6.97475098 0.50317383 6.17895508 C0 4 0 4 0 0 Z " fill="#D2B6B7" transform="translate(176,177)"/>
<path d="M0 0 C3.3 0 6.6 0 10 0 C10.33 1.65 10.66 3.3 11 5 C11.4125 4.175 11.825 3.35 12.25 2.5 C16.17659254 -1.06962958 19.38743882 -0.39047804 24.515625 -0.17578125 C25.33546875 -0.11777344 26.1553125 -0.05976563 27 0 C26.42569605 3.66422098 24.97166581 5.07926672 22.4375 7.6875 C20.58759949 9.9646603 20.58759949 9.9646603 20 13 C21.48083267 19.08643687 24.89775593 24.61742114 28 30 C27 31 27 31 24.49609375 31.09765625 C23.48675781 31.08605469 22.47742188 31.07445312 21.4375 31.0625 C20.42558594 31.05347656 19.41367187 31.04445312 18.37109375 31.03515625 C17.19740234 31.01775391 17.19740234 31.01775391 16 31 C15.01 28.03 14.02 25.06 13 22 C12.34 22.33 11.68 22.66 11 23 C10.53476937 24.89533342 10.53476937 24.89533342 10.375 27.0625 C10.25125 28.361875 10.1275 29.66125 10 31 C6.7 31 3.4 31 0 31 C0 20.77 0 10.54 0 0 Z M1 1 C1 10.57 1 20.14 1 30 C3.64 30 6.28 30 9 30 C9.12375 28.741875 9.2475 27.48375 9.375 26.1875 C9.69868059 22.89674737 10.06604999 21.90092502 12 19 C12.64834654 20.269553 13.29357815 21.54069706 13.9375 22.8125 C14.29714844 23.52019531 14.65679687 24.22789062 15.02734375 24.95703125 C16 27 16 27 17 30 C19.97 30 22.94 30 26 30 C24.57997521 25.09445983 22.41068895 20.89567917 19.92578125 16.46484375 C18.78732481 13.43376353 18.96519074 12.0464011 20 9 C21.41015625 6.76171875 21.41015625 6.76171875 23.0625 4.6875 C23.61035156 3.99011719 24.15820312 3.29273438 24.72265625 2.57421875 C25.14417969 2.05472656 25.56570313 1.53523437 26 1 C22.51969146 0.44287551 19.45459085 0.21346369 16 1 C13.33438593 3.67082035 11.64817393 6.62325341 10 10 C9.67 7.03 9.34 4.06 9 1 C6.36 1 3.72 1 1 1 Z " fill="#D0C8C8" transform="translate(405,177)"/>
<path d="M0 0 C8.25 0 16.5 0 25 0 C26.42087464 5.68349856 26.22477176 11.22531588 26.25 17.0625 C26.270625 18.25939453 26.29125 19.45628906 26.3125 20.68945312 C26.31765625 21.83478516 26.3228125 22.98011719 26.328125 24.16015625 C26.34214355 25.73228882 26.34214355 25.73228882 26.35644531 27.33618164 C26 30 26 30 24.78051758 31.84448242 C22.45084759 33.35638809 20.95080807 33.35850229 18.18359375 33.328125 C17.25482422 33.32296875 16.32605469 33.3178125 15.36914062 33.3125 C13.91797852 33.2815625 13.91797852 33.2815625 12.4375 33.25 C11.46619141 33.24484375 10.49488281 33.2396875 9.49414062 33.234375 C2.30896855 33.15448428 2.30896855 33.15448428 0 32 C0 31.34 0 30.68 0 30 C7.92 30 15.84 30 24 30 C24 20.76 24 11.52 24 2 C16.08 2 8.16 2 0 2 C0 1.34 0 0.68 0 0 Z " fill="#F79A9C" transform="translate(419,38)"/>
<path d="M0 0 C3.32127351 0.05182742 5.75039017 0.2501224 8.9375 1.25 C11.07112039 3.60433974 11.02976916 4.35534567 11.0625 7.4375 C10.959375 8.695625 10.85625 9.95375 10.75 11.25 C10.42 11.25 10.09 11.25 9.75 11.25 C9.42 8.94 9.09 6.63 8.75 4.25 C4.79 3.92 0.83 3.59 -3.25 3.25 C-2.92 6.22 -2.59 9.19 -2.25 12.25 C0.72 12.58 3.69 12.91 6.75 13.25 C6.42 14.24 6.09 15.23 5.75 16.25 C2.78 15.92 -0.19 15.59 -3.25 15.25 C-3.25 19.21 -3.25 23.17 -3.25 27.25 C-4.24 26.92 -5.23 26.59 -6.25 26.25 C-6.27886751 22.10418113 -6.29675327 17.95838784 -6.3125 13.8125 C-6.32087891 12.62849609 -6.32925781 11.44449219 -6.33789062 10.22460938 C-6.34111328 9.09990234 -6.34433594 7.97519531 -6.34765625 6.81640625 C-6.35289307 5.77427979 -6.35812988 4.73215332 -6.36352539 3.65844727 C-6.15599682 -0.74428257 -3.88994671 0.06240556 0 0 Z " fill="#ED2226" transform="translate(464.25,48.75)"/>
<path d="M0 0 C3.3 0 6.6 0 10 0 C10 7.26 10 14.52 10 22 C13.63 22 17.26 22 21 22 C21.33 15.07 21.66 8.14 22 1 C22.33 1 22.66 1 23 1 C23 10.57 23 20.14 23 30 C20.54724859 31.2263757 18.9494219 31.11415314 16.2109375 31.09765625 C15.36321777 31.09515869 14.51549805 31.09266113 13.64208984 31.09008789 C12.5639502 31.08098389 11.48581055 31.07187988 10.375 31.0625 C6.95125 31.041875 3.5275 31.02125 0 31 C0 20.77 0 10.54 0 0 Z M1 1 C1 10.57 1 20.14 1 30 C7.27 30 13.54 30 20 30 C20 27.69 20 25.38 20 23 C16.37 23 12.74 23 9 23 C9 15.74 9 8.48 9 1 C6.36 1 3.72 1 1 1 Z " fill="#D1CDCD" transform="translate(370,177)"/>
<path d="M0 0 C0 0.33 0 0.66 0 1 C-0.59014893 1.11593506 -1.18029785 1.23187012 -1.78833008 1.35131836 C-4.4634557 1.87802567 -7.13797956 2.40772865 -9.8125 2.9375 C-10.74126953 3.11990234 -11.67003906 3.30230469 -12.62695312 3.49023438 C-13.51962891 3.66748047 -14.41230469 3.84472656 -15.33203125 4.02734375 C-16.15421143 4.18968506 -16.9763916 4.35202637 -17.82348633 4.51928711 C-20.16221265 4.99618914 -20.16221265 4.99618914 -23 6 C-23.33 9.63 -23.66 13.26 -24 17 C-12.06205776 19.26076504 -0.30476097 19.43772526 11.8125 19.625 C13.87306186 19.66326364 15.93360917 19.70231995 17.99414062 19.7421875 C22.99597285 19.83726091 27.99787952 19.92161783 33 20 C33 20.33 33 20.66 33 21 C25.98912658 21.05078757 18.97830078 21.08577044 11.96728516 21.10986328 C9.58315254 21.11990924 7.1990322 21.13354839 4.81494141 21.15087891 C1.38440922 21.17518864 -2.04595977 21.18649734 -5.4765625 21.1953125 C-6.53928375 21.20563507 -7.602005 21.21595764 -8.69692993 21.22659302 C-15.36649726 21.22759995 -20.31774489 20.78817008 -26 17 C-26.70706327 13.28791785 -26.56878962 9.72750477 -26 6 C-23.06790152 2.1220633 -19.24009313 1.19340476 -14.625 0.3046875 C-9.75719033 -0.26032612 -4.89102257 -0.14896515 0 0 Z " fill="#F47275" transform="translate(338,69)"/>
<path d="M0 0 C5.91991027 -0.36244349 10.92582758 -0.45043725 16 3 C20.29452931 11.66800217 20.19576523 22.09468217 20.1875 31.5625 C20.1862915 33.00580688 20.1862915 33.00580688 20.18505859 34.47827148 C20.10337626 44.08235206 19.94539276 54.09800037 16 63 C14.91002426 59.73007278 15.09402716 58.97741389 15.921875 55.7734375 C17.29283444 49.41024696 17.30137815 43.14940613 17.26074219 36.66015625 C17.25005336 34.63510955 17.26067684 32.61095685 17.2734375 30.5859375 C17.88430675 17.28283774 17.88430675 17.28283774 13.60913086 5.23364258 C11.20710967 3.39212945 8.7434521 2.97432789 5.8125 2.3125 C4.72582031 2.06113281 3.63914062 1.80976562 2.51953125 1.55078125 C1.68808594 1.36902344 0.85664062 1.18726562 0 1 C0 0.67 0 0.34 0 0 Z " fill="#F47477" transform="translate(102,70)"/>
<path d="M0 0 C0.8971875 1.1446875 0.8971875 1.1446875 1.8125 2.3125 C3.8280426 4.91570291 3.8280426 4.91570291 5.75 6.625 C7 8 7 8 7 11 C7.66 11 8.32 11 9 11 C9 11.66 9 12.32 9 13 C8.34 13 7.68 13 7 13 C6.67 13.99 6.34 14.98 6 16 C3.2199442 14.6099721 2.45272936 12.71872551 0.875 10.0625 C0.33617187 9.16660156 -0.20265625 8.27070312 -0.7578125 7.34765625 C-2 5 -2 5 -2 3 C-3.65 2.67 -5.3 2.34 -7 2 C-6.97679687 2.75925781 -6.95359375 3.51851563 -6.9296875 4.30078125 C-6.90261719 5.79158203 -6.90261719 5.79158203 -6.875 7.3125 C-6.85179687 8.29863281 -6.82859375 9.28476563 -6.8046875 10.30078125 C-7 13 -7 13 -9 16 C-9.66 16 -10.32 16 -11 16 C-11.33 15.34 -11.66 14.68 -12 14 C-12.99 13.67 -13.98 13.34 -15 13 C-14.67 11.68 -14.34 10.36 -14 9 C-13.319375 9.7115625 -13.319375 9.7115625 -12.625 10.4375 C-11.06741796 12.09027808 -11.06741796 12.09027808 -9 13 C-9 9.04 -9 5.08 -9 1 C-2.25 0.875 -2.25 0.875 0 2 C0 1.34 0 0.68 0 0 Z " fill="#F26568" transform="translate(470,63)"/>
<path d="M0 0 C0.33 0 0.66 0 1 0 C1.20068611 15.87650086 1.20068611 15.87650086 0 22 C-4.31160613 24.15580306 -9.50927531 23.12268117 -14 22 C-14 15.07 -14 8.14 -14 1 C-11.71834868 4.42247699 -11.11395404 7.54131766 -10.375 11.5 C-10.2409375 12.17675781 -10.106875 12.85351562 -9.96875 13.55078125 C-9.41463173 16.41749517 -9 19.07331285 -9 22 C-7.35 22 -5.7 22 -4 22 C-2.68 14.74 -1.36 7.48 0 0 Z " fill="#D0BABA" transform="translate(157,185)"/>
<path d="M0 0 C1.32 0 2.64 0 4 0 C4 0.66 4 1.32 4 2 C5.98 2 7.96 2 10 2 C10 2.33 10 2.66 10 3 C8.90042969 3.09796875 7.80085938 3.1959375 6.66796875 3.296875 C-10.5595562 4.96298371 -19.34157933 9.17388378 -31 22 C-31.33 21.34 -31.66 20.68 -32 20 C-27.90613335 12.02773336 -22.52929182 6.80006776 -13.98828125 4.01953125 C-9.23852626 2.77513049 -4.92916864 1.82878573 0 2 C0 1.34 0 0.68 0 0 Z " fill="#F5898B" transform="translate(322,38)"/>
<path d="M0 0 C2.14576637 -0.02685938 4.29162645 -0.04633088 6.4375 -0.0625 C7.63246094 -0.07410156 8.82742188 -0.08570313 10.05859375 -0.09765625 C13 0 13 0 14 1 C14 2.65 14 4.3 14 6 C10.7 6.66 7.4 7.32 4 8 C3.67 14.6 3.34 21.2 3 28 C2.67 28 2.34 28 2 28 C1.97494385 27.36497559 1.9498877 26.72995117 1.92407227 26.07568359 C1.80743211 23.17528458 1.68501607 20.27515651 1.5625 17.375 C1.50352539 15.87646484 1.50352539 15.87646484 1.44335938 14.34765625 C1.23427386 9.49043896 0.97041445 4.77867956 0 0 Z " fill="#CFA9AA" transform="translate(272,170)"/>
<path d="M0 0 C0.5775 0.226875 1.155 0.45375 1.75 0.6875 C0.986875 1.1 0.22375 1.5125 -0.5625 1.9375 C-3.34497581 3.74934471 -4.58946822 4.84497586 -6.25 7.6875 C-6.72580284 10.98622956 -6.72580284 10.98622956 -6.625 14.5625 C-6.63273438 15.75617188 -6.64046875 16.94984375 -6.6484375 18.1796875 C-6.21520111 21.99386667 -5.23669986 24.42294707 -3.25 27.6875 C0.54857513 30.25712435 4.11520269 29.69307433 8.46875 29.171875 C11.26707057 28.64543867 11.26707057 28.64543867 15.75 26.6875 C15.75 22.0675 15.75 17.4475 15.75 12.6875 C16.08 12.6875 16.41 12.6875 16.75 12.6875 C18.70948595 24.85607243 18.70948595 24.85607243 16.6796875 28.73046875 C12.29181172 32.34463696 6.96999856 32.36417596 1.49609375 32.09765625 C-2.26686137 31.5356217 -3.90763591 30.70990528 -6.25 27.6875 C-9.60459314 21.59698868 -10.33237187 15.18953951 -8.7109375 8.4453125 C-7.64832261 5.25746783 -6.62769141 3.0895586 -4.3125 0.625 C-2.25 -0.3125 -2.25 -0.3125 0 0 Z " fill="#D2B0B0" transform="translate(246.25,177.3125)"/>
<path d="M0 0 C1.23593891 3.70781672 0.5678132 4.67510253 -0.9375 8.1875 C-1.50791016 9.53908203 -1.50791016 9.53908203 -2.08984375 10.91796875 C-2.39019531 11.60503906 -2.69054687 12.29210937 -3 13 C-3.66 13 -4.32 13 -5 13 C-5.2784375 14.051875 -5.2784375 14.051875 -5.5625 15.125 C-8.87126237 21.74252473 -14.85046093 24.80868208 -21.59765625 27.25390625 C-28.31399475 29.33979349 -35.04114418 29.11325443 -42 29 C-42 28.67 -42 28.34 -42 28 C-35.4 27.34 -28.8 26.68 -22 26 C-22 25.34 -22 24.68 -22 24 C-21.35933594 23.731875 -20.71867187 23.46375 -20.05859375 23.1875 C-9.87067783 18.57181231 -4.97190989 12.29279874 -1 2 C-0.67 1.34 -0.34 0.68 0 0 Z " fill="#F59395" transform="translate(143,141)"/>
<path d="M0 0 C3.96 0 7.92 0 12 0 C12.66 1.65 13.32 3.3 14 5 C11.91835982 5.36398622 9.83459438 5.71583287 7.75 6.0625 C6.00976562 6.35833984 6.00976562 6.35833984 4.234375 6.66015625 C1.37477376 6.9606216 -0.33325929 6.9439206 -3 6 C-2.01 4.02 -1.02 2.04 0 0 Z " fill="#F03A3D" transform="translate(462,38)"/>
<path d="M0 0 C2.125 0 2.125 0 5 1 C10.42268095 6.66916645 12.13899337 11.23893936 12.1875 19 C12.20167969 20.03125 12.21585937 21.0625 12.23046875 22.125 C12.00276947 24.96545203 11.46504061 26.59107948 10 29 C9.09751421 25.61567829 9.0327264 22.65122639 9.1875 19.1875 C9.22616272 13.99896245 8.16031702 10.15629571 5 6 C3.06490539 4.329211 1.26358667 3.23468364 -1 2 C-0.67 1.34 -0.34 0.68 0 0 Z " fill="#EC1C1F" transform="translate(473,43)"/>
<path d="M0 0 C12.87 0.495 12.87 0.495 26 1 C26 1.33 26 1.66 26 2 C18.08 2 10.16 2 2 2 C2 8.6 2 15.2 2 22 C1.34 22 0.68 22 0 22 C-2.28571429 4.57142857 -2.28571429 4.57142857 0 0 Z " fill="#F36266" transform="translate(286,123)"/>
<path d="M0 0 C0.33 0 0.66 0 1 0 C1.33 6.6 1.66 13.2 2 20 C3.32 20.33 4.64 20.66 6 21 C6 14.07 6 7.14 6 0 C6.66 0 7.32 0 8 0 C8.05789006 3.45826342 8.09355821 6.91640293 8.125 10.375 C8.14175781 11.35984375 8.15851563 12.3446875 8.17578125 13.359375 C8.18222656 14.30039063 8.18867188 15.24140625 8.1953125 16.2109375 C8.20578613 17.08024902 8.21625977 17.94956055 8.22705078 18.84521484 C8 21 8 21 6 23 C3.4375 23.1875 3.4375 23.1875 1 23 C0 22 0 22 -0.11352539 19.86694336 C-0.10828857 18.95050049 -0.10305176 18.03405762 -0.09765625 17.08984375 C-0.09443359 16.10048828 -0.09121094 15.11113281 -0.08789062 14.09179688 C-0.07951172 13.05087891 -0.07113281 12.00996094 -0.0625 10.9375 C-0.05798828 9.89271484 -0.05347656 8.84792969 -0.04882812 7.77148438 C-0.03699913 5.1809334 -0.02051689 2.59049441 0 0 Z " fill="#D0BABB" transform="translate(275,178)"/>
<path d="M0 0 C7.92 0 15.84 0 24 0 C23.67 0.99 23.34 1.98 23 3 C19.54168414 3.02894547 16.08339928 3.04678 12.625 3.0625 C11.14773438 3.07506836 11.14773438 3.07506836 9.640625 3.08789062 C8.22910156 3.09272461 8.22910156 3.09272461 6.7890625 3.09765625 C5.48509521 3.10551147 5.48509521 3.10551147 4.15478516 3.11352539 C2 3 2 3 0 2 C0 1.34 0 0.68 0 0 Z " fill="#F46E71" transform="translate(419,68)"/>
<path d="M0 0 C0.66 0.33 1.32 0.66 2 1 C2 1.99 2 2.98 2 4 C1.34 4 0.68 4 0 4 C-0.433125 5.0828125 -0.433125 5.0828125 -0.875 6.1875 C-1.24625 7.115625 -1.6175 8.04375 -2 9 C-2.33 9.9075 -2.66 10.815 -3 11.75 C-4 14 -4 14 -6 15 C-6.46898963 17.8159849 -6.46898963 17.8159849 -6.625 21.0625 C-6.69976562 22.16722656 -6.77453125 23.27195312 -6.8515625 24.41015625 C-6.90054687 25.26480469 -6.94953125 26.11945313 -7 27 C-7.33 27 -7.66 27 -8 27 C-8.46639771 17.05018211 -8.73525232 9.26139147 -1.75 1.5 C-1.1725 1.005 -0.595 0.51 0 0 Z " fill="#EF4043" transform="translate(459,42)"/>
<path d="M0 0 C1.60332791 -0.08121924 3.20784026 -0.13929134 4.8125 -0.1875 C6.15248047 -0.23970703 6.15248047 -0.23970703 7.51953125 -0.29296875 C10 0 10 0 11.78125 1.3125 C13.52649962 3.72899948 13.67582719 6.08244473 14 9 C10.85909063 10.8759207 8.92116258 11.18257272 5.3125 10.6875 C4.52488281 10.58824219 3.73726563 10.48898438 2.92578125 10.38671875 C1 10 1 10 0 9 C-0.07179964 7.48071962 -0.08392007 5.95832518 -0.0625 4.4375 C-0.05347656 3.61121094 -0.04445313 2.78492188 -0.03515625 1.93359375 C-0.02355469 1.29550781 -0.01195312 0.65742187 0 0 Z M1 1 C1 3.31 1 5.62 1 8 C2.27875 8.020625 3.5575 8.04125 4.875 8.0625 C5.59429687 8.07410156 6.31359375 8.08570313 7.0546875 8.09765625 C9.08185404 8.12649242 9.08185404 8.12649242 11 7 C11.042721 5.33388095 11.04063832 3.66617115 11 2 C9.99163938 0.76732652 9.99163938 0.76732652 7.93359375 0.90234375 C6.69802734 0.91974609 6.69802734 0.91974609 5.4375 0.9375 C4.19806641 0.95103516 4.19806641 0.95103516 2.93359375 0.96484375 C1.97646484 0.98224609 1.97646484 0.98224609 1 1 Z " fill="#F26568" transform="translate(461,52)"/>
<path d="M0 0 C1.35140557 2.70281114 0.62649417 4.07347107 0 7 C-0.14082902 8.83747541 -0.24439398 10.67807451 -0.31640625 12.51953125 C-0.35830078 13.54111328 -0.40019531 14.56269531 -0.44335938 15.61523438 C-0.50233398 17.19788086 -0.50233398 17.19788086 -0.5625 18.8125 C-0.60568359 19.88693359 -0.64886719 20.96136719 -0.69335938 22.06835938 C-0.79910983 24.71212082 -0.90120233 27.3559711 -1 30 C-4.93771488 25.04559607 -4.57512104 21.18441847 -4 15 C-1.75092937 1.75092937 -1.75092937 1.75092937 0 0 Z " fill="#F4777A" transform="translate(289,60)"/>
<path d="M0 0 C1.32 0.33 2.64 0.66 4 1 C-0.29 5.29 -4.58 9.58 -9 14 C-9.33 13.34 -9.66 12.68 -10 12 C-7.51965443 7.16985337 -4.5303856 3.02025707 0 0 Z " fill="#F15B5E" transform="translate(300,46)"/>
<path d="M0 0 C8.72634004 -0.6437464 13.73011836 1.12247107 20.875 5.9375 C23.18269987 8.17732634 24.06769172 9.94880927 25 13 C24.5875 12.61328125 24.175 12.2265625 23.75 11.828125 C16.46986287 5.26300134 9.65606733 2.50381376 0 1 C0 0.67 0 0.34 0 0 Z " fill="#F57D7F" transform="translate(113,41)"/>
<path d="M0 0 C0.33 0 0.66 0 1 0 C1.23268915 6.28260706 0.40454548 11.88019467 -1 18 C-1.66 18 -2.32 18 -3 18 C-3.33 18.66 -3.66 19.32 -4 20 C-3.71749338 17.41536498 -3.4243774 14.83268865 -3.125 12.25 C-3.04636719 11.52039063 -2.96773437 10.79078125 -2.88671875 10.0390625 C-2.44863824 6.33222743 -2.0013785 3.19547828 0 0 Z " fill="#F3696C" transform="translate(146,123)"/>
<path d="M0 0 C0.66 0.33 1.32 0.66 2 1 C0.35 7.6 -1.3 14.2 -3 21 C-3.66 21 -4.32 21 -5 21 C-5.33 18.69 -5.66 16.38 -6 14 C-5.01 14 -4.02 14 -3 14 C-2.87625 12.80375 -2.7525 11.6075 -2.625 10.375 C-2.17674946 6.72403187 -1.29553163 3.45475101 0 0 Z " fill="#D2B4B4" transform="translate(194,177)"/>
<path d="M0 0 C0.33 0 0.66 0 1 0 C1.09377123 7.41834582 1.17402193 14.66236293 0 22 C-3.58965226 16.61552161 -2.21771861 10.56088502 -1 4.4375 C-0.67537487 2.95639782 -0.34522127 1.47643741 0 0 Z " fill="#D8B4B4" transform="translate(157,185)"/>
<path d="M0 0 C1.48046875 1.12890625 1.48046875 1.12890625 3 3 C3.36328125 5.77734375 3.36328125 5.77734375 3.3125 8.9375 C3.30863281 9.97777344 3.30476563 11.01804687 3.30078125 12.08984375 C3.00916371 14.91133812 2.4531841 16.5973251 1 19 C-0.00926479 14.84373632 -0.10239579 10.95634906 -0.0625 6.6875 C-0.05347656 5.43324219 -0.04445313 4.17898437 -0.03515625 2.88671875 C-0.01775391 1.45779297 -0.01775391 1.45779297 0 0 Z " fill="#EB1114" transform="translate(482,53)"/>
<path d="M0 0 C5.61034289 3.91419272 9.01079793 8.38172022 11 15 C11.1047254 18.77011432 10.7102514 22.30106696 10 26 C9.67 26 9.34 26 9 26 C8.92523438 25.01 8.85046875 24.02 8.7734375 23 C8.10342675 15.81806661 7.42062238 10.03118908 2.33984375 4.515625 C1 3 1 3 0 0 Z " fill="#F58A8D" transform="translate(476,41)"/>
<path d="M0 0 C0 0.99 0 1.98 0 3 C-1.32 2.67 -2.64 2.34 -4 2 C-6.47717167 5.71575751 -6.30345742 7.59986738 -6 12 C-5.1025173 14.83378132 -5.1025173 14.83378132 -4 17 C-4.99 16.67 -5.98 16.34 -7 16 C-8.29004296 13.41991408 -8.20410224 11.44258426 -8.25 8.5625 C-8.27578125 7.59441406 -8.3015625 6.62632812 -8.328125 5.62890625 C-8 3 -8 3 -6.65234375 1.1640625 C-4.38960083 -0.43002116 -2.70066902 -0.21897316 0 0 Z " fill="#D3B6B7" transform="translate(254,184)"/>
<path d="M0 0 C2.56616632 3.84924948 2.55097676 6.4349304 3 11 C2.34 11 1.68 11 1 11 C1 14.3 1 17.6 1 21 C0.67 21 0.34 21 0 21 C0 14.07 0 7.14 0 0 Z " fill="#CE9E9E" transform="translate(143,186)"/>
<path d="M0 0 C2.31 0 4.62 0 7 0 C6.67 1.98 6.34 3.96 6 6 C4.35 6 2.7 6 1 6 C0.67 4.02 0.34 2.04 0 0 Z " fill="#CF5E60" transform="translate(272,170)"/>
<path d="M0 0 C0.99 0.66 1.98 1.32 3 2 C1.50163895 5.11198065 -0.19933758 8.0534615 -2 11 C-2.33 10.34 -2.66 9.68 -3 9 C-3.66 8.67 -4.32 8.34 -5 8 C-4.67 7.34 -4.34 6.68 -4 6 C-3.34 6 -2.68 6 -2 6 C-1.34 4.02 -0.68 2.04 0 0 Z " fill="#ED272A" transform="translate(481,70)"/>
<path d="M0 0 C0.66 0 1.32 0 2 0 C1.125 6.875 1.125 6.875 0 8 C-0.23427778 10.01594582 -0.41336124 12.038474 -0.5625 14.0625 C-0.64628906 15.16722656 -0.73007812 16.27195312 -0.81640625 17.41015625 C-0.87699219 18.26480469 -0.93757813 19.11945313 -1 20 C-1.33 20 -1.66 20 -2 20 C-2.05425226 17.60385874 -2.09379027 15.20896147 -2.125 12.8125 C-2.14175781 12.13896484 -2.15851563 11.46542969 -2.17578125 10.77148438 C-2.21538674 6.71192193 -1.80020002 3.65001185 0 0 Z " fill="#EB1215" transform="translate(453,49)"/>
<path d="M0 0 C1.65 0 3.3 0 5 0 C5 1.98 5 3.96 5 6 C3.35 6 1.7 6 0 6 C0 4.02 0 2.04 0 0 Z " fill="#CC1E21" transform="translate(395,170)"/>
<path d="M0 0 C0.66 0.33 1.32 0.66 2 1 C2.4140625 3.06640625 2.4140625 3.06640625 2.625 5.5625 C2.69976562 6.38878906 2.77453125 7.21507812 2.8515625 8.06640625 C2.90054688 8.70449219 2.94953125 9.34257812 3 10 C1.35 10 -0.3 10 -2 10 C-1.34 6.7 -0.68 3.4 0 0 Z M0 7 C1 9 1 9 1 9 Z " fill="#D0AEAE" transform="translate(96,185)"/>
<path d="M0 0 C0.66 0.33 1.32 0.66 2 1 C2.4140625 3.06640625 2.4140625 3.06640625 2.625 5.5625 C2.69976562 6.38878906 2.77453125 7.21507812 2.8515625 8.06640625 C2.90054688 8.70449219 2.94953125 9.34257812 3 10 C1.35 10 -0.3 10 -2 10 C-1.34 6.7 -0.68 3.4 0 0 Z M0 7 C1 9 1 9 1 9 Z " fill="#D0AEAE" transform="translate(48,185)"/>
<path d="M0 0 C3.96 0 7.92 0 12 0 C12.33 0.99 12.66 1.98 13 3 C8.71 2.67 4.42 2.34 0 2 C0 1.34 0 0.68 0 0 Z " fill="#F69A9C" transform="translate(462,38)"/>
<path d="M0 0 C0 3 0 3 -1.875 5.125 C-5.33829879 8.18085187 -7.45628869 8.09877633 -12 8 C-8.9540687 5.96937913 -5.85687334 4.04352805 -2.7421875 2.12109375 C-1.04594593 1.1166082 -1.04594593 1.1166082 0 0 Z " fill="#F4787B" transform="translate(133,158)"/>
<path d="M0 0 C0.99 0.33 1.98 0.66 3 1 C3 1.66 3 2.32 3 3 C3.66 3 4.32 3 5 3 C5 3.66 5 4.32 5 5 C5.99 5.33 6.98 5.66 8 6 C7.67 6.66 7.34 7.32 7 8 C4.625 7.375 4.625 7.375 2 6 C0.6875 2.875 0.6875 2.875 0 0 Z " fill="#ED2125" transform="translate(456,76)"/>
<path d="M0 0 C5.4389165 -0.21755666 9.87080814 -0.10428384 15 2 C15 2.33 15 2.66 15 3 C9.5814234 3.22577402 5.22512279 2.46670113 0 1 C0 0.67 0 0.34 0 0 Z " fill="#F3696D" transform="translate(354,69)"/>
<path d="M0 0 C0.66 0.66 1.32 1.32 2 2 C-1.7367843 4.49118953 -3.74451819 4.2065226 -8.1875 4.125 C-9.45980469 4.10695312 -10.73210937 4.08890625 -12.04296875 4.0703125 C-13.50669922 4.03550781 -13.50669922 4.03550781 -15 4 C-15 3.67 -15 3.34 -15 3 C-14.25234375 2.95101562 -13.5046875 2.90203125 -12.734375 2.8515625 C-11.74953125 2.77679688 -10.7646875 2.70203125 -9.75 2.625 C-8.28820312 2.52058594 -8.28820312 2.52058594 -6.796875 2.4140625 C-4.10366811 2.01534751 -2.33036721 1.36492937 0 0 Z " fill="#F57174" transform="translate(368,136)"/>
<path d="M0 0 C2 2 2 2 2 5 C2.66 5 3.32 5 4 5 C4 5.66 4 6.32 4 7 C3.34 7 2.68 7 2 7 C1.67 7.99 1.34 8.98 1 10 C-1 9 -1 9 -2 6 C-1.01 6 -0.02 6 1 6 C0.67 4.02 0.34 2.04 0 0 Z " fill="#EF8688" transform="translate(475,69)"/>
<path d="M0 0 C0.33 0 0.66 0 1 0 C1.37952295 6.19887485 0.8352113 10.4477112 -2 16 C-3.3721192 12.29527816 -2.4863484 10.55072117 -1 7 C-0.6186926 4.67402489 -0.27539746 2.34087842 0 0 Z " fill="#F57E81" transform="translate(398,135)"/>
<path d="M0 0 C0 0.66 0 1.32 0 2 C-6.28571429 4.42857143 -6.28571429 4.42857143 -10 3 C-6.68152292 -0.06320961 -4.44849969 -0.3033068 0 0 Z " fill="#EB1215" transform="translate(469,41)"/>
<path d="M0 0 C2.64465038 3.1254959 3.84414715 6.08788267 5 10 C4.01 10.495 4.01 10.495 3 11 C2.731875 9.865625 2.46375 8.73125 2.1875 7.5625 C1.795625 6.386875 1.40375 5.21125 1 4 C0.01 3.67 -0.98 3.34 -2 3 C-1.34 2.01 -0.68 1.02 0 0 Z " fill="#D3B3B4" transform="translate(417,195)"/>
<path d="M0 0 C4.30840713 1.07710178 7.63576723 2.03947516 11 5 C10.67 5.99 10.34 6.98 10 8 C9.0925 7.195625 8.185 6.39125 7.25 5.5625 C4.89690092 3.58857329 3.13061954 2.36122533 0 2 C0 1.34 0 0.68 0 0 Z " fill="#F5878A" transform="translate(375,42)"/>
<path d="M0 0 C-1 3 -1 3 -3 4 C-4.99960012 4.039992 -7.00047242 4.04346799 -9 4 C-6.19632015 0.92930303 -4.26207314 0 0 0 Z " fill="#F47476" transform="translate(311,42)"/>
<path d="M0 0 C1.32 0 2.64 0 4 0 C3.67 2.31 3.34 4.62 3 7 C2.34 7 1.68 7 1 7 C0.67 4.69 0.34 2.38 0 0 Z " fill="#D1A7A7" transform="translate(303,191)"/>
<path d="M0 0 C1.32 0 2.64 0 4 0 C3.67 2.31 3.34 4.62 3 7 C2.34 7 1.68 7 1 7 C0.67 4.69 0.34 2.38 0 0 Z " fill="#D1A7A7" transform="translate(188,191)"/>
<path d="M0 0 C1.32 0 2.64 0 4 0 C4 1.65 4 3.3 4 5 C2.68 5 1.36 5 0 5 C0 3.35 0 1.7 0 0 Z " fill="#CC2E31" transform="translate(280,171)"/>
<path d="M0 0 C1.98 0 3.96 0 6 0 C6 1.32 6 2.64 6 4 C4.02 4 2.04 4 0 4 C0 2.68 0 1.36 0 0 Z M1 1 C1 1.66 1 2.32 1 3 C2.32 2.67 3.64 2.34 5 2 C3.68 1.67 2.36 1.34 1 1 Z " fill="#D0BFBF" transform="translate(119,185)"/>
<path d="M0 0 C2.97 0 5.94 0 9 0 C9 0.99 9 1.98 9 3 C8.34 3 7.68 3 7 3 C6.67 3.99 6.34 4.98 6 6 C6 4.35 6 2.7 6 1 C4.02 1 2.04 1 0 1 C0 0.67 0 0.34 0 0 Z " fill="#D4C5C6" transform="translate(311,177)"/>
<path d="M0 0 C2.97 0 5.94 0 9 0 C9 0.99 9 1.98 9 3 C8.34 3 7.68 3 7 3 C6.67 3.99 6.34 4.98 6 6 C6 4.35 6 2.7 6 1 C4.02 1 2.04 1 0 1 C0 0.67 0 0.34 0 0 Z " fill="#D4C5C6" transform="translate(196,177)"/>
<path d="M0 0 C0 0.66 0 1.32 0 2 C-3.47325181 3.1577506 -6.36067448 3.06866652 -10 3 C-4 0 -4 0 0 0 Z " fill="#F57679" transform="translate(382,164)"/>
</svg>
