<?xml version="1.0" encoding="UTF-8"?>
<svg version="1.1" xmlns="http://www.w3.org/2000/svg" width="8798" height="3525">
<path d="M0 0 C0.74344666 0.00060425 1.48689331 0.0012085 2.25286865 0.00183105 C75.23773907 0.16191556 143.30719271 26.49516485 197.625 75.1875 C198.38321045 75.86111572 198.38321045 75.86111572 199.15673828 76.54833984 C210.30059754 86.46887191 221.24060238 96.77647066 230.5 108.50390625 C232.72530004 111.31416568 235.04411129 114.02689444 237.375 116.75 C248.9200956 130.63628372 258.67080709 145.52800553 267.625 161.1875 C268.11323242 162.03231934 268.60146484 162.87713867 269.10449219 163.74755859 C301.81347489 220.63790195 321.55523929 287.8482935 321.828125 353.6171875 C321.83513931 354.75818909 321.84215363 355.89919067 321.84938049 357.07476807 C321.86678258 360.73738606 321.87323309 364.39984218 321.875 368.0625 C321.87601212 369.94264801 321.87601212 369.94264801 321.87704468 371.86077881 C321.86081991 390.83344438 321.34182907 409.385532 318.625 428.1875 C318.46402832 429.37102051 318.30305664 430.55454102 318.13720703 431.77392578 C312.65978507 471.29449866 301.6616545 510.23847754 284.88427734 546.46191406 C283.59430321 549.25394028 282.3381278 552.05978056 281.08203125 554.8671875 C271.48023396 575.97931401 259.12787273 595.12918503 244.625 613.1875 C243.55378906 614.55841797 243.55378906 614.55841797 242.4609375 615.95703125 C240.54705385 618.39467318 238.59450191 620.79461188 236.625 623.1875 C235.83996094 624.15816406 235.05492188 625.12882812 234.24609375 626.12890625 C227.77251234 633.99273918 220.74221305 641.28358302 213.5625 648.5 C212.65290527 649.4187793 211.74331055 650.33755859 210.80615234 651.28417969 C205.46404853 656.6022762 199.94929712 661.52221517 194.06518555 666.2331543 C192.11883203 667.79198971 190.21564693 669.37379826 188.33984375 671.015625 C173.29576667 684.13422949 156.79591627 695.05997643 139.625 705.1875 C138.96467773 705.57776367 138.30435547 705.96802734 137.62402344 706.37011719 C76.59021093 741.91584267 -1.70469275 746.70280412 -69.18188477 729.24584961 C-100.99597019 720.56458145 -132.20267697 705.86088222 -158.57836914 686.04052734 C-159.29150772 685.50487152 -160.0046463 684.9692157 -160.73939514 684.41732788 C-161.27914474 684.01148468 -161.81889435 683.60564148 -162.375 683.1875 C-162.37646656 684.39234228 -162.37793312 685.59718456 -162.37944412 686.83853722 C-162.41522834 715.50759305 -162.47158756 744.17656033 -162.55292095 772.84552213 C-162.56293713 776.3823659 -162.57278148 779.91921014 -162.58251953 783.45605469 C-162.58543159 784.51213586 -162.58543159 784.51213586 -162.58840248 785.589552 C-162.6193337 796.95524046 -162.63637823 808.32090879 -162.64819422 819.68663137 C-162.660652 831.36884352 -162.68825691 843.05095082 -162.72961307 854.73309672 C-162.75216725 861.28640855 -162.7679143 867.83957118 -162.76688385 874.39292526 C-162.76613367 880.57356149 -162.78422769 886.75386863 -162.81616783 892.93441963 C-162.82461785 895.19087407 -162.82645049 897.44736562 -162.82080269 899.70382881 C-162.76000227 927.75289475 -169.32711333 952.77228516 -188.375 974.1875 C-189.03886719 974.94546875 -189.70273437 975.7034375 -190.38671875 976.484375 C-206.13630625 993.36933017 -232.2760982 1004.03659984 -255.18896484 1005.34863281 C-285.93018123 1005.79423278 -312.06585982 1000.26527919 -335.375 979.1875 C-336.30183594 978.35476563 -337.22867188 977.52203125 -338.18359375 976.6640625 C-357.57983779 958.31699116 -366.55956554 932.34857954 -367.48739709 905.99504486 C-367.66763565 897.12802036 -367.65205363 888.25989898 -367.63813647 879.39149971 C-367.63393621 875.29799122 -367.64138495 871.20450024 -367.64728898 867.11099613 C-367.65602401 859.948033 -367.65737272 852.78509847 -367.65378571 845.62213135 C-367.64846567 834.97022446 -367.65458704 824.31834513 -367.66286864 813.66644123 C-367.67809175 793.53358627 -367.67981548 773.4007439 -367.67734561 753.26788439 C-367.67551155 737.72017206 -367.67727492 722.17246386 -367.68157005 706.62475204 C-367.68217246 704.38947513 -367.68277366 702.15419822 -367.68337366 699.91892131 C-367.68428093 696.55041309 -367.6851896 693.18190486 -367.68610601 689.81339663 C-367.6945329 658.50388901 -367.69887301 627.19438294 -367.69469929 595.88487434 C-367.69454291 594.70509632 -367.69438654 593.5253183 -367.69422542 592.30978943 C-367.69341966 586.33046656 -367.69257389 580.35114369 -367.69171212 574.37182082 C-367.69154103 573.18434808 -367.69136994 571.99687534 -367.69119367 570.77341857 C-367.69084701 568.37206245 -367.69049848 565.97070634 -367.69014808 563.56935022 C-367.68479038 526.20068378 -367.69272379 488.83204094 -367.71118164 451.46337891 C-367.73190398 409.46116009 -367.74262399 367.45895589 -367.73860615 325.45673168 C-367.73821082 320.97711428 -367.73784927 316.49749689 -367.73750877 312.01787949 C-367.73741804 310.91491672 -367.73732731 309.81195396 -367.73723383 308.67556808 C-367.73606861 292.03648427 -367.74271037 275.39741523 -367.75332069 258.75833511 C-367.76537671 239.83303962 -367.76692692 220.90777664 -367.75453053 201.98248066 C-367.74790696 191.39712842 -367.74952145 180.81185396 -367.76311904 170.22650796 C-367.77137669 163.14819958 -367.76864892 156.06994933 -367.75714377 148.99164565 C-367.75090047 144.96384254 -367.74925242 140.93619097 -367.76100711 136.90839674 C-367.86454021 98.76168372 -361.1752157 68.36988857 -334.5625 39.9375 C-316.24912852 22.55468602 -291.30286723 12.5657307 -266.05078125 12.9765625 C-238.64098809 13.92475522 -215.52707676 22.55125838 -195.375 41.1875 C-194.23224609 42.22390625 -194.23224609 42.22390625 -193.06640625 43.28125 C-183.07988948 52.76542689 -175.84047072 64.1414973 -169.375 76.1875 C-168.93671875 75.61644531 -168.4984375 75.04539062 -168.046875 74.45703125 C-160.07953931 64.27114884 -151.50050221 54.29157709 -141.375 46.1875 C-140.46878906 45.44371094 -139.56257813 44.69992187 -138.62890625 43.93359375 C-99.16741071 12.13550674 -49.93915333 -0.07553187 0 0 Z M-103.375 225.1875 C-104.19742188 225.88746094 -105.01984375 226.58742188 -105.8671875 227.30859375 C-139.30315911 256.5260082 -158.47534602 300.32905388 -162.375 344.1875 C-162.48457031 345.36570312 -162.59414063 346.54390625 -162.70703125 347.7578125 C-165.42652872 381.91470071 -162.91839319 419.4929596 -148.40283203 450.93310547 C-147.35114294 453.23982686 -146.3708163 455.56738882 -145.40234375 457.91015625 C-134.36592833 484.28713418 -115.86453976 506.31318562 -91.375 521.1875 C-90.75657227 521.56487305 -90.13814453 521.94224609 -89.50097656 522.33105469 C-74.92859958 531.04659116 -59.08875464 535.69900764 -42.375 538.1875 C-41.12976562 538.38472656 -41.12976562 538.38472656 -39.859375 538.5859375 C-6.42438965 542.9114426 29.80063886 534.86906528 56.6875 514.1875 C58.68915087 512.54790484 60.66900313 510.8812989 62.625 509.1875 C63.38731934 508.5382959 63.38731934 508.5382959 64.16503906 507.87597656 C98.82239366 478.20373238 113.57321376 433.01584607 117.39794922 388.67724609 C119.66121099 353.89115605 116.37972923 318.51070984 102.625 286.1875 C102.18051514 285.11193848 102.18051514 285.11193848 101.72705078 284.01464844 C93.85366966 265.01894302 83.63266024 249.28239741 69.625 234.1875 C69.09648437 233.59324219 68.56796875 232.99898437 68.0234375 232.38671875 C46.97023939 209.76802642 13.96091685 197.54140424 -16.375 196.1875 C-17.20644531 196.14625 -18.03789062 196.105 -18.89453125 196.0625 C-49.58910906 195.30810177 -80.01943215 205.09870771 -103.375 225.1875 Z " fill="#2384C6" transform="translate(6369.375,1354.8125)"/>
<path d="M0 0 C26.1178631 -0.71190087 51.42143331 7.21693558 70.73046875 25.125 C71.56835938 25.88296875 72.40625 26.6409375 73.26953125 27.421875 C94.02062524 47.08080614 104.23545467 73.88302972 105.73046875 102.125 C105.93642727 109.92052837 105.9157018 117.72086916 105.93579102 125.51855469 C105.94538221 127.88482835 105.955393 130.25110034 105.96578979 132.61737061 C105.99271046 139.0131395 106.01378915 145.40891567 106.03379178 151.80470943 C106.05350537 157.82004172 106.07762603 163.83535503 106.10171401 169.85067096 C106.14924941 181.75688031 106.19255116 193.66310108 106.2331543 205.56933594 C106.27258107 217.12793871 106.31402423 228.68653138 106.3581543 240.24511719 C106.36087857 240.95884344 106.36360284 241.6725697 106.36640967 242.40792403 C106.38009033 245.98885364 106.39381037 249.5697831 106.40754998 253.15071249 C106.52129372 282.80878701 106.62808024 312.46688405 106.73046875 342.125 C107.66271271 341.64111313 108.59495667 341.15722626 109.55545044 340.65867615 C113.07623619 338.83218002 116.59901218 337.0095503 120.12234497 335.18797302 C121.63544797 334.4050401 123.14803794 333.62111474 124.6600647 332.83610535 C137.78754004 326.0220199 151.01526234 319.68898268 164.73046875 314.125 C165.79894043 313.69106934 166.86741211 313.25713867 167.96826172 312.81005859 C211.9540744 295.19891789 258.25401996 289.02760646 305.41796875 291.875 C306.12912842 291.91790161 306.84028809 291.96080322 307.57299805 292.00500488 C369.7221457 295.87333819 429.17429984 315.56883109 473.73046875 360.125 C474.47425781 360.82238281 475.21804688 361.51976562 475.984375 362.23828125 C516.49749889 400.83200164 533.84423403 459.72776083 536.73046875 514.125 C536.86543449 519.83106989 536.87024837 525.53418529 536.86418152 531.24157715 C536.86605376 532.93072609 536.86835609 534.61987459 536.87104684 536.30902243 C536.87711987 540.91361163 536.87703661 545.51818255 536.87585247 550.12277484 C536.87564732 555.10307767 536.88117787 560.0833748 536.88591003 565.06367493 C536.8941915 574.8054751 536.8969637 584.54726923 536.89752241 594.28907263 C536.89799859 602.20957692 536.9000584 610.13007923 536.90322304 618.05058289 C536.91202135 640.52999965 536.91664349 663.00941165 536.91589256 685.48883015 C536.91583263 687.30396128 536.91583263 687.30396128 536.91577148 689.15576172 C536.91571016 690.97311983 536.91571016 690.97311983 536.9156476 692.82719225 C536.91524096 712.47185968 536.92481732 732.11650796 536.93890985 751.76116985 C536.95328159 771.95500363 536.96017965 792.14882808 536.95931607 812.3426671 C536.95898447 823.67097312 536.96171579 834.99925903 536.97249413 846.32756042 C536.98160943 855.96925257 536.98376575 865.61091549 536.9769847 875.25261009 C536.97372524 880.16775899 536.97364217 885.08285185 536.98233795 889.99799538 C536.99022878 894.50460018 536.98874529 899.01110474 536.98005382 903.51770717 C536.97852455 905.14067689 536.98031316 906.7636542 536.9859139 908.38661498 C537.02645797 920.97750422 536.27847628 933.36761636 532.60546875 945.5 C532.39374023 946.20278076 532.18201172 946.90556152 531.96386719 947.62963867 C527.86765417 960.53040519 521.36730624 971.71917169 512.73046875 982.125 C512.03308594 982.98609375 511.33570312 983.8471875 510.6171875 984.734375 C494.642808 1003.54150552 472.00537057 1014.21222675 447.73046875 1017.125 C442.85184822 1017.43489485 437.99318111 1017.50719057 433.10546875 1017.5 C432.4488324 1017.49912384 431.79219604 1017.49824768 431.11566162 1017.49734497 C403.71097695 1017.37713804 380.64997741 1007.97983393 361.10595703 988.53515625 C341.0666461 967.99077216 332.5774182 941.33513365 332.58570862 913.11062622 C332.58257086 911.68524352 332.57899513 910.25986173 332.57502121 908.83448112 C332.56536337 904.93095942 332.56177929 901.02745234 332.55917823 897.12392044 C332.55527177 892.90826474 332.54563481 888.69262181 332.53662109 884.47697449 C332.52170163 877.17343533 332.51014802 869.86989717 332.50067329 862.56634903 C332.48677157 851.98710149 332.46557847 841.40787762 332.44224476 830.82864712 C332.4043434 813.63772347 332.36937876 796.44679552 332.33764648 779.25585938 C332.33574599 778.22736165 332.3338455 777.19886392 332.33188742 776.1391996 C332.30508677 761.56124438 332.28120326 746.98328583 332.25850242 732.40532373 C332.25690512 731.37985791 332.25530781 730.3543921 332.25366211 729.29785156 C332.25127191 727.76153893 332.25127191 727.76153893 332.24883343 726.19418968 C332.22200784 709.07866425 332.1875835 691.96316398 332.14700836 674.84766567 C332.12231681 664.30462637 332.10394368 653.76161405 332.09385275 643.21855049 C332.08642618 635.98268077 332.07184666 628.7468473 332.05178852 621.51100166 C332.0404692 617.3447541 332.03225836 613.17856481 332.03279686 609.01230049 C332.03284329 570.49561281 328.98088193 533.46790521 302.73046875 503.125 C301.58578125 501.6090625 301.58578125 501.6090625 300.41796875 500.0625 C283.42414348 481.48785377 256.86706244 469.531243 231.73046875 468.125 C199.51787515 466.80911741 171.80831188 471.62323919 146.73046875 493.125 C146.11945312 493.60324219 145.5084375 494.08148437 144.87890625 494.57421875 C122.71796528 512.23213747 110.26350835 543.31246581 106.94230068 570.60371602 C106.48119815 576.09188979 106.58408807 581.60449544 106.58570862 587.10813904 C106.58257085 588.53010963 106.57899512 589.95207931 106.57502121 591.37404782 C106.56536364 595.26809856 106.56177934 599.16213464 106.55917823 603.05619562 C106.55527173 607.26160716 106.54563481 611.46700591 106.53662109 615.67240906 C106.52170204 622.95794348 106.5101483 630.24347688 106.50067329 637.52902031 C106.48677242 648.08114725 106.4655796 658.63325047 106.44224476 669.18536032 C106.40434444 686.33084333 106.36937904 703.47633064 106.33764648 720.62182617 C106.33479575 722.1604803 106.33479575 722.1604803 106.33188742 723.73021836 C106.30508286 738.27171237 106.28120022 752.81320972 106.25850242 767.35471065 C106.25690512 768.37775135 106.25530781 769.40079205 106.25366211 770.45483398 C106.25206864 771.47662081 106.25047518 772.49840764 106.24883343 773.55115771 C106.22201339 790.62260789 106.18759168 807.69403282 106.14700836 824.76545578 C106.12230963 835.28239494 106.10394047 845.79930703 106.09385275 856.31627054 C106.08642954 863.53297719 106.07185499 870.74964745 106.05178852 877.96632992 C106.04046264 882.12232731 106.03225879 886.27826619 106.03279686 890.4342804 C106.03282449 924.70764203 104.06948497 956.82946484 80.73046875 984.125 C80.12589844 984.87523437 79.52132812 985.62546875 78.8984375 986.3984375 C63.85210738 1004.45403364 41.73607952 1014.25656149 18.73046875 1017.125 C2.30439088 1017.99166956 -14.51689482 1018.36383551 -30.26953125 1013.125 C-31.24116211 1012.81151611 -31.24116211 1012.81151611 -32.23242188 1012.49169922 C-57.04341733 1004.23579719 -76.0458863 985.84034303 -87.9609375 962.86328125 C-97.42600744 943.19775999 -99.43323977 923.45485194 -99.3981657 901.89435291 C-99.39951551 900.49984065 -99.40130118 899.10532876 -99.40347794 897.71081755 C-99.40817369 893.89937997 -99.40671748 890.0879665 -99.40420017 886.2765278 C-99.40255896 882.12200565 -99.40671465 877.96748849 -99.41010934 873.81296796 C-99.41525165 866.53822458 -99.41668257 859.26348785 -99.41565323 851.98874283 C-99.41412625 841.17057013 -99.41829458 830.35240477 -99.42352785 819.5342335 C-99.43319285 799.08730632 -99.43601177 778.64038165 -99.43658491 758.19345246 C-99.43704465 742.40253443 -99.43910399 726.61161739 -99.44228554 710.82069969 C-99.44318309 706.27351846 -99.44407291 701.72633723 -99.44496042 697.17915601 C-99.44518146 696.04868121 -99.44540251 694.91820642 -99.44563026 693.75347481 C-99.4517834 661.96063375 -99.45573093 630.16779304 -99.45528698 598.37495136 C-99.45526361 596.57739578 -99.45526361 596.57739578 -99.45523977 594.74352593 C-99.45515667 588.66983199 -99.45505762 582.59613805 -99.45495506 576.52244411 C-99.45493512 575.31620907 -99.45491517 574.10997403 -99.45489462 572.86718641 C-99.45485419 570.42788622 -99.45481239 567.98858603 -99.45476923 565.54928584 C-99.45415647 527.59706238 -99.46166371 489.64484786 -99.4753418 451.69262695 C-99.49070644 409.04329637 -99.4993078 366.39397167 -99.49837857 323.74463814 C-99.49830395 319.19588514 -99.49825524 314.64713214 -99.49822426 310.09837914 C-99.4982126 308.97837906 -99.49820095 307.85837899 -99.49818894 306.70443953 C-99.49815819 288.69132895 -99.50454033 270.67822613 -99.51315652 252.66511786 C-99.52163838 234.55823601 -99.52261876 216.4513655 -99.5160472 198.34448276 C-99.51235523 187.59252729 -99.51417341 176.84060633 -99.52398954 166.08865453 C-99.52999777 158.89918885 -99.5286847 151.7097481 -99.52151904 144.52028355 C-99.5176447 140.42896222 -99.51684114 136.33770755 -99.5249764 132.24639098 C-99.58997054 97.19240611 -97.16833222 63.98156419 -73.26953125 36.125 C-72.56957031 35.30386719 -71.86960937 34.48273438 -71.1484375 33.63671875 C-53.62378124 13.62155675 -31.64346229 2.11325787 -4.8203125 0.25 C-3.21331053 0.17124952 -1.60649555 0.08848168 0 0 Z " fill="#2384C6" transform="translate(3204.26953125,1060.875)"/>
<path d="M0 0 C0.71462402 0.01401855 1.42924805 0.02803711 2.16552734 0.04248047 C70.52438613 1.38665426 128.27699437 25.38404831 176 74 C177.01963306 75.0220322 178.0402439 76.04309141 179.0625 77.0625 C179.701875 77.701875 180.34125 78.34125 181 79 C181.309375 77.80375 181.61875 76.6075 181.9375 75.375 C185.7356576 64.0518541 193.80909162 54.44270846 202 46 C202.59941406 45.32710937 203.19882812 44.65421875 203.81640625 43.9609375 C219.2117086 27.26883863 243.79197987 17.12634866 266.23388672 15.87548828 C297.14721663 14.83010998 323.90488542 23.94636389 346.72192383 45.26855469 C367.42324786 65.33815594 375.63427393 93.73726402 376.34292688 121.93914191 C376.40386259 126.63477885 376.39781331 131.32890559 376.38095093 136.02481079 C376.38441708 138.161918 376.38918801 140.29902341 376.39513266 142.43612516 C376.40754057 148.24666056 376.40151931 154.05704624 376.39217401 159.86758184 C376.38534166 166.15803332 376.39588529 172.44846036 376.40411377 178.73890686 C376.41664214 190.32799836 376.4156143 201.91702989 376.40737936 213.50612281 C376.39980846 224.21431615 376.39787385 234.92249225 376.4014473 245.63068771 C376.40179103 246.69949829 376.40179103 246.69949829 376.40214171 247.78990099 C376.40307584 250.68290158 376.40403106 253.57590215 376.405021 256.46890272 C376.41418059 283.56032922 376.40590494 310.65172576 376.38973031 337.74314762 C376.37549235 361.77344258 376.37677197 385.80368983 376.39111328 409.83398438 C376.4072016 436.88144962 376.41353385 463.92888845 376.40427649 490.97635782 C376.40331445 493.86321981 376.40237592 496.75008181 376.4014473 499.63694382 C376.40109145 500.7030407 376.40109145 500.7030407 376.40072841 501.79067489 C376.39732637 512.48935965 376.40128733 523.18802521 376.40888596 533.88670731 C376.4174884 546.05884063 376.41497988 558.23090339 376.39904372 570.40303303 C376.39118763 576.60693157 376.3880239 582.81073357 376.39799118 589.01463127 C376.4069937 594.7042885 376.40191446 600.39376059 376.38605852 606.08340125 C376.38273415 608.13087547 376.38435127 610.17836565 376.39168589 612.22582944 C376.50457233 646.38427001 367.9768952 677.1437803 344 702.375 C327.80903674 717.73071515 303.66385209 727.60559441 281.375 728.25 C247.36863599 727.32797737 220.60610337 715.53588425 197 691 C189.83969169 683.04982555 184.05592663 674.42162437 179 665 C178.48953125 665.65484375 177.9790625 666.3096875 177.453125 666.984375 C144.04435567 708.92304288 94.23388898 732.40732078 41.6875 739.1875 C39.12670482 739.47400481 36.56419568 739.74572172 34 740 C32.90945313 740.11214844 31.81890625 740.22429688 30.6953125 740.33984375 C-30.4212734 745.49170376 -92.88628386 732.78788946 -145 700 C-145.63067383 699.60345215 -146.26134766 699.2069043 -146.91113281 698.79833984 C-161.17884371 689.73541272 -174.62067509 679.50818723 -187 668 C-188.26753302 666.91280705 -189.53830631 665.82937895 -190.8125 664.75 C-199.47661583 657.19531363 -207.67344578 648.85479252 -215 640 C-215.43715332 639.48195801 -215.87430664 638.96391602 -216.32470703 638.43017578 C-268.38686526 576.65429245 -301.81844012 497.0252951 -312 417 C-312.16338867 415.74533936 -312.16338867 415.74533936 -312.33007812 414.46533203 C-312.98781841 409.31820403 -313.53559283 404.16795339 -314 399 C-314.11214844 397.79859375 -314.22429687 396.5971875 -314.33984375 395.359375 C-315.40821977 381.60220433 -315.2525303 367.78594253 -315 354 C-314.98694824 352.95602051 -314.97389648 351.91204102 -314.96044922 350.83642578 C-314.49856892 327.07870056 -308.67183108 303.85732755 -303.60272217 280.75012207 C-303.05664287 278.25845208 -302.51574764 275.76573526 -301.97705078 273.27246094 C-296.09887714 246.16706734 -288.06369757 220.44568304 -277 195 C-276.62262695 194.12794922 -276.24525391 193.25589844 -275.85644531 192.35742188 C-256.3965069 147.95386617 -223.9614099 103.15368819 -185.6171875 73.05859375 C-182.80042107 70.84301776 -180.09504877 68.52054996 -177.375 66.1875 C-149.96425673 43.38626555 -117.76740635 25.2895287 -84 14 C-82.92540527 13.64035156 -81.85081055 13.28070312 -80.74365234 12.91015625 C-54.343891 4.19680087 -27.94842081 -1.00861588 0 0 Z M-65.23779297 242.03955078 C-78.71685941 257.03496551 -90.02455848 275.26771336 -96.19580078 294.50439453 C-96.79934766 296.37733205 -97.42047665 298.24461872 -98.05029297 300.10888672 C-113.79417627 346.74642781 -115.83758944 396.18947272 -99 443 C-98.57203125 444.20011719 -98.1440625 445.40023437 -97.703125 446.63671875 C-84.42410061 481.73661188 -59.74704625 514.74675097 -25.24560547 531.00683594 C8.31898271 545.85144832 48.84373396 546.09551384 83 533 C88.5216608 530.67837896 93.79385383 527.95500025 99 525 C99.98226562 524.44570312 100.96453125 523.89140625 101.9765625 523.3203125 C123.17614521 510.55168776 138.75345061 491.75764423 150 470 C150.31565918 469.39462402 150.63131836 468.78924805 150.95654297 468.16552734 C177.35456563 416.82116186 177.82929852 351.59842581 160.76904297 297.38964844 C155.36373689 280.59373228 148.12631614 264.83217161 137 251 C136.59023926 250.4848584 136.18047852 249.9697168 135.75830078 249.43896484 C112.61262662 220.50901764 81.25133796 204.00429336 44.69140625 199.6015625 C41.79226057 199.32258099 38.9094296 199.12984902 36 199 C35.08605469 198.95875 34.17210938 198.9175 33.23046875 198.875 C-5.65241953 198.02393815 -39.07384659 213.9127864 -65.23779297 242.03955078 Z " fill="#2384C6" transform="translate(5501,1352)"/>
<path d="M0 0 C1.42445435 1.16994507 1.42445435 1.16994507 2.87768555 2.36352539 C10.33017333 8.54217257 17.35073444 15.0351376 24.16748047 21.90673828 C25.7565836 23.50662829 27.35620375 25.09544414 28.95703125 26.68359375 C35.41290762 33.13028238 41.37728593 39.80032131 47 47 C47.54205078 47.68803711 48.08410156 48.37607422 48.64257812 49.08496094 C101.11383365 116.39411455 134.50425458 210.97406358 125.22802734 296.87133789 C122.63249754 317.11682934 116.14323394 336.47868465 99.80859375 349.78515625 C91.51296105 355.5876471 82.51765542 359.04624832 72.8125 361.6875 C72.08369629 361.88996338 71.35489258 362.09242676 70.60400391 362.30102539 C57.35815635 365.71568134 43.93900259 366.29625132 30.34594727 366.24050903 C28.73171515 366.24138363 27.11748332 366.24313926 25.50325298 366.24568737 C21.11555464 366.250115 16.72795574 366.24222116 12.34027004 366.23213124 C7.59067755 366.22343214 2.84108992 366.22642144 -1.9085083 366.22793579 C-10.12158519 366.22898058 -18.33463012 366.22274658 -26.54769897 366.21146011 C-38.42217167 366.19515281 -50.29662903 366.18999177 -62.1711117 366.18748413 C-81.44025509 366.18311521 -100.70938147 366.16982795 -119.97851562 366.15087891 C-138.68815018 366.13249928 -157.3977801 366.11835298 -176.10742188 366.10986328 C-177.26217258 366.10933783 -178.41692329 366.10881239 -179.60666645 366.10827102 C-185.40015591 366.1056608 -191.19364541 366.10313342 -196.98713493 366.10064721 C-244.99143504 366.07993972 -292.99571669 366.04473614 -341 366 C-340.54993048 369.00745446 -340.09324493 372.01366051 -339.6328125 375.01953125 C-339.50753174 375.86132935 -339.38225098 376.70312744 -339.25317383 377.57043457 C-334.875121 405.93170784 -316.34871234 431.30556377 -293.5 448.1875 C-249.52413944 479.05739275 -182.74319682 481.3720879 -131.62524414 472.53051758 C-101.65162094 466.84299858 -73.43276582 452.95933805 -45.81640625 440.3828125 C-14.81153816 426.26530312 -14.81153816 426.26530312 -0.8125 421.0625 C0.21230469 420.67989014 1.23710937 420.29728027 2.29296875 419.90307617 C12.31770345 416.30127031 22.52941429 413.41132285 33.25 413.5625 C34.05155518 413.57152344 34.85311035 413.58054687 35.67895508 413.58984375 C55.30165344 414.14591353 72.64019833 421.68819628 87 435 C87.85078125 435.75925781 88.7015625 436.51851562 89.578125 437.30078125 C107.68854052 454.27235162 114.969211 477.28900666 116.125 501.6328125 C116.71393009 526.88319001 107.07559956 549.0397958 91 568 C90.5575293 568.52223145 90.11505859 569.04446289 89.65917969 569.58251953 C83.39876544 576.87429978 76.591112 583.09208611 69 589 C67.85337891 589.96292969 67.85337891 589.96292969 66.68359375 590.9453125 C4.35326536 643.04545163 -87.01021204 661.13410518 -166 667 C-167.07846191 667.08677002 -167.07846191 667.08677002 -168.17871094 667.17529297 C-248.14617451 673.45711936 -332.59774376 659.54131457 -401 616 C-401.99644531 615.37351562 -402.99289063 614.74703125 -404.01953125 614.1015625 C-421.28905756 602.9035386 -437.95833454 590.34543283 -452.36425781 575.60498047 C-454.00834392 573.99181299 -455.71881687 572.52162418 -457.5 571.0625 C-460.69644521 568.36926456 -463.37448207 565.41898678 -466.07421875 562.234375 C-468.19192394 559.77732151 -470.40605319 557.42842067 -472.625 555.0625 C-534.87688483 486.51019782 -562.30424419 390.09203954 -562.1875 299.0625 C-562.18656342 298.11402191 -562.18562683 297.16554382 -562.18466187 296.18832397 C-562.15305047 281.37815235 -561.86690033 266.71071646 -560 252 C-559.84934082 250.80536133 -559.69868164 249.61072266 -559.54345703 248.37988281 C-550.56387935 179.9763756 -524.15106756 115.02948796 -481 61 C-479.89591797 59.60587891 -479.89591797 59.60587891 -478.76953125 58.18359375 C-473.56829274 51.71196424 -468.04325378 45.58036543 -462.38964844 39.50732422 C-461.03821352 38.04144945 -459.71011188 36.55417019 -458.3828125 35.06640625 C-447.90898946 23.36493926 -436.42908632 12.60802253 -424 3 C-422.95465088 2.18644043 -422.95465088 2.18644043 -421.88818359 1.35644531 C-365.35821047 -42.4504587 -298.32256349 -67.81556224 -226.9375 -72.1875 C-225.89204514 -72.25195816 -225.89204514 -72.25195816 -224.82546997 -72.31771851 C-143.39805396 -77.21814769 -63.07776916 -52.05474738 0 0 Z M-306.0625 147.1875 C-324.57441962 168.13361685 -341 196.30487503 -341 225 C-254.87 225 -168.74 225 -80 225 C-80 193.70194283 -98.94095241 162.53566782 -120.296875 140.609375 C-143.70268524 117.35217308 -174.67482396 102.9601705 -207.87939453 102.67041016 C-208.99169434 102.6760498 -210.10399414 102.68168945 -211.25 102.6875 C-212.42804199 102.69313965 -213.60608398 102.6987793 -214.81982422 102.70458984 C-251.54984734 103.21298128 -281.28127342 121.10199834 -306.0625 147.1875 Z " fill="#2384C6" transform="translate(4412,1425)"/>
<path d="M0 0 C1.46507568 0.30139932 2.93025194 0.60230994 4.39550781 0.90283203 C61.80971369 12.74762284 123.92690789 33.29198569 157.97265625 84.69921875 C172.511408 108.37021149 176.90912351 136.08765208 171.8125 163.5 C166.34091005 185.4886325 154.54063011 204.94914458 135 217 C120.02715743 225.62538111 105.27248929 228.32833076 88.125 228.5 C86.28881104 228.52791626 86.28881104 228.52791626 84.41552734 228.55639648 C83.22910645 228.54809814 82.04268555 228.5397998 80.8203125 228.53125 C79.77117676 228.52673828 78.72204102 228.52222656 77.64111328 228.51757812 C68.28435034 227.18753002 59.4059368 222.56384977 50.78125 218.859375 C49.64328979 218.37349915 48.50532959 217.88762329 47.33288574 217.38702393 C43.72073726 215.84410761 40.1103122 214.29720752 36.5 212.75 C31.76080521 210.72304922 27.02104428 208.69742352 22.28125 206.671875 C21.13243851 206.18092346 19.98362701 205.68997192 18.80000305 205.18414307 C-38.59213927 178.31997778 -38.59213927 178.31997778 -99.8125 181.25 C-109.12015017 185.12252598 -117.70525294 190.16762388 -122.21875 199.52734375 C-126.86985118 210.83948626 -127.78341326 221.85850006 -123.36328125 233.5 C-119.69825456 240.22096585 -114.89264361 243.76303789 -108.5 247.6875 C-107.79230469 248.14060547 -107.08460937 248.59371094 -106.35546875 249.06054688 C-90.38999157 259.02890784 -73.65070311 266.71036511 -56 273.125 C-54.05681543 273.843709 -52.11420119 274.56396164 -50.17211914 275.28564453 C-46.14574549 276.78042751 -42.11704779 278.26866546 -38.08642578 279.75195312 C-22.64476046 285.44357574 -7.2671641 291.30985586 8.11865234 297.15039062 C11.13756517 298.2957967 14.1582585 299.43610809 17.18212891 300.56835938 C60.98482781 316.97889326 101.84887985 338.68354326 136 371 C136.680625 371.63808594 137.36125 372.27617188 138.0625 372.93359375 C169.01667628 402.81297224 189.97684578 446.36333522 191.17700195 489.54052734 C191.20312218 491.13891449 191.22330691 492.73740708 191.23828125 494.3359375 C191.24802979 495.20489655 191.25777832 496.07385559 191.26782227 496.96914673 C191.44305718 516.64868444 191.17144407 535.67389699 187 555 C186.71914551 556.31097656 186.71914551 556.31097656 186.43261719 557.6484375 C176.34697606 602.93801767 150.3500245 643.30261224 114 672 C112.90556985 672.88457582 111.81184547 673.7700254 110.71875 674.65625 C97.63834252 685.19169348 83.80285373 694.0829599 69 702 C68.38640625 702.33209473 67.7728125 702.66418945 67.140625 703.00634766 C24.26733107 726.03471146 -24.22406327 735.27258752 -72.5625 735.1875 C-73.26620728 735.18656342 -73.96991455 735.18562683 -74.69494629 735.18466187 C-152.25375369 734.9647552 -249.00582928 719.65958627 -314 660 C-314.64582031 659.41863281 -315.29164062 658.83726562 -315.95703125 658.23828125 C-332.58291539 642.78049202 -342.3897344 620.18949455 -343.33984375 597.71484375 C-343.98814935 569.90497978 -338.94340886 540.54928551 -319.375 519.4375 C-317.60436543 517.60260488 -315.80465695 515.80188907 -314 514 C-313.40703125 513.33613281 -312.8140625 512.67226562 -312.203125 511.98828125 C-302.24226733 501.01654445 -285.85677391 493.72061037 -271.08764648 492.82299805 C-255.24667809 492.52120806 -240.31716968 492.7128027 -225 497 C-224.29004883 497.19303711 -223.58009766 497.38607422 -222.84863281 497.58496094 C-201.76763591 503.49307282 -182.01210024 513.9558221 -162.40237427 523.52511597 C-125.57641564 541.48349262 -82.25373441 562.42344307 -40.05859375 551.09765625 C-28.62116031 546.99303454 -16.49359245 541.09345674 -10.5 529.9375 C-9.95725885 528.64208953 -9.45524699 527.32868598 -9 526 C-8.77828125 525.35289062 -8.5565625 524.70578125 -8.328125 524.0390625 C-5.13483491 513.1214626 -7.18847372 501.66073968 -12.5625 491.75 C-27.97492865 468.3707604 -67.74541577 459.05018053 -92.85961914 449.65286255 C-228.92421971 398.69951103 -228.92421971 398.69951103 -278 356 C-278.5151416 355.55720703 -279.0302832 355.11441406 -279.56103516 354.65820312 C-309.19892634 329.02067993 -322.85981678 291.42696523 -325.71875 252.91015625 C-329.19434542 190.62793185 -313.61511564 130.25668517 -271.34765625 82.8203125 C-267.9758905 79.13668346 -264.50130616 75.55996906 -261 72 C-260.10410156 71.06542969 -259.20820313 70.13085938 -258.28515625 69.16796875 C-252.56140767 63.28145955 -246.48950722 58.02494917 -240 53 C-239.46842285 52.58669434 -238.9368457 52.17338867 -238.38916016 51.74755859 C-171.69730677 0.27190166 -82.08191746 -17.3157554 0 0 Z " fill="#2384C6" transform="translate(4927,1358)"/>
<path d="M0 0 C13.79557512 12.36794432 13.79557512 12.36794432 19.328125 19.0234375 C20.54518721 20.46230077 21.81327867 21.85846081 23.109375 23.2265625 C40.72469335 41.82050965 54.50809665 63.7607006 67 86 C67.35803711 86.6280957 67.71607422 87.25619141 68.08496094 87.90332031 C96.6247222 138.10545647 111.74816697 198.33744102 113 256 C113.02578125 256.82854492 113.0515625 257.65708984 113.078125 258.51074219 C113.66379347 278.5186412 112.01810893 296.44236301 98.8125 312.5 C88.0800865 323.55928903 72.06099473 326.64289577 57.15305901 327.1241985 C55.79067643 327.12886676 54.42826823 327.12821293 53.06588745 327.12304783 C51.92505188 327.1247786 51.92505188 327.1247786 50.76116914 327.12654433 C48.22210469 327.12918339 45.68310413 327.12471128 43.14404297 327.12025452 C41.30160221 327.12069077 39.45916152 327.12156668 37.61672115 327.12284368 C32.56108766 327.12507795 27.50547539 327.12108195 22.4498446 327.11606562 C16.99526486 327.11174599 11.54068631 327.11320862 6.08610535 327.1139679 C-3.36194136 327.11449217 -12.80998116 327.11135543 -22.25802612 327.10573006 C-35.91830353 327.09760201 -49.57857759 327.0949985 -63.23885715 327.09374207 C-85.40191573 327.0915536 -107.56497079 327.08490767 -129.72802734 327.07543945 C-151.2569985 327.06625275 -172.78596868 327.05917025 -194.31494141 327.05493164 C-194.97874408 327.05480011 -195.64254675 327.05466859 -196.32646465 327.05453308 C-203.65421994 327.0530837 -210.98197523 327.05169187 -218.30973053 327.05032361 C-273.5398229 327.03995739 -328.76991127 327.02234465 -384 327 C-383.62183686 332.16406474 -383.23540557 337.32742605 -382.84185791 342.49034119 C-382.70955057 344.24056428 -382.57936164 345.99094904 -382.45147705 347.74150085 C-379.65376256 385.95710478 -368.52253121 421.59758772 -346 453 C-345.58008789 453.58668457 -345.16017578 454.17336914 -344.72753906 454.77783203 C-338.72884366 463.05472049 -332.03227496 470.60324738 -325 478 C-324.38125 478.68320313 -323.7625 479.36640625 -323.125 480.0703125 C-312.98442932 490.88993925 -299.895181 499.80340797 -287 507 C-285.85144531 507.64195312 -284.70289062 508.28390625 -283.51953125 508.9453125 C-225.44616825 540.16895336 -154.32241111 541.47613574 -92.22558594 523.00488281 C-56.59131841 511.90356241 -23.31515274 493.72722571 5.4375 469.9375 C21.24049372 456.93263503 41.68231748 442.46920897 63 444 C73.95694125 445.92398671 82.58439941 452.01815917 89 461 C97.40702659 474.52434713 98.96654405 490.38802561 96.34375 505.875 C92.94347789 519.00708541 86.46324122 529.43276712 77 539 C76.12730469 539.93328125 75.25460937 540.8665625 74.35546875 541.828125 C27.30701989 591.51135266 -49.87541791 621.05437178 -115.9375 631.8125 C-117.72849121 632.10495605 -117.72849121 632.10495605 -119.55566406 632.40332031 C-139.51426486 635.47595856 -159.25601456 636.37437052 -179.4375 636.3125 C-180.67156586 636.31067719 -181.90563171 636.30885437 -183.17709351 636.30697632 C-201.62085676 636.26112863 -219.74486909 635.84932377 -238 633 C-239.12390137 632.82839355 -240.24780273 632.65678711 -241.40576172 632.47998047 C-264.83181848 628.78634125 -288.05744738 623.09157428 -310 614 C-310.85480957 613.64599121 -311.70961914 613.29198242 -312.59033203 612.92724609 C-331.66566809 604.89825431 -349.83246311 594.98405565 -366 582 C-367.12173719 581.13936546 -368.24554569 580.28142586 -369.37109375 579.42578125 C-377.69619404 573.06337877 -385.47528247 566.28732732 -393 559 C-393.80453613 558.22269531 -394.60907227 557.44539063 -395.43798828 556.64453125 C-406.09971933 546.29402018 -416.19868375 535.97628772 -425 524 C-426.64581716 521.93748709 -428.2916507 519.87498726 -429.9375 517.8125 C-440.44339568 504.27142824 -449.0649897 489.1582217 -457 474 C-457.63905273 472.78908691 -457.63905273 472.78908691 -458.29101562 471.55371094 C-486.88878133 416.66718431 -501.77438989 350.47761558 -502.25 288.8125 C-502.26401855 287.58237183 -502.26401855 287.58237183 -502.27832031 286.32739258 C-502.24679255 280.59600888 -502.24679255 280.59600888 -501.01171875 277.61328125 C-499.35695262 273.33900118 -499.65229549 268.91938492 -499.5625 264.375 C-497.76050892 209.23575319 -482.73216668 153.74059802 -459 104 C-458.64744141 103.26007813 -458.29488281 102.52015625 -457.93164062 101.7578125 C-456.00201277 97.74650355 -454.00768096 93.77382234 -451.95019531 89.82666016 C-451.00453118 88.00871075 -450.07601145 86.18270128 -449.1484375 84.35546875 C-431.39393044 49.77895864 -405.75355856 16.9477918 -375 -7 C-373.83757423 -7.94904991 -372.67756909 -8.90106959 -371.51953125 -9.85546875 C-363.02879094 -16.82248707 -354.28596573 -23.13712514 -345 -29 C-344.42378906 -29.36657715 -343.84757812 -29.7331543 -343.25390625 -30.11083984 C-324.54424221 -41.93165649 -304.85781444 -51.61571322 -284 -59 C-282.63343262 -59.48509033 -282.63343262 -59.48509033 -281.23925781 -59.97998047 C-189.93355347 -91.85699881 -86.32346223 -71.00367301 0 0 Z M-321.49121094 76.53076172 C-322.96382196 77.96477032 -324.46494461 79.3612076 -325.9765625 80.75390625 C-339.9728181 93.87611656 -350.348907 109.99244466 -359 127 C-359.57741943 128.1122998 -359.57741943 128.1122998 -360.16650391 129.24707031 C-377.62440197 163.10968784 -384 200.14753347 -384 238 C-258.6 238 -133.2 238 -4 238 C-3.78329992 220.89430056 -3.78329992 220.89430056 -5.1875 204.0625 C-5.3213208 203.07636719 -5.4551416 202.09023437 -5.59301758 201.07421875 C-11.33797828 160.82428794 -26.06465777 120.08338493 -53 89 C-54.05960938 87.77603516 -54.05960938 87.77603516 -55.140625 86.52734375 C-57.39077393 83.9821578 -59.68316219 81.48455503 -62 79 C-62.72445312 78.20980469 -63.44890625 77.41960937 -64.1953125 76.60546875 C-92.07341764 47.35708387 -134.21302207 28.26397811 -174.61669922 26.87573242 C-178.95268872 26.77907275 -183.28803348 26.7533914 -187.625 26.75 C-188.7891745 26.74898788 -188.7891745 26.74898788 -189.97686768 26.74795532 C-238.51456024 26.81473943 -286.35652199 42.01266751 -321.49121094 76.53076172 Z " fill="#2384C6" transform="translate(2874,1442)"/>
<path d="M0 0 C14.189467 11.81422871 21.13383296 25.58205828 23 44 C23.17184144 46.81160291 23.25143155 49.6216035 23.31640625 52.4375 C23.33718735 53.20304199 23.35796844 53.96858398 23.37937927 54.75732422 C23.44408136 57.1714698 23.50338541 59.58571181 23.5625 62 C23.60576095 63.64974903 23.64937748 65.29948878 23.69335938 66.94921875 C23.79967969 70.96605033 23.90116345 74.98297759 24 79 C26.84262369 76.17100374 29.63648812 73.35499742 32.25 70.3125 C32.848125 69.62542969 33.44625 68.93835937 34.0625 68.23046875 C35.3978724 66.69317512 36.73107861 65.15399805 38.0625 63.61328125 C78.44463686 17.67860057 140.89627967 -7.01580223 201 -11 C265.88555724 -13.89908261 330.42093424 5.01142 379 49 C386.99525981 56.45824755 394.34415534 64.31237118 401 73 C401.40895508 73.52722656 401.81791016 74.05445313 402.23925781 74.59765625 C442.30622726 126.49506821 458.18037462 188.71478959 458.14044189 253.54690552 C458.14303293 255.25840473 458.1460481 256.96990334 458.1494453 258.68140113 C458.15743083 263.33847758 458.15930007 267.99553855 458.16004276 272.65262103 C458.16190801 277.69287695 458.16946214 282.73312511 458.17617798 287.77337646 C458.18969752 298.76888501 458.19577488 309.76438987 458.20018864 320.75990534 C458.20295964 327.63202014 458.2071983 334.50413355 458.21169281 341.37624741 C458.22387286 360.42597172 458.23417743 379.47569493 458.2375679 398.52542305 C458.23778747 399.74193031 458.23800703 400.95843756 458.23823325 402.21180867 C458.23845153 403.43109111 458.23866981 404.65037354 458.2388947 405.90660393 C458.23933816 408.37702632 458.23978472 410.84744871 458.24023438 413.31787109 C458.2404558 414.54326524 458.24067723 415.76865938 458.24090537 417.03118668 C458.244857 436.90529733 458.26232782 456.7793714 458.2855939 476.65346791 C458.30932089 497.08692773 458.32177022 517.52036918 458.32293582 537.953843 C458.32385136 549.41515277 458.32957401 560.87641475 458.34775543 572.33771133 C458.363174 582.09098695 458.36826616 591.84419995 458.36001733 601.59748544 C458.35611825 606.56938245 458.35700449 611.54115342 458.37107468 616.51303482 C458.38385654 621.0714109 458.38257869 625.62956677 458.37048396 630.18794273 C458.36853449 631.82969675 458.37157043 633.4714666 458.38032833 635.11319841 C458.46977996 653.02707508 456.06371716 668.32676645 443.31640625 681.74609375 C430.99135216 693.7386 415.29713644 698.53496013 398.30932617 698.35131836 C382.30972409 697.83345597 368.9437101 692.09084708 357.6328125 680.85546875 C347.67976977 670.06069985 343.88190301 656.29628233 343.86971474 641.82823086 C343.86777131 641.13788861 343.86582788 640.44754636 343.86382556 639.73628464 C343.85852377 637.42983832 343.86026464 635.12345232 343.86196899 632.81700134 C343.85954952 631.14371997 343.85668681 629.47043919 343.85341966 627.79715925 C343.84567877 623.20360305 343.84404789 618.6100618 343.84336853 614.01649988 C343.84152645 609.05977766 343.83391791 604.10306414 343.82688904 599.14634705 C343.81536735 590.55502875 343.80712062 581.96371242 343.80076981 573.37238884 C343.79043015 559.77677498 343.76986123 546.18118545 343.74765015 532.58558655 C343.74017032 527.93030842 343.73275653 523.27503019 343.72536278 518.61975193 C343.72351221 517.45627711 343.72166165 516.29280229 343.719755 515.09407065 C343.69882933 501.8507207 343.68000248 488.60736805 343.66210938 475.36401367 C343.66047119 474.15357219 343.65883301 472.9431307 343.65714519 471.69600917 C343.63089987 452.11127893 343.61223456 432.52654683 343.59551747 412.94180649 C343.57805795 392.81141573 343.54916923 372.68106166 343.5106281 352.55070025 C343.48730623 340.14903689 343.47324058 327.74743341 343.47130047 315.34574796 C343.46918077 306.83152433 343.45616583 298.31736004 343.43482114 289.8031631 C343.42286973 284.90123432 343.41558839 279.99942327 343.42153358 275.09748077 C343.47478512 224.32542312 335.12216989 174.72109021 298 137 C293.90357242 133.02438528 289.55603217 129.43428183 285 126 C284.17822266 125.37665771 284.17822266 125.37665771 283.33984375 124.74072266 C267.27779914 112.79201488 248.25235572 104.29909405 229 99 C228.28602051 98.80325684 227.57204102 98.60651367 226.83642578 98.40380859 C185.53970587 87.40555718 139.33854785 93.05627296 102 114 C67.10202188 134.64832635 40.88452278 168.000511 30.24609375 207.2578125 C25.81911216 224.62570098 23.69312824 241.39024081 23.74171448 259.26097107 C23.73885224 260.94145959 23.73511015 262.6219468 23.73057598 264.30243164 C23.72068771 268.87392609 23.72294346 273.44534296 23.72730291 278.01684296 C23.72979639 282.96513571 23.72068888 287.91340895 23.71292114 292.86169434 C23.70091722 301.42340375 23.69577038 309.98509462 23.69503975 318.54681206 C23.69370938 330.94389211 23.67855664 343.3409274 23.65954458 355.73799158 C23.62875142 375.87944001 23.60456342 396.02088958 23.58666992 416.16235352 C23.58559724 417.36602643 23.58452456 418.56969934 23.58341938 419.80984718 C23.57159949 433.23842414 23.56139267 446.66700154 23.55297852 460.09558105 C23.5499044 464.96614585 23.54681563 469.83671063 23.54370117 474.70727539 C23.54293583 475.90916716 23.54217049 477.11105893 23.54138196 478.34937166 C23.52828283 498.41786938 23.50362142 518.48633458 23.46995777 538.5548082 C23.44971825 550.91486324 23.4393714 563.27484863 23.44194698 575.63492037 C23.44298512 584.10790256 23.43329589 592.58082977 23.41530795 601.05379277 C23.40530437 605.93491567 23.40009017 610.81591688 23.40807533 615.69704628 C23.41531518 620.17602628 23.40853629 624.65477041 23.39118993 629.13372064 C23.3873448 630.74322062 23.38841377 632.35274258 23.39524681 633.96223264 C23.4475498 647.35732906 23.04121142 662.34977654 16.5 674.375 C16.15888184 675.02581543 15.81776367 675.67663086 15.46630859 676.34716797 C8.76869009 688.41835334 -1.99673692 696.60826187 -14.8125 701.375 C-30.38139867 705.75490294 -48.10366067 704.16185984 -62.25 696.3125 C-77.20801668 686.54550555 -86.53750138 673.65206089 -90.38764966 656.20194304 C-91.98800815 646.72916209 -91.41342057 636.88030436 -91.38768005 627.31047058 C-91.39185589 624.78627371 -91.39733478 622.26207873 -91.40399987 619.7378872 C-91.41542972 614.26252349 -91.41759528 608.78727871 -91.41144943 603.31190872 C-91.40233455 595.16951743 -91.41040948 587.02720502 -91.42174067 578.88481976 C-91.44138421 564.33914766 -91.44375941 549.79351123 -91.43854547 535.24782902 C-91.43398432 522.5166225 -91.43459243 509.78543008 -91.44038582 497.05422401 C-91.44114269 495.34499155 -91.44189867 493.63575908 -91.44265376 491.92652661 C-91.44379899 489.35070797 -91.44494887 486.77488934 -91.44611301 484.19907071 C-91.45681461 460.25825028 -91.46154677 436.31743453 -91.45364285 412.37661266 C-91.45334567 411.47456389 -91.4530485 410.57251511 -91.45274232 409.64313152 C-91.45029351 402.31835901 -91.44768186 394.99358655 -91.44505819 387.6688141 C-91.43495705 359.10169684 -91.44331001 330.53463836 -91.46655273 301.9675293 C-91.49263934 269.85330144 -91.5054695 237.73910897 -91.49836498 205.62487012 C-91.49764895 202.19898785 -91.49697456 198.77310557 -91.49632454 195.34722328 C-91.49615473 194.50371846 -91.49598492 193.66021364 -91.49580997 192.79114807 C-91.49350941 180.07216437 -91.50147235 167.3532136 -91.51461601 154.63423729 C-91.52954201 140.16494473 -91.53035069 125.69572918 -91.5125451 111.22643825 C-91.502998 103.13570941 -91.50438433 95.04516032 -91.52177979 86.95444357 C-91.53354034 80.90376745 -91.52425411 74.85331196 -91.50695742 68.80264131 C-91.5031959 66.36198154 -91.50612368 63.92129994 -91.51656907 61.48065963 C-91.59835006 40.90207517 -90.19894856 20.77529612 -75.19140625 5.02734375 C-54.58637324 -14.03506647 -22.80395624 -17.27663969 0 0 Z " fill="#2384C6" transform="translate(1153,1379)"/>
<path d="M0 0 C0.5273877 0.40154297 1.05477539 0.80308594 1.59814453 1.21679688 C17.94637879 13.80328114 24.12793524 25.60602406 27 46 C28.40335615 57.96611714 25.07439565 68.18312013 17.83984375 77.7578125 C8.72706751 88.86340392 -2.98427798 96.64391011 -17.52880859 98.28540039 C-25.89146469 98.7244645 -32.8245556 96.36680032 -40.519104 93.41452026 C-44.50621724 91.89176829 -48.52155987 90.44811678 -52.5390625 89.0078125 C-53.41992523 88.69184616 -54.30078796 88.37587982 -55.20834351 88.05033875 C-67.71981133 83.61662598 -80.42717875 79.7958933 -93.125 75.9375 C-94.91568909 75.38777023 -94.91568909 75.38777023 -96.74255371 74.82693481 C-123.73031196 66.22547208 -123.73031196 66.22547208 -151.75 63.625 C-153.38497437 63.64868652 -153.38497437 63.64868652 -155.05297852 63.67285156 C-204.04930192 64.68008688 -245.89979817 79.50221026 -281.60302734 113.66601562 C-282.79431246 114.80358673 -283.99929764 115.92678224 -285.20703125 117.046875 C-327.56308331 157.418835 -347.8262714 223.57443208 -355 280 C-355.10602539 280.77029541 -355.21205078 281.54059082 -355.32128906 282.33422852 C-356.42349566 291.39582846 -356.2440462 300.5736464 -356.25 309.6875 C-356.25067474 310.61662201 -356.25134949 311.54574402 -356.25204468 312.50302124 C-356.17322451 381.23199593 -339.07349858 462.47795249 -293 516 C-292.2059375 516.92941406 -291.411875 517.85882812 -290.59375 518.81640625 C-261.64510544 551.75006992 -216.95616385 568.49578175 -174.0625 572.0625 C-172.24064084 572.21719822 -170.41901233 572.37464344 -168.59765625 572.53515625 C-167.80883057 572.600979 -167.02000488 572.66680176 -166.20727539 572.73461914 C-164.0668501 572.99196261 -162.08370371 573.45928516 -160 574 C-128.57054748 576.64027711 -94.43919736 560.55437289 -67.05078125 547.10546875 C-66.36712494 546.77089661 -65.68346863 546.43632446 -64.97909546 546.09161377 C-61.63654698 544.45495936 -58.30141846 542.80654402 -54.98046875 541.12646484 C-44.21576591 535.74336562 -33.04353347 531.17523231 -20.8125 531.5 C-20.05275879 531.51208496 -19.29301758 531.52416992 -18.51025391 531.53662109 C-6.03145129 531.97461353 2.72213195 537.34308561 11.1875 546.1875 C23.03986027 559.995849 23.11623065 576.74552927 22 594 C20.02069842 610.00856436 10.00193151 623.67252783 -2.375 633.4375 C-44.46520104 663.75089447 -96.80407239 670.8145075 -147.32617188 670.44952393 C-150.47944532 670.4334674 -153.63242415 670.44363798 -156.78570652 670.45324898 C-228.36205144 670.6274285 -295.78510943 651.26641265 -352 606 C-352.774646 605.3819751 -352.774646 605.3819751 -353.56494141 604.75146484 C-361.9663186 597.99140771 -369.6713622 590.53456571 -377.3125 582.9375 C-378.231521 582.02774414 -379.15054199 581.11798828 -380.09741211 580.18066406 C-386.15522953 574.09494556 -391.68177037 567.73848058 -397 561 C-397.73126099 560.0881897 -397.73126099 560.0881897 -398.47729492 559.15795898 C-444.88922778 501.08123969 -471.89741273 419.70989774 -472.203125 345.52734375 C-472.21009399 344.37772659 -472.21706299 343.22810944 -472.22424316 342.0436554 C-472.24156383 338.34156594 -472.24796632 334.63962832 -472.25 330.9375 C-472.25100708 329.66878052 -472.25201416 328.40006104 -472.25305176 327.09289551 C-472.24187558 306.23354219 -471.44482733 285.71253502 -469 265 C-468.86078125 263.7615332 -468.7215625 262.52306641 -468.578125 261.24707031 C-459.9918392 186.41520447 -434.67230232 107.45676983 -381.75 51.90234375 C-379.34373711 49.36277936 -377.03573203 46.77234198 -374.75 44.125 C-371.81160567 40.80881211 -368.74997752 37.84621892 -365.36328125 34.9921875 C-363.54337564 33.4580522 -361.75745061 31.90291116 -359.98046875 30.3203125 C-282.60998976 -38.11496334 -172.26092618 -52.98942526 0 0 Z " fill="#2384C6" transform="translate(2242,1408)"/>
<path d="M0 0 C0.54994629 0.44601562 1.09989258 0.89203125 1.66650391 1.3515625 C13.22600717 10.78325973 22.47516117 20.88707459 30.92822266 33.19995117 C31.655979 34.259198 31.655979 34.259198 32.3984375 35.33984375 C33.04304932 36.28911743 33.04304932 36.28911743 33.70068359 37.25756836 C35.00762737 39.01022858 36.41728168 40.49557972 38 42 C38.52207031 41.27296875 39.04414063 40.5459375 39.58203125 39.796875 C45.26152599 32.03854594 51.36716375 24.95454301 58 18 C58.79019531 17.14535156 59.58039063 16.29070312 60.39453125 15.41015625 C87.7606283 -13.31743816 127.40859784 -25.77245494 166.19921875 -26.96484375 C205.09910851 -27.58708479 241.08082384 -13.4113728 269.2578125 13.32421875 C296.83281996 40.23145537 311.60194471 78.09848615 312.13422108 116.44578552 C312.14348173 118.38758648 312.14753349 120.32941723 312.14717102 122.27124023 C312.15084771 123.35093551 312.1545244 124.43063078 312.1583125 125.54304409 C312.16925427 129.13156562 312.17317677 132.72005811 312.17700195 136.30859375 C312.18327344 138.89332163 312.18992084 141.47804863 312.19691467 144.06277466 C312.21656516 151.79133662 312.2267255 159.51989967 312.23564246 167.24848032 C312.23915685 170.16385781 312.24330274 173.07923424 312.24748212 175.99461085 C312.26592871 188.86223292 312.28168131 201.72985503 312.28938007 214.5974884 C312.29128962 217.73784384 312.29321002 220.87819928 312.29516602 224.01855469 C312.29564976 224.79897106 312.2961335 225.57938742 312.2966319 226.38345277 C312.3049395 239.0368262 312.3302977 251.69010533 312.36274669 264.34343755 C312.39584884 277.35819361 312.41383122 290.37290172 312.41702431 303.38770008 C312.41918525 310.685681 312.42787405 317.9835239 312.45348549 325.28146362 C312.47751338 332.14340245 312.48099858 339.00508938 312.47072411 345.86706161 C312.4702288 348.38127341 312.47654754 350.89549745 312.49028015 353.40967178 C312.5080151 356.84966387 312.50088424 360.28876639 312.48774719 363.72875977 C312.50420106 365.21025843 312.50420106 365.21025843 312.52098733 366.72168636 C312.42928569 376.71093431 309.70873995 385.09542006 302.71484375 392.35546875 C294.4825883 400.25018298 285.52160348 403.40111989 274.23046875 403.27734375 C263.90592735 402.39095628 255.77727232 397.13768661 248.75 389.8125 C242.75903046 382.23999529 241.40525779 373.39165656 241.50120544 364.00364685 C241.49312861 362.42826435 241.49312861 362.42826435 241.48488861 360.82105595 C241.47170428 357.3315509 241.48671611 353.84276029 241.50170898 350.35327148 C241.49788258 347.83901142 241.4922608 345.32475355 241.48498535 342.8105011 C241.47305772 337.40912917 241.47302727 332.00796676 241.48357964 326.60659599 C241.49858778 318.77773566 241.4885524 310.94905526 241.47206045 303.12020505 C241.44563933 290.38994628 241.43473888 277.65972807 241.43579102 264.92944336 C241.4358785 263.7884886 241.4358785 263.7884886 241.43596775 262.62448425 C241.43623354 259.54341691 241.4365508 256.46234959 241.43693101 253.38128227 C241.43789599 244.91523906 241.43657095 236.44919709 241.43383789 227.9831543 C241.433598 227.22557665 241.43335811 226.46799901 241.43311094 225.68746447 C241.42868902 213.01053036 241.4123939 200.33363366 241.3886171 187.65672165 C241.37462289 179.85809632 241.37159731 172.0596143 241.38323999 164.26098425 C241.39149631 158.26937878 241.38463823 152.27788648 241.37255096 146.28628349 C241.37016091 143.84435984 241.3728226 141.40242467 241.38115883 138.96051407 C241.43499934 122.17310704 240.92150525 105.62500502 235.25 89.625 C234.99323486 88.8837085 234.73646973 88.14241699 234.47192383 87.37866211 C227.03312316 66.76255741 212.21766151 51.75731374 192.6328125 42.46875 C167.92447302 32.47914178 138.49319766 33.10229014 113.94921875 43.21484375 C94.30513499 51.81791522 79.54841787 65.2479777 71.1875 85.1875 C65.61349609 100.96443841 63.83791327 117.3714667 63.86869812 134.01858521 C63.86658241 135.05900494 63.86446669 136.09942468 63.86228687 137.17137229 C63.85634579 140.62093228 63.85728275 144.07045508 63.8581543 147.52001953 C63.85511902 150.00799623 63.85159654 152.49597237 63.84762573 154.98394775 C63.83976696 160.32359038 63.83458349 165.66322582 63.83133507 171.00287247 C63.82580906 179.44984163 63.80888388 187.8967711 63.78999329 196.34371948 C63.78363846 199.24025911 63.77732981 202.13679883 63.77101612 205.03333855 C63.76943236 205.75697255 63.7678486 206.48060655 63.76621684 207.22616885 C63.74832005 215.44293136 63.7320723 223.65969661 63.71704102 231.87646484 C63.71566514 232.62667187 63.71428927 233.3768789 63.71287171 234.14981948 C63.69092056 246.31876829 63.68017815 258.48770666 63.67267027 270.65667178 C63.66459098 283.17542387 63.64128042 295.69408712 63.6047166 308.21278846 C63.58274266 315.9216831 63.57301118 323.63039486 63.57921693 331.33931921 C63.5827754 337.24711302 63.5654855 343.1547312 63.54053879 349.06247711 C63.5336268 351.48033807 63.53350048 353.89822963 63.54073906 356.31608963 C63.54963783 359.62287131 63.53391609 362.92867928 63.51225281 366.23538208 C63.52069534 367.1863691 63.52913788 368.13735611 63.53783625 369.11716092 C63.42635168 378.35317678 60.56868121 386.37476226 54.1953125 393.17578125 C44.35457108 401.35305215 33.38296095 402.94435041 21 402 C12.44203675 400.07747937 3.75583863 395.76272226 -1.875 388.875 C-9.09879782 376.80658113 -7.42171321 361.80674961 -7.38476562 348.31567383 C-7.38887508 345.8094966 -7.39433815 343.30332128 -7.40104675 340.79714966 C-7.41274019 335.41656381 -7.41560393 330.03608469 -7.41069031 324.6554966 C-7.40384905 316.85776913 -7.41645889 309.06016153 -7.43419749 301.26245555 C-7.46279398 288.58374842 -7.48034479 275.9050543 -7.48876953 263.22631836 C-7.48927671 262.46897566 -7.48978389 261.71163296 -7.49030644 260.93134048 C-7.49383207 255.55839382 -7.49696129 250.18544696 -7.5 244.8125 C-7.50346779 238.68351218 -7.50711776 232.55452454 -7.51123047 226.42553711 C-7.51173308 225.67064378 -7.5122357 224.91575045 -7.51275355 224.13798157 C-7.5215254 211.50960619 -7.54201783 198.88127529 -7.57071257 186.25292987 C-7.5878035 178.4841864 -7.59451768 170.71556948 -7.58740652 162.94680973 C-7.58269808 156.98065346 -7.59325421 151.014622 -7.60915565 145.04848099 C-7.6131338 142.61581523 -7.61207558 140.18313473 -7.60538292 137.75047493 C-7.53351105 109.43341045 -11.48620602 83.00657405 -31 61 C-31.55300781 60.36449219 -32.10601562 59.72898437 -32.67578125 59.07421875 C-46.54688936 44.14374201 -69.14612228 36.61539364 -89.06640625 35.62109375 C-116.64422568 34.82845806 -142.61918414 42.70471397 -163.046875 61.921875 C-184.79902616 85.06616383 -184.31051889 117.86301883 -184.25537109 147.52001953 C-184.25812776 150.01902887 -184.26181173 152.51803732 -184.26634216 155.01704407 C-184.27439229 160.35601292 -184.27680332 165.69493797 -184.27439499 171.03390884 C-184.27127048 178.76365227 -184.2830275 186.49332385 -184.29894479 194.22304903 C-184.32478614 206.7844351 -184.34487031 219.34582121 -184.35839844 231.90722656 C-184.35961399 233.03023701 -184.35961399 233.03023701 -184.3608541 234.17593454 C-184.37209948 244.82348599 -184.37736391 255.47103219 -184.38024123 266.11858879 C-184.38044522 266.87029433 -184.38064921 267.62199988 -184.38085938 268.39648438 C-184.38105931 269.14725975 -184.38125925 269.89803512 -184.38146524 270.67156126 C-184.38520175 283.20411981 -184.40430134 295.73659927 -184.43595374 308.26911819 C-184.45481353 315.9785552 -184.46086396 323.68778893 -184.45013656 331.39724259 C-184.44305473 337.29903291 -184.45662524 343.20066226 -184.47775459 349.10242271 C-184.48307204 351.51706995 -184.4815875 353.93174343 -184.47271919 356.34638023 C-184.4615711 359.64834292 -184.4750612 362.94934675 -184.49447632 366.25125122 C-184.48535166 367.20067223 -184.476227 368.15009323 -184.46682584 369.12828457 C-184.57356772 378.49015065 -187.4805019 386.32643334 -193.9453125 393.1796875 C-202.2221193 400.51237185 -210.98231051 403.48802106 -221.94921875 403.2421875 C-232.18492067 402.42962218 -240.16252888 397.83747112 -247.375 390.625 C-252.19576751 382.83760633 -254.12114971 375.70439773 -254.13142776 366.52962971 C-254.13526891 365.23909414 -254.13911005 363.94855857 -254.1430676 362.61891586 C-254.14228745 361.19388595 -254.14140868 359.76885609 -254.14044189 358.34382629 C-254.14302693 356.82443548 -254.14604048 355.30504535 -254.1494453 353.78565615 C-254.15750225 349.61326484 -254.15930414 345.44089075 -254.16004276 341.26849258 C-254.16189558 336.76731842 -254.16944405 332.26615314 -254.17617798 327.76498413 C-254.18975234 317.92400683 -254.19578456 308.08303361 -254.20018864 298.2420485 C-254.20295246 292.09599805 -254.20719006 285.94994916 -254.21169281 279.80389977 C-254.22388408 262.78335704 -254.23418382 245.76281556 -254.2375679 228.74226856 C-254.23778747 227.65319792 -254.23800703 226.56412728 -254.23823325 225.44205449 C-254.23845153 224.35039734 -254.23866981 223.25874018 -254.2388947 222.13400251 C-254.23933817 219.92193592 -254.23978473 217.70986932 -254.24023438 215.49780273 C-254.2404558 214.40054431 -254.24067723 213.30328588 -254.24090537 212.1727772 C-254.24485316 194.39438991 -254.26230724 176.61604361 -254.2855939 158.83767215 C-254.30931535 140.5798171 -254.32177011 122.3219826 -254.32293582 104.06411189 C-254.32385211 93.81503007 -254.32959286 83.56600168 -254.34775543 73.31693459 C-254.36316709 64.58953109 -254.36827056 55.86219753 -254.36001733 47.13478301 C-254.35611468 42.68381519 -254.35702166 38.23298817 -254.37107468 33.78203773 C-254.38383646 29.70267045 -254.38259618 25.62354944 -254.37048396 21.54418238 C-254.36853091 20.07311013 -254.37158721 18.6020203 -254.38032833 17.13097272 C-254.44489988 5.52378509 -253.78349451 -4.90277525 -246.0078125 -13.99609375 C-238.13637715 -21.85221502 -228.95736226 -25.03592732 -217.9375 -25.375 C-206.62263609 -25.02369763 -199.22520821 -21.10645348 -191.25 -13.3125 C-183.52415595 -3.02877515 -184.19812629 9.73495773 -184 22 C-183.54544434 21.46842285 -183.09088867 20.9368457 -182.62255859 20.38916016 C-157.97113928 -8.31271806 -125.71404666 -23.48994446 -88.17822266 -26.50146484 C-56.24612712 -28.68285077 -25.05411565 -20.48219674 0 0 Z " fill="#A7A9AC" transform="translate(7923,1704)"/>
<path d="M0 0 C11.62806992 12.72713135 15.39928141 28.26376295 15.32088184 45.07149982 C15.32408832 46.10652896 15.3272948 47.1415581 15.33059844 48.20795175 C15.33887425 51.66280572 15.33298256 55.11748524 15.32710266 58.57234192 C15.33012444 61.07973761 15.33401406 63.58713238 15.33869523 66.09452552 C15.34683456 71.53930454 15.34877679 76.98403099 15.34519196 82.42881393 C15.33987513 90.5256682 15.3459901 98.62248617 15.35427489 106.71933649 C15.36950371 122.02301712 15.37122111 137.32668118 15.36875186 152.63036779 C15.36691818 164.44921032 15.3686804 176.26804742 15.3729763 188.08688927 C15.37357871 189.78576515 15.37417991 191.48464103 15.37477991 193.18351692 C15.37568717 195.7436601 15.37659584 198.30380329 15.37751226 200.86394648 C15.38594014 224.66258522 15.39027862 248.46122192 15.38610554 272.25986195 C15.38594916 273.15676175 15.38579279 274.05366155 15.38563167 274.97774014 C15.38482591 279.52343154 15.38398013 284.06912293 15.38311837 288.61481432 C15.38294728 289.51757913 15.38277619 290.42034395 15.38259992 291.35046528 C15.38225326 293.17607428 15.38190474 295.00168328 15.38155433 296.82729228 C15.37619729 325.23293695 15.38412774 353.63855058 15.40258789 382.04418945 C15.4233111 413.9694026 15.43403 445.89459652 15.4300124 477.81981677 C15.42961707 481.22491149 15.42925552 484.63000621 15.42891502 488.03510094 C15.42882429 488.873501 15.42873356 489.71190107 15.42864008 490.5757072 C15.42747489 503.22334448 15.43411645 515.87096232 15.44472694 528.51859474 C15.45678418 542.90526977 15.45833185 557.29190202 15.44593678 571.6785777 C15.439314 579.72525404 15.4409258 587.77182804 15.45452529 595.81849617 C15.46375655 601.8328966 15.45723836 607.84717303 15.44467749 613.86157187 C15.4420257 616.29014358 15.44441219 618.71872725 15.45241336 621.14728723 C15.51786893 642.50087966 14.22865931 661.85504568 -1.48828125 678.078125 C-15.73232697 690.79764826 -31.81938912 693.21802412 -50.20605469 692.47509766 C-63.67658253 691.42128085 -77.17699528 683.62737009 -86.43359375 673.94921875 C-99.88564207 657.27098325 -99.37584118 637.85913664 -99.31454468 617.55273438 C-99.31800512 615.05084784 -99.32277227 612.54896284 -99.32872641 610.04708099 C-99.33861191 604.62668375 -99.33926574 599.20640933 -99.33158493 593.78601074 C-99.32019424 585.72544665 -99.32606104 577.66495773 -99.33520985 569.60439408 C-99.35097631 555.20468755 -99.34965019 540.80502105 -99.34097311 526.40531075 C-99.33341709 513.80365015 -99.3314607 501.2020042 -99.33504105 488.6003418 C-99.33538478 487.34496452 -99.33538478 487.34496452 -99.33573546 486.06422609 C-99.33666952 482.66663434 -99.33762473 479.2690426 -99.33861475 475.87145087 C-99.34778528 444.01985614 -99.33948163 412.16828685 -99.32332406 380.31669605 C-99.30908796 352.03793999 -99.31036187 323.75922446 -99.32470703 295.48046875 C-99.34078186 263.68596017 -99.34713483 231.89147406 -99.33787024 200.09696198 C-99.33690813 196.70567322 -99.33596961 193.31438446 -99.33504105 189.9230957 C-99.33480381 189.08811536 -99.33456658 188.25313502 -99.33432216 187.39285225 C-99.33091426 174.80120196 -99.33489215 162.20956795 -99.34247971 149.61791992 C-99.35106695 135.2961453 -99.3488928 120.97441686 -99.33263747 106.65264797 C-99.32384659 98.64393438 -99.3232275 90.63532083 -99.334576 82.62660989 C-99.34212278 76.63885433 -99.33390231 70.65122762 -99.31965227 64.6634798 C-99.31631014 62.24712435 -99.3179857 59.83075544 -99.32527964 57.41440868 C-99.41227529 26.19134963 -99.41227529 26.19134963 -92.37109375 12.94921875 C-92.02667236 12.28607666 -91.68225098 11.62293457 -91.32739258 10.93969727 C-84.65736904 -1.25874107 -73.43810597 -9.83357995 -60.30859375 -14.11328125 C-39.03274782 -19.93851286 -16.29678628 -15.30556851 0 0 Z " fill="#2384C6" transform="translate(854.93359375,1385.73828125)"/>
<path d="M0 0 C0.53496094 0.42216797 1.06992187 0.84433594 1.62109375 1.27929688 C19.94403072 15.88931256 34.92767009 32.94392187 47 53 C47.37366699 53.61568848 47.74733398 54.23137695 48.13232422 54.86572266 C62.84821856 79.3336425 71.98303153 106.98373132 77 135 C77.24556641 136.30203369 77.24556641 136.30203369 77.49609375 137.63037109 C82.6666558 166.07380388 82.40184077 198.62205117 77 227 C76.82307617 227.95519531 76.64615234 228.91039062 76.46386719 229.89453125 C66.69461792 281.38977952 42.05209797 332.13850019 -1.64453125 363.08984375 C-43.39053582 391.52105988 -92.30778973 401.12317923 -142 392 C-148.44109252 390.68446436 -154.73532933 388.98684428 -161 387 C-161.67933594 386.78504883 -162.35867188 386.57009766 -163.05859375 386.34863281 C-180.16504875 380.77152833 -195.80535889 371.97908411 -210 361 C-210.91652344 360.30648437 -211.83304688 359.61296875 -212.77734375 358.8984375 C-237.35139235 339.62891921 -254.92204382 314.1057437 -268 286 C-268.52078125 284.88753906 -269.0415625 283.77507812 -269.578125 282.62890625 C-296.64679306 222.15180315 -296.86625153 149.06208826 -274.06640625 87.23828125 C-265.95951012 66.18270415 -255.04610856 45.91655716 -240 29 C-239.28457031 28.17628906 -238.56914062 27.35257813 -237.83203125 26.50390625 C-235.59327144 23.96400352 -233.310112 21.47512 -231 19 C-230.20335938 18.13761719 -229.40671875 17.27523438 -228.5859375 16.38671875 C-170.11657027 -44.64399539 -66.37584804 -52.75819862 0 0 Z M-180.94140625 58.6328125 C-214.11965323 96.78464868 -222.73212289 150.37222789 -219.79785156 199.37597656 C-216.23397461 243.36632188 -200.66361745 284.65678262 -167.25 314.3125 C-146.71128257 330.78626294 -119.9180402 335.79472182 -94.18359375 333.6875 C-73.39232312 331.25932241 -55.07700373 324.48086535 -39 311 C-38.20207031 310.35289062 -37.40414062 309.70578125 -36.58203125 309.0390625 C-13.20688843 289.32508663 -2.40849068 260.27889545 4.6875 231.5 C4.985354 230.30149414 5.28320801 229.10298828 5.59008789 227.86816406 C9.37325254 212.07326353 10.40920195 196.91422055 10.375 180.75 C10.37445618 179.78222626 10.37391235 178.81445251 10.37335205 177.81735229 C10.26565915 136.03293748 0.12305466 95.36981567 -26 62 C-26.63164062 61.18402344 -27.26328125 60.36804687 -27.9140625 59.52734375 C-43.33352824 40.92556274 -66.34513744 30.11288496 -90 27 C-124.8572033 24.58779207 -156.11896522 32.96131413 -180.94140625 58.6328125 Z " fill="#A7A9AC" transform="translate(7495,1712)"/>
<path d="M0 0 C6.2432894 6.82477223 8.30653929 15.67303126 8.828125 24.80078125 C7.98078294 32.18476202 5.15876606 39.67297525 -0.609375 44.61328125 C-8.90984621 50.56689304 -15.29635732 53.85737607 -25.609375 52.61328125 C-30.60276754 51.27160922 -35.45422005 49.6125556 -40.32492065 47.88320923 C-44.30675101 46.47091631 -48.30599416 45.10975765 -52.3046875 43.74609375 C-53.09791916 43.47450943 -53.89115082 43.20292511 -54.7084198 42.92311096 C-61.76010756 40.52481245 -68.86432201 38.40202816 -76.046875 36.42578125 C-77.05693604 36.14726318 -78.06699707 35.86874512 -79.10766602 35.58178711 C-105.2007302 28.51165704 -134.08211048 32.7314184 -157.5234375 46.0859375 C-190.36396784 65.8011352 -208.00774223 100.67970685 -217.609375 136.61328125 C-230.03311249 188.25563854 -221.48659653 246.66112787 -194.47900391 292.53320312 C-192.41846311 295.76413109 -190.10378822 298.70978426 -187.609375 301.61328125 C-186.90296875 302.46664063 -186.1965625 303.32 -185.46875 304.19921875 C-165.20636272 327.7914389 -135.65088605 336.86087465 -105.609375 339.61328125 C-104.42021484 339.74089844 -104.42021484 339.74089844 -103.20703125 339.87109375 C-84.44162037 340.95163564 -63.93447687 330.59684656 -47.359375 322.86328125 C-45.13801296 321.83532848 -42.91564461 320.80959477 -40.69268799 319.78509521 C-39.32593744 319.1543209 -37.9602759 318.5211798 -36.59588623 317.88531494 C-28.59136359 314.16978554 -20.66337074 313.2257231 -11.93359375 315.2265625 C-5.10571309 317.90346908 -0.7033017 322.69181497 2.7109375 329.0859375 C6.74220218 338.65666727 6.88323307 349.5213436 3.421875 359.3125 C-3.36251945 374.44889519 -17.08563493 382.51942151 -31.89990234 388.54492188 C-41.92084993 392.34161187 -52.04642641 394.84752861 -62.609375 396.61328125 C-63.6907373 396.79431396 -64.77209961 396.97534668 -65.88623047 397.16186523 C-76.62876768 398.77193556 -87.20259982 398.97115682 -98.046875 398.92578125 C-98.97312683 398.9236261 -99.89937866 398.92147095 -100.85369873 398.91925049 C-130.76512712 398.80770083 -159.42639484 394.71488026 -186.609375 381.61328125 C-187.34768555 381.25862793 -188.08599609 380.90397461 -188.84667969 380.53857422 C-199.16035186 375.50403464 -208.51877319 369.60296942 -217.609375 362.61328125 C-218.516875 361.93007812 -219.424375 361.246875 -220.359375 360.54296875 C-250.47602682 336.96951807 -269.34754713 305.3335597 -281.609375 269.61328125 C-281.90473145 268.75331543 -282.20008789 267.89334961 -282.50439453 267.00732422 C-289.2991729 246.80739017 -293.69818221 225.34657557 -293.8125 203.99609375 C-293.81955963 203.10954102 -293.82661926 202.22298828 -293.83389282 201.30957031 C-294.2366407 135.73677838 -282.08991831 68.1593066 -234.609375 19.61328125 C-233.88621094 18.82824219 -233.16304687 18.04320312 -232.41796875 17.234375 C-203.19867323 -13.75914719 -157.20784787 -30.0973727 -115.32421875 -31.359375 C-76.35439342 -31.85157089 -29.83398817 -28.16295878 0 0 Z " fill="#A7A9AC" transform="translate(7125.609375,1708.38671875)"/>
<path d="M0 0 C4.19133637 3.49099828 8.09820428 7.19123447 12 11 C12.74378906 11.6703125 13.48757813 12.340625 14.25390625 13.03125 C26.40372621 24.25378429 33.25257844 40.57564815 34.23828125 56.9609375 C34.80768312 79.48167506 27.70379532 97.07803252 12.43359375 113.8125 C0.03321891 126.79496925 -15.16860125 134.85987272 -33.38183594 135.29296875 C-53.24475445 135.45257436 -70.46554594 130.01256466 -84.99389648 116.06591797 C-86.34423839 114.72553058 -87.67281807 113.36332304 -89 112 C-89.67675781 111.32066406 -90.35351562 110.64132812 -91.05078125 109.94140625 C-103.2877427 96.89045623 -109.80213253 78.41334465 -109.24609375 60.5546875 C-107.65618473 44.04991764 -102.63294228 29.9588984 -92 17 C-91.29875 16.13503906 -90.5975 15.27007813 -89.875 14.37890625 C-68.36843949 -10.85289778 -28.26758903 -19.9270068 0 0 Z " fill="#2384C6" transform="translate(849,1145)"/>
<path d="M0 0 C9.91867223 6.24508992 16.98114514 14.45162979 20.6328125 25.7109375 C23.26206181 37.27963447 21.36253076 47.81591087 15.44921875 58.00390625 C9.35029246 67.09327382 0.86443608 73.59793806 -9.84765625 76.34765625 C-21.49233663 78.02665668 -32.48829077 76.61320735 -42.1171875 69.5234375 C-51.33350083 61.64282176 -58.7885508 53.08005381 -59.80859375 40.515625 C-60.29745041 29.37191528 -58.16225615 20.77102904 -51.3671875 11.7109375 C-50.284375 10.2259375 -50.284375 10.2259375 -49.1796875 8.7109375 C-37.18920975 -5.21113697 -15.9823732 -8.70327253 0 0 Z " fill="#A7A9AC" transform="translate(6784.3671875,2030.2890625)"/>
</svg>
