<?xml version="1.0" encoding="UTF-8"?>
<svg version="1.1" xmlns="http://www.w3.org/2000/svg" width="216" height="105">
<path d="M0 0 C3.63 0 7.26 0 11 0 C10.34 5.28 9.68 10.56 9 16 C10.65 15.01 12.3 14.02 14 13 C17.75676838 12.45213795 19.40590181 12.63480435 22.65625 14.6328125 C25 17 25 17 25.59375 19.92578125 C24.95373665 43.04626335 24.95373665 43.04626335 21 47 C19.31391034 47.07205511 17.62499341 47.08386068 15.9375 47.0625 C15.01839844 47.05347656 14.09929687 47.04445312 13.15234375 47.03515625 C12.44207031 47.02355469 11.73179687 47.01195312 11 47 C11.13277344 46.10539062 11.26554687 45.21078125 11.40234375 44.2890625 C12.43727783 37.20316349 13.37533648 30.13431499 14 23 C11.58414426 23.03093173 11.58414426 23.03093173 9 24 C6.33514973 28.37274683 5.23726325 32.76259097 4.375 37.75 C3.10472973 44.79054054 3.10472973 44.79054054 2 47 C-1.3 47 -4.6 47 -8 47 C-7.28176135 37.1469796 -5.31308346 27.55828775 -3.4375 17.875 C-3.10441547 16.13809792 -2.7717298 14.40111931 -2.43945312 12.6640625 C-1.63090029 8.4418114 -0.81694831 4.22063437 0 0 Z " fill="#E20512" transform="translate(191,26)"/>
<path d="M0 0 C0.495 0.495 0.495 0.495 1 1 C0.82364548 3.69082872 0.38164079 6.32851446 0 9 C-1.11375 9.2475 -2.2275 9.495 -3.375 9.75 C-7.04615198 10.61005339 -7.04615198 10.61005339 -8.4375 13.125 C-8.623125 13.74375 -8.80875 14.3625 -9 15 C-7.02 15 -5.04 15 -3 15 C-3.33 17.64 -3.66 20.28 -4 23 C-5.98 23.33 -7.96 23.66 -10 24 C-10.20363159 25.08885498 -10.20363159 25.08885498 -10.41137695 26.19970703 C-11.03584781 29.50995753 -11.67403488 32.81742139 -12.3125 36.125 C-12.63250977 37.83816406 -12.63250977 37.83816406 -12.95898438 39.5859375 C-15.53725387 52.8236197 -15.53725387 52.8236197 -20.6875 57.375 C-24.8746984 59.42909733 -27.3926927 59.31774533 -32 59 C-33.15941038 55.52176885 -32.70820884 53.54104422 -32 50 C-29.525 49.505 -29.525 49.505 -27 49 C-24.4834504 40.41517477 -22.67086351 31.78092097 -21 23 C-22.32 23 -23.64 23 -25 23 C-24.67 20.69 -24.34 18.38 -24 16 C-22.35 15.67 -20.7 15.34 -19 15 C-18.9175 14.13375 -18.835 13.2675 -18.75 12.375 C-17.61024521 7.24610344 -15.60499174 4.09431255 -11.25 1.125 C-7.18544217 -0.28196232 -4.28284645 -0.29036247 0 0 Z " fill="#1C2650" transform="translate(84,25)"/>
<path d="M0 0 C2.54016968 2.08424179 3.83370222 3.57654203 4.22290039 6.90795898 C4.22222707 12.83926039 3.3250036 18.29246745 2 24.0625 C1.71382812 25.3609082 1.71382812 25.3609082 1.421875 26.68554688 C0.95630821 28.79223661 0.47935439 30.89640464 0 33 C-3.63 33 -7.26 33 -11 33 C-9.02 20.625 -9.02 20.625 -7 8 C-13.04992428 9.27242093 -13.04992428 9.27242093 -14.7734375 13.1328125 C-16.12993609 16.96397763 -16.92991739 20.87827497 -17.625 24.875 C-18.88197674 31.88197674 -18.88197674 31.88197674 -20 33 C-21.68608966 33.07205511 -23.37500659 33.08386068 -25.0625 33.0625 C-25.98160156 33.05347656 -26.90070312 33.04445312 -27.84765625 33.03515625 C-28.55792969 33.02355469 -29.26820312 33.01195312 -30 33 C-28.46117491 21.90426122 -26.25279563 10.9687088 -24 0 C-21.03 0 -18.06 0 -15 0 C-14.67 0.99 -14.34 1.98 -14 3 C-13.401875 2.525625 -12.80375 2.05125 -12.1875 1.5625 C-7.97841838 -1.44398687 -4.90806872 -1.20549056 0 0 Z " fill="#1C2650" transform="translate(54,40)"/>
<path d="M0 0 C4.14129821 4.52954491 4.44431264 8.37958926 4.30859375 14.3671875 C3.75262962 19.44827737 2.08310715 23.2890319 -1.71875 26.75390625 C-7.52261694 31.06991747 -12.83817764 31.99069503 -20 31.1875 C-24.40617281 29.02446971 -27.1644597 26.77635076 -29 22.1875 C-29.98369668 14.93273702 -28.25575616 9.49594237 -24.125 3.4375 C-17.67204265 -3.39504308 -8.14372117 -4.92016487 0 0 Z M-14.6875 7.5 C-17.58465903 10.86696861 -18.15236815 12.35925569 -18.1875 16.6875 C-18.20167969 17.4815625 -18.21585938 18.275625 -18.23046875 19.09375 C-18.19666303 21.40783317 -18.19666303 21.40783317 -16 23.1875 C-12.99706929 23.25698565 -12.99706929 23.25698565 -10 22.1875 C-6.91083137 18.56571609 -6.25567244 14.87482813 -6 10.1875 C-6.79743425 7.43272714 -7.35167142 6.56755468 -9.8125 5.125 C-12.31419866 4.9664827 -12.31419866 4.9664827 -14.6875 7.5 Z " fill="#1C2650" transform="translate(106,41.8125)"/>
<path d="M0 0 C2.41558467 2.49107169 2.94250514 3.41568279 3.25 6.875 C2.9578617 10.59976332 2.39752014 12.20094371 0 15.0625 C-5.62857076 18.39369494 -10.56586978 18.41204027 -17 18.0625 C-16.67 19.0525 -16.34 20.0425 -16 21.0625 C-11.72000646 23.20249677 -6.50951645 22.15571611 -2 21.0625 C-0.64560332 23.77129335 -0.93498549 26.07183268 -1 29.0625 C-6.8092304 31.64438018 -12.76503001 31.7381689 -19 31.0625 C-23.20149435 29.21973932 -24.56780514 27.77353025 -26.9375 23.875 C-28.55977832 18.05388366 -27.8671609 13.51945589 -25.875 7.875 C-19.83310063 -1.18784905 -9.99593347 -6.45570703 0 0 Z M-16 8.0625 C-15.67 9.0525 -15.34 10.0425 -15 11.0625 C-12.36 10.4025 -9.72 9.7425 -7 9.0625 C-7.33 7.7425 -7.66 6.4225 -8 5.0625 C-12.26826873 5.0625 -12.93882432 5.43863513 -16 8.0625 Z " fill="#E20513" transform="translate(157,41.9375)"/>
<path d="M0 0 C-0.50450684 0.44166504 -1.00901367 0.88333008 -1.52880859 1.33837891 C-13.16619986 10.90064541 -13.16619986 10.90064541 -18.875 24.125 C-18.93088693 26.41636398 -18.97195705 28.70812613 -19 31 C-19.40801397 33.79599751 -19.97586221 36.54917925 -20.5625 39.3125 C-20.81128906 40.56675781 -21.06007813 41.82101563 -21.31640625 43.11328125 C-22 46 -22 46 -23 47 C-24.68608966 47.07205511 -26.37500659 47.08386068 -28.0625 47.0625 C-28.98160156 47.05347656 -29.90070312 47.04445312 -30.84765625 47.03515625 C-31.55792969 47.02355469 -32.26820312 47.01195312 -33 47 C-32.68926976 44.77058595 -32.37634375 42.54147788 -32.0625 40.3125 C-31.80146484 38.45044922 -31.80146484 38.45044922 -31.53515625 36.55078125 C-31 33 -31 33 -30.0625 30.5546875 C-29.95311186 26.08344718 -33.21288003 23.15401506 -35.9375 19.8125 C-37.07549889 18.38459748 -38.20981386 16.95374864 -39.33984375 15.51953125 C-39.84894287 14.89151611 -40.35804199 14.26350098 -40.88256836 13.61645508 C-42 12 -42 12 -42 10 C-41.40832031 10.20496094 -40.81664062 10.40992188 -40.20703125 10.62109375 C-34.21697902 12.79808418 -34.21697902 12.79808418 -28 14 C-27.34 13.34 -26.68 12.68 -26 12 C-26.66 11.01 -27.32 10.02 -28 9 C-28.50734682 5.70224568 -28.31057067 4.44196595 -26.375 1.6875 C-24 0 -24 0 -21.0625 -0.5625 C-17.05576432 0.17343104 -15.59065185 1.9521743 -13 5 C-12.31292969 4.55527344 -11.62585938 4.11054688 -10.91796875 3.65234375 C-10.01691406 3.08644531 -9.11585937 2.52054688 -8.1875 1.9375 C-7.29417969 1.36902344 -6.40085938 0.80054687 -5.48046875 0.21484375 C-3 -1 -3 -1 0 0 Z " fill="#E40512" transform="translate(43,26)"/>
<path d="M0 0 C-0.33 2.97 -0.66 5.94 -1 9 C0.98 9 2.96 9 5 9 C4.67 11.64 4.34 14.28 4 17 C1.69 17 -0.62 17 -3 17 C-3.66 22.28 -4.32 27.56 -5 33 C-3.35 33 -1.7 33 0 33 C-0.875 40.875 -0.875 40.875 -2 42 C-6.50505269 42.50056141 -10.59369405 42.77011992 -14.625 40.5625 C-18.54997718 33.2477698 -15.12110265 24.46173612 -13 17 C-14.32 17 -15.64 17 -17 17 C-16.67 14.36 -16.34 11.72 -16 9 C-15.38125 8.938125 -14.7625 8.87625 -14.125 8.8125 C-13.073125 8.4103125 -13.073125 8.4103125 -12 8 C-11.7525 7.21625 -11.505 6.4325 -11.25 5.625 C-9.7707763 2.51863022 -9.10900093 2.35617121 -6 1.1875 C-3.86085671 0.47576299 -2.25577719 0 0 0 Z " fill="#E20512" transform="translate(128,31)"/>
<path d="M0 0 C-0.66 2.97 -1.32 5.94 -2 9 C-3.381875 8.896875 -4.76375 8.79375 -6.1875 8.6875 C-9.76311332 8.71569884 -10.89740175 8.93718474 -14.0625 10.875 C-16.77942847 15.25714269 -16.43904133 18.97541592 -16 24 C-12.03611362 24.07622858 -8.8726592 23.9681648 -5 23 C-5 25.97 -5 28.94 -5 32 C-10.41192567 33.80397522 -16.62552005 33.95989615 -21.9375 31.8125 C-22.618125 31.214375 -23.29875 30.61625 -24 30 C-24.763125 29.34 -25.52625 28.68 -26.3125 28 C-28.88593083 23.42501185 -28.61962502 19.13079744 -28 14 C-25.70308218 7.47191777 -21.10026599 3.12834153 -15 0 C-10.08348086 -1.80272369 -4.97932932 -1.24483233 0 0 Z " fill="#E20512" transform="translate(187,40)"/>
<path d="M0 0 C21.45 0 42.9 0 65 0 C65 1.32 65 2.64 65 4 C43.55 4 22.1 4 0 4 C0 2.68 0 1.36 0 0 Z " fill="#1C2550" transform="translate(148,79)"/>
<path d="M0 0 C-0.68870718 3.97021668 -1.3825741 7.93949268 -2.08129883 11.90795898 C-2.31840807 13.25894539 -2.55408976 14.61018314 -2.78833008 15.96166992 C-3.12468715 17.90087868 -3.46655584 19.83912892 -3.80859375 21.77734375 C-4.01282959 22.94515381 -4.21706543 24.11296387 -4.42749023 25.31616211 C-5 28 -5 28 -6 29 C-7.68608966 29.07205511 -9.37500659 29.08386068 -11.0625 29.0625 C-11.98160156 29.05347656 -12.90070312 29.04445313 -13.84765625 29.03515625 C-14.55792969 29.02355469 -15.26820312 29.01195313 -16 29 C-15.71632132 26.76980273 -15.42272612 24.54086546 -15.125 22.3125 C-14.96257813 21.07113281 -14.80015625 19.82976563 -14.6328125 18.55078125 C-13.51258822 12.26507836 -11.57228215 9.17338728 -7 4.6875 C-6.113125 3.80449219 -5.22625 2.92148437 -4.3125 2.01171875 C-2 0 -2 0 0 0 Z " fill="#1C2650" transform="translate(26,44)"/>
<path d="M0 0 C12.87 0 25.74 0 39 0 C39 1.32 39 2.64 39 4 C26.13 4 13.26 4 0 4 C0 2.68 0 1.36 0 0 Z " fill="#1C2650" transform="translate(10,79)"/>
<path d="M0 0 C2.375 2 2.375 2 4 4 C2.78836152 7.63491543 1.89228938 7.95246215 -1.375 9.75 C-2.16648437 10.19859375 -2.95796875 10.6471875 -3.7734375 11.109375 C-6 12 -6 12 -9 11 C-9.75 7.75 -9.75 7.75 -10 4 C-7.34473796 -0.14220879 -4.76467822 -0.79411304 0 0 Z " fill="#1A2650" transform="translate(25,26)"/>
<path d="M0 0 C0.99 0 1.98 0 3 0 C3.33 0.99 3.66 1.98 4 3 C4.66 2.01 5.32 1.02 6 0 C6.66 0 7.32 0 8 0 C7.67 2.97 7.34 5.94 7 9 C4.36 9 1.72 9 -1 9 C-0.67 6.03 -0.34 3.06 0 0 Z " fill="#E20512" transform="translate(127,76)"/>
<path d="M0 0 C2.97 0.495 2.97 0.495 6 1 C6.125 3.875 6.125 3.875 6 7 C4 9 4 9 1.375 9.125 C0.59125 9.08375 -0.1925 9.0425 -1 9 C-0.67 6.03 -0.34 3.06 0 0 Z M2 3 C2.33 4.32 2.66 5.64 3 7 C3.33 5.68 3.66 4.36 4 3 C3.34 3 2.68 3 2 3 Z " fill="#E20512" transform="translate(106,76)"/>
<path d="M0 0 C1.98 0 3.96 0 6 0 C5.67 2.97 5.34 5.94 5 9 C2.69 9 0.38 9 -2 9 C-1.34 6.03 -0.68 3.06 0 0 Z " fill="#E20513" transform="translate(117,76)"/>
<path d="M0 0 C0.66 0 1.32 0 2 0 C2.33 2.97 2.66 5.94 3 9 C0.36 9 -2.28 9 -5 9 C-3.35 6.03 -1.7 3.06 0 0 Z " fill="#E20512" transform="translate(77,76)"/>
<path d="M0 0 C0.66 0.33 1.32 0.66 2 1 C2.59355614 3.64860427 2.74209269 6.29197322 3 9 C0.36 9 -2.28 9 -5 9 C-4.3566152 7.686298 -3.71021785 6.37407102 -3.0625 5.0625 C-2.70285156 4.33160156 -2.34320313 3.60070312 -1.97265625 2.84765625 C-1 1 -1 1 0 0 Z " fill="#E20512" transform="translate(98,76)"/>
<path d="M0 0 C1.32 0.66 2.64 1.32 4 2 C4 2.66 4 3.32 4 4 C3.01 4 2.02 4 1 4 C1 4.66 1 5.32 1 6 C1.66 6 2.32 6 3 6 C2.67 6.99 2.34 7.98 2 9 C0.35 9 -1.3 9 -3 9 C-3.36923077 3.46153846 -3.36923077 3.46153846 -1.5 1.125 C-1.005 0.75375 -0.51 0.3825 0 0 Z " fill="#E20513" transform="translate(87,76)"/>
<path d="M0 0 C1.32 0.33 2.64 0.66 4 1 C4.99 0.67 5.98 0.34 7 0 C5.80100302 3.0831351 4.52299523 6.06279492 3 9 C2.34 9 1.68 9 1 9 C0.67 6.03 0.34 3.06 0 0 Z " fill="#E20513" transform="translate(139,76)"/>
</svg>
