<?xml version="1.0" encoding="UTF-8"?>
<!DOCTYPE svg PUBLIC "-//W3C//DTD SVG 1.1//EN" "http://www.w3.org/Graphics/SVG/1.1/DTD/svg11.dtd">
<svg xmlns="http://www.w3.org/2000/svg" version="1.1" width="458px" height="200px" style="shape-rendering:geometricPrecision; text-rendering:geometricPrecision; image-rendering:optimizeQuality; fill-rule:evenodd; clip-rule:evenodd" xmlns:xlink="http://www.w3.org/1999/xlink">
<g><path style="opacity:0.445" fill="#b3302d" d="M 173.5,34.5 C 173.665,31.1501 173.498,27.8168 173,24.5C 169.606,23.5442 166.106,23.2108 162.5,23.5C 162.5,27.1667 162.5,30.8333 162.5,34.5C 162.167,34.5 161.833,34.5 161.5,34.5C 161.5,30.5 161.5,26.5 161.5,22.5C 165.833,22.5 170.167,22.5 174.5,22.5C 174.817,26.7016 174.483,30.7016 173.5,34.5 Z"/></g>
<g><path style="opacity:1" fill="#dd0e0e" d="M 146.5,24.5 C 148.511,32.5121 145.511,35.8454 137.5,34.5C 136.676,31.2356 136.342,27.9023 136.5,24.5C 139.833,24.5 143.167,24.5 146.5,24.5 Z"/></g>
<g><path style="opacity:0.412" fill="#be2a2e" d="M 136.5,22.5 C 140.167,22.5 143.833,22.5 147.5,22.5C 147.666,26.5138 147.499,30.5138 147,34.5C 143.066,35.821 139.233,35.821 135.5,34.5C 136.167,34.5 136.833,34.5 137.5,34.5C 145.511,35.8454 148.511,32.5121 146.5,24.5C 143.167,23.8333 139.833,23.1667 136.5,22.5 Z"/></g>
<g><path style="opacity:0.69" fill="#cc1f23" d="M 136.5,22.5 C 139.833,23.1667 143.167,23.8333 146.5,24.5C 143.167,24.5 139.833,24.5 136.5,24.5C 136.342,27.9023 136.676,31.2356 137.5,34.5C 136.833,34.5 136.167,34.5 135.5,34.5C 134.838,32.6965 134.505,30.6965 134.5,28.5C 134.539,26.0478 135.206,24.0478 136.5,22.5 Z"/></g>
<g><path style="opacity:1" fill="#da1312" d="M 173.5,34.5 C 169.833,35.8333 166.167,35.8333 162.5,34.5C 162.5,30.8333 162.5,27.1667 162.5,23.5C 166.106,23.2108 169.606,23.5442 173,24.5C 173.498,27.8168 173.665,31.1501 173.5,34.5 Z"/></g>
<g><path style="opacity:0.2" fill="#af3136" d="M 133.5,35.5 C 129.629,35.185 125.962,35.5184 122.5,36.5C 122.167,36.5 121.833,36.5 121.5,36.5C 123.048,35.2057 125.048,34.5391 127.5,34.5C 129.696,34.5046 131.696,34.838 133.5,35.5 Z"/></g>
<g><path style="opacity:0.188" fill="#a82d2a" d="M 160.5,34.5 C 157.038,35.4816 153.371,35.815 149.5,35.5C 149.81,38.7131 149.477,41.7131 148.5,44.5C 148.5,41.1667 148.5,37.8333 148.5,34.5C 152.5,34.5 156.5,34.5 160.5,34.5 Z"/></g>
<g><path style="opacity:0.951" fill="#ce1d1c" d="M 160.5,34.5 C 160.833,34.5 161.167,34.5 161.5,34.5C 161.5,35.1667 161.5,35.8333 161.5,36.5C 161.167,36.5 160.833,36.5 160.5,36.5C 157.167,36.5 153.833,36.5 150.5,36.5C 150.5,39.8333 150.5,43.1667 150.5,46.5C 149.833,46.5 149.167,46.5 148.5,46.5C 147.494,45.6043 147.494,44.9377 148.5,44.5C 149.477,41.7131 149.81,38.7131 149.5,35.5C 153.371,35.815 157.038,35.4816 160.5,34.5 Z"/></g>
<g><path style="opacity:1" fill="#dc0e0e" d="M 160.5,36.5 C 160.5,39.8333 160.5,43.1667 160.5,46.5C 157.167,46.5 153.833,46.5 150.5,46.5C 150.5,43.1667 150.5,39.8333 150.5,36.5C 153.833,36.5 157.167,36.5 160.5,36.5 Z"/></g>
<g><path style="opacity:0.816" fill="#db0d0c" d="M 123.5,36.5 C 126.5,36.5 129.5,36.5 132.5,36.5C 132.5,43.5 132.5,50.5 132.5,57.5C 129.713,58.4767 126.713,58.81 123.5,58.5C 124.623,51.1486 124.623,43.8153 123.5,36.5 Z"/></g>
<g><path style="opacity:0.216" fill="#b52c29" d="M 160.5,36.5 C 160.833,36.5 161.167,36.5 161.5,36.5C 161.5,40.1667 161.5,43.8333 161.5,47.5C 156.968,47.8182 152.634,47.4849 148.5,46.5C 149.167,46.5 149.833,46.5 150.5,46.5C 153.833,46.5 157.167,46.5 160.5,46.5C 160.5,43.1667 160.5,39.8333 160.5,36.5 Z"/></g>
<g><path style="opacity:0.251" fill="#bc2826" d="M 135.5,48.5 C 139.298,47.5166 143.298,47.1832 147.5,47.5C 147.5,51.8333 147.5,56.1667 147.5,60.5C 143.333,61.4675 139.333,61.1342 135.5,59.5C 139.167,59.5 142.833,59.5 146.5,59.5C 146.5,55.8333 146.5,52.1667 146.5,48.5C 142.833,48.5 139.167,48.5 135.5,48.5 Z"/></g>
<g><path style="opacity:0.416" fill="#ba2224" d="M 121.5,36.5 C 121.833,36.5 122.167,36.5 122.5,36.5C 122.5,44.1667 122.5,51.8333 122.5,59.5C 126.167,59.5 129.833,59.5 133.5,59.5C 133.217,60.2891 132.717,60.9558 132,61.5C 128.536,61.628 125.203,61.2946 122,60.5C 121.5,52.5069 121.334,44.5069 121.5,36.5 Z"/></g>
<g><path style="opacity:0.745" fill="#c11d1c" d="M 122.5,36.5 C 125.962,35.5184 129.629,35.185 133.5,35.5C 134.304,40.1999 134.638,44.8666 134.5,49.5C 135.167,49.5 135.5,49.8333 135.5,50.5C 134.532,52.6074 134.198,54.9407 134.5,57.5C 133.833,57.5 133.167,57.5 132.5,57.5C 132.5,50.5 132.5,43.5 132.5,36.5C 129.5,36.5 126.5,36.5 123.5,36.5C 123.167,36.5 122.833,36.5 122.5,36.5 Z"/></g>
<g><path style="opacity:1" fill="#dd1313" d="M 122.5,36.5 C 122.833,36.5 123.167,36.5 123.5,36.5C 124.623,43.8153 124.623,51.1486 123.5,58.5C 126.713,58.81 129.713,58.4767 132.5,57.5C 133.167,57.5 133.833,57.5 134.5,57.5C 135.468,55.3926 135.802,53.0593 135.5,50.5C 135.5,49.8333 135.167,49.5 134.5,49.5C 134.5,48.8333 134.833,48.5 135.5,48.5C 139.167,48.5 142.833,48.5 146.5,48.5C 146.5,52.1667 146.5,55.8333 146.5,59.5C 142.833,59.5 139.167,59.5 135.5,59.5C 134.833,59.5 134.167,59.5 133.5,59.5C 129.833,59.5 126.167,59.5 122.5,59.5C 122.5,51.8333 122.5,44.1667 122.5,36.5 Z"/></g>
<g><path style="opacity:0.717" fill="#060606" d="M 172.5,86.5 C 175.598,86.4125 175.932,86.9125 173.5,88C 174.793,88.49 176.127,88.6567 177.5,88.5C 178.5,89.8333 179.5,91.1667 180.5,92.5C 179.504,92.4142 178.671,92.7476 178,93.5C 176.961,92.2899 175.794,91.2899 174.5,90.5C 169.312,94.337 167.145,99.6704 168,106.5C 166.667,107.833 165.333,107.833 164,106.5C 163.167,92.1551 163.334,77.8217 164.5,63.5C 165.5,62.1667 166.5,62.1667 167.5,63.5C 168.332,72.1475 168.832,80.8142 169,89.5C 170.039,88.2899 171.206,87.2899 172.5,86.5 Z"/></g>
<g><path style="opacity:0.516" fill="#070707" d="M 330.5,87.5 C 328.725,85.3222 327.891,82.9889 328,80.5C 327.71,82.1107 326.877,83.444 325.5,84.5C 325.5,82.8333 325.5,81.1667 325.5,79.5C 317.761,79.5928 314.094,83.5928 314.5,91.5C 313.733,92.172 313.066,93.0053 312.5,94C 313.898,98.2042 313.731,102.371 312,106.5C 311.809,104.292 311.309,102.292 310.5,100.5C 310.334,92.16 310.5,83.8267 311,75.5C 312.011,74.6634 313.178,74.33 314.5,74.5C 314.34,76.1992 314.506,77.8659 315,79.5C 315.5,77.6667 316.667,76.5 318.5,76C 320.813,75.338 323.146,74.838 325.5,74.5C 325.5,70.8333 325.5,67.1667 325.5,63.5C 327.167,63.5 328.833,63.5 330.5,63.5C 330.5,71.5 330.5,79.5 330.5,87.5 Z"/></g>
<g><path style="opacity:0.635" fill="#070707" d="M 162.5,90.5 C 160.784,90.3713 159.117,90.038 157.5,89.5C 156.462,79.6363 151.129,76.303 141.5,79.5C 140.207,78.3552 139.041,78.6885 138,80.5C 137.536,79.9056 137.369,79.2389 137.5,78.5C 138.749,76.8639 140.416,75.6972 142.5,75C 154.81,72.8042 161.476,77.9709 162.5,90.5 Z"/></g>
<g><path style="opacity:0.324" fill="#040404" d="M 195.5,78.5 C 196.365,78.5639 197.365,78.8973 198.5,79.5C 197.488,80.8717 196.488,82.205 195.5,83.5C 193.958,82.6993 192.292,82.366 190.5,82.5C 190.108,80.8211 189.608,79.1545 189,77.5C 184.591,80.746 180.758,84.4126 177.5,88.5C 176.127,88.6567 174.793,88.49 173.5,88C 175.932,86.9125 175.598,86.4125 172.5,86.5C 177.268,82.9088 181.935,79.0755 186.5,75C 188.108,74.342 189.275,74.842 190,76.5C 190.725,74.842 191.892,74.342 193.5,75C 194.085,76.3024 194.751,77.469 195.5,78.5 Z"/></g>
<g><path style="opacity:0.511" fill="#060605" d="M 215.5,83.5 C 214.5,84.8333 213.5,84.8333 212.5,83.5C 209.023,78.5728 204.356,77.2395 198.5,79.5C 197.365,78.8973 196.365,78.5639 195.5,78.5C 196.122,76.665 197.456,75.4983 199.5,75C 205.076,73.5284 209.909,74.6951 214,78.5C 215.009,80.0249 215.509,81.6916 215.5,83.5 Z"/></g>
<g><path style="opacity:0.874" fill="#0d0d0c" d="M 130.5,79.5 C 130.631,78.6236 130.298,77.9569 129.5,77.5C 128.575,78.6405 127.741,78.6405 127,77.5C 126.667,78.5 126.333,79.5 126,80.5C 126.999,87.8633 126.665,95.1967 125,102.5C 124.032,92.5611 123.198,84.8944 122.5,79.5C 120.833,79.5 119.167,79.5 117.5,79.5C 117.5,77.8333 117.5,76.1667 117.5,74.5C 119.167,74.5 120.833,74.5 122.5,74.5C 122.5,71.5 122.5,68.5 122.5,65.5C 124.144,65.2865 125.644,65.6198 127,66.5C 127.769,69.0991 127.602,71.5991 126.5,74C 128.764,74.2362 130.931,74.7362 133,75.5C 133.91,77.9449 133.076,79.2782 130.5,79.5 Z"/></g>
<g><path style="opacity:0.8" fill="#060606" d="M 306.5,101.5 C 305.766,100.122 305.099,98.6225 304.5,97C 305.629,92.9215 305.796,88.7548 305,84.5C 304.667,85.8333 304.333,87.1667 304,88.5C 303.329,87.7476 302.496,87.4142 301.5,87.5C 303.292,81.7694 301.125,78.7694 295,78.5C 290.602,78.351 287.936,80.351 287,84.5C 285.89,86.0368 284.39,86.7035 282.5,86.5C 282.237,77.9303 286.404,73.9303 295,74.5C 299.839,73.8792 303.505,75.5459 306,79.5C 306.5,86.8258 306.666,94.1591 306.5,101.5 Z"/></g>
<g><path style="opacity:0.187" fill="#050505" d="M 130.5,79.5 C 129.5,79.5 128.5,79.5 127.5,79.5C 127.334,87.1739 127.5,94.8406 128,102.5C 129.399,103.227 130.899,103.727 132.5,104C 133.337,105.011 133.67,106.178 133.5,107.5C 129.091,108.382 125.591,107.048 123,103.5C 122.5,95.5069 122.334,87.5069 122.5,79.5C 123.198,84.8944 124.032,92.5611 125,102.5C 126.665,95.1967 126.999,87.8633 126,80.5C 126.333,79.5 126.667,78.5 127,77.5C 127.741,78.6405 128.575,78.6405 129.5,77.5C 130.298,77.9569 130.631,78.6236 130.5,79.5 Z"/></g>
<g><path style="opacity:0.619" fill="#0b0b0a" d="M 265.5,74.5 C 266.398,75.1577 267.398,75.8243 268.5,76.5C 267.528,76.593 266.528,76.9264 265.5,77.5C 259.8,78.5329 256.467,81.8662 255.5,87.5C 254.691,88.4687 253.691,89.3021 252.5,90C 253.428,90.3879 254.095,91.0546 254.5,92C 254.189,94.3225 253.856,96.6558 253.5,99C 256.254,100.58 256.088,101.746 253,102.5C 252.098,102.257 251.265,101.923 250.5,101.5C 250.334,92.8269 250.5,84.1603 251,75.5C 253.454,73.987 255.121,74.6537 256,77.5C 258.757,75.2051 261.923,74.2051 265.5,74.5 Z"/></g>
<g><path style="opacity:0.596" fill="#040404" d="M 190.5,82.5 C 192.292,82.366 193.958,82.6993 195.5,83.5C 194.563,91.445 194.23,99.445 194.5,107.5C 191.813,107.664 189.146,107.497 186.5,107C 182.257,101.603 178.257,96.1035 174.5,90.5C 175.794,91.2899 176.961,92.2899 178,93.5C 178.671,92.7476 179.504,92.4142 180.5,92.5C 183.313,96.0979 186.147,99.7645 189,103.5C 190.288,96.5631 190.788,89.5631 190.5,82.5 Z"/></g>
<g><path style="opacity:0.55" fill="#060606" d="M 137.5,78.5 C 137.369,79.2389 137.536,79.9056 138,80.5C 139.041,78.6885 140.207,78.3552 141.5,79.5C 138.774,82.2856 137.107,85.619 136.5,89.5C 135.007,90.3121 134.34,91.6455 134.5,93.5C 134.547,96.2386 135.547,96.9053 137.5,95.5C 138.122,100.449 140.788,103.449 145.5,104.5C 143.801,104.34 142.134,104.506 140.5,105C 141.252,105.671 141.586,106.504 141.5,107.5C 133.7,102.727 130.867,95.727 133,86.5C 133.754,83.3156 135.254,80.6489 137.5,78.5 Z"/></g>
<g><path style="opacity:0.621" fill="#080808" d="M 240.5,76.5 C 240.582,79.17 239.415,79.17 237,76.5C 235.665,77.0795 234.498,77.4128 233.5,77.5C 224.312,79.8431 220.645,85.8431 222.5,95.5C 220.158,95.7748 220.158,96.6081 222.5,98C 221.167,98.6667 221.167,99.3333 222.5,100C 221.906,100.464 221.239,100.631 220.5,100.5C 215.211,89.5328 217.878,81.0328 228.5,75C 231.833,74.3333 235.167,74.3333 238.5,75C 239.416,75.2784 240.082,75.7784 240.5,76.5 Z"/></g>
<g><path style="opacity:0.547" fill="#080808" d="M 330.5,87.5 C 330.5,88.1667 330.5,88.8333 330.5,89.5C 330.285,91.1788 330.952,92.1788 332.5,92.5C 332.217,93.2891 331.717,93.9558 331,94.5C 330.667,98.5 330.333,102.5 330,106.5C 328.644,107.38 327.144,107.714 325.5,107.5C 325.5,99.8333 325.5,92.1667 325.5,84.5C 326.877,83.444 327.71,82.1107 328,80.5C 327.891,82.9889 328.725,85.3222 330.5,87.5 Z"/></g>
<g><path style="opacity:0.724" fill="#080808" d="M 332.5,92.5 C 330.952,92.1788 330.285,91.1788 330.5,89.5C 335.961,85.2108 341.294,80.7108 346.5,76C 348.025,74.9914 349.692,74.4914 351.5,74.5C 351.649,75.552 351.483,76.552 351,77.5C 346.841,80.6595 343.008,84.1595 339.5,88C 344.907,93.8841 349.24,100.384 352.5,107.5C 349.675,107.919 347.509,106.919 346,104.5C 342.667,99.8333 339.333,95.1667 336,90.5C 335.184,91.8228 334.017,92.4894 332.5,92.5 Z"/></g>
<g><path style="opacity:0.488" fill="#090909" d="M 306.5,101.5 C 306.5,101.833 306.5,102.167 306.5,102.5C 305.244,102.539 304.244,102.039 303.5,101C 304.413,99.5861 304.413,98.0861 303.5,96.5C 302.815,94.5856 302.315,92.5856 302,90.5C 297.577,91.5146 293.077,92.3479 288.5,93C 286.616,94.0487 285.282,95.5487 284.5,97.5C 283.226,96.8106 283.226,95.9772 284.5,95C 283.584,94.7216 282.918,94.2216 282.5,93.5C 283.343,91.8267 284.676,90.66 286.5,90C 291.435,88.733 296.435,87.8997 301.5,87.5C 302.496,87.4142 303.329,87.7476 304,88.5C 304.333,87.1667 304.667,85.8333 305,84.5C 305.796,88.7548 305.629,92.9215 304.5,97C 305.099,98.6225 305.766,100.122 306.5,101.5 Z"/></g>
<g><path style="opacity:0.577" fill="#0e0e0e" d="M 136.5,89.5 C 143.5,89.5 150.5,89.5 157.5,89.5C 159.117,90.038 160.784,90.3713 162.5,90.5C 162.389,91.1174 162.056,91.6174 161.5,92C 153.507,92.4997 145.507,92.6664 137.5,92.5C 137.5,93.5 137.5,94.5 137.5,95.5C 135.547,96.9053 134.547,96.2386 134.5,93.5C 134.34,91.6455 135.007,90.3121 136.5,89.5 Z"/></g>
<g><path style="opacity:0.55" fill="#070707" d="M 265.5,74.5 C 273.472,74.6334 278.305,78.6334 280,86.5C 280.333,89.5 280.667,92.5 281,95.5C 281.278,94.5842 281.778,93.9175 282.5,93.5C 282.918,94.2216 283.584,94.7216 284.5,95C 283.226,95.9772 283.226,96.8106 284.5,97.5C 284.15,100.453 285.15,102.787 287.5,104.5C 286.15,105.65 286.316,106.317 288,106.5C 290.349,105.024 292.516,105.19 294.5,107C 293.263,107.232 292.263,107.732 291.5,108.5C 283.778,108.277 279.945,104.277 280,96.5C 279.517,97.448 279.351,98.448 279.5,99.5C 277.883,100.038 276.216,100.371 274.5,100.5C 277.72,92.437 276.387,85.2703 270.5,79C 268.618,78.8019 266.952,78.3019 265.5,77.5C 266.528,76.9264 267.528,76.593 268.5,76.5C 267.398,75.8243 266.398,75.1577 265.5,74.5 Z"/></g>
<g><path style="opacity:0.675" fill="#0e0e0e" d="M 212.5,83.5 C 213.5,84.8333 214.5,84.8333 215.5,83.5C 216.492,91.3159 216.826,99.3159 216.5,107.5C 215.167,107.5 213.833,107.5 212.5,107.5C 212.5,99.5 212.5,91.5 212.5,83.5 Z"/></g>
<g><path style="opacity:0.586" fill="#060606" d="M 240.5,76.5 C 244.657,78.4353 247.157,81.7686 248,86.5C 250.372,98.7872 245.539,106.12 233.5,108.5C 227.599,108.246 223.266,105.579 220.5,100.5C 221.239,100.631 221.906,100.464 222.5,100C 221.167,99.3333 221.167,98.6667 222.5,98C 220.158,96.6081 220.158,95.7748 222.5,95.5C 226.783,105.38 233.283,107.047 242,100.5C 245.687,93.4885 245.187,86.8218 240.5,80.5C 238.115,79.3385 235.781,78.3385 233.5,77.5C 234.498,77.4128 235.665,77.0795 237,76.5C 239.415,79.17 240.582,79.17 240.5,76.5 Z"/></g>
<g><path style="opacity:0.389" fill="#040404" d="M 314.5,91.5 C 314.5,96.8333 314.5,102.167 314.5,107.5C 311.15,107.665 307.817,107.498 304.5,107C 303.667,106.167 302.833,105.333 302,104.5C 299.005,107.11 295.505,108.443 291.5,108.5C 292.263,107.732 293.263,107.232 294.5,107C 292.516,105.19 290.349,105.024 288,106.5C 286.316,106.317 286.15,105.65 287.5,104.5C 295.012,105.795 300.345,103.128 303.5,96.5C 304.413,98.0861 304.413,99.5861 303.5,101C 304.244,102.039 305.244,102.539 306.5,102.5C 307.708,103.234 309.041,103.567 310.5,103.5C 310.5,102.5 310.5,101.5 310.5,100.5C 311.309,102.292 311.809,104.292 312,106.5C 313.731,102.371 313.898,98.2042 312.5,94C 313.066,93.0053 313.733,92.172 314.5,91.5 Z"/></g>
<g><path style="opacity:0.665" fill="#070707" d="M 141.5,107.5 C 141.586,106.504 141.252,105.671 140.5,105C 142.134,104.506 143.801,104.34 145.5,104.5C 148.688,104.382 151.688,103.549 154.5,102C 155.808,99.2049 157.474,96.7049 159.5,94.5C 161.384,95.6927 161.884,97.3594 161,99.5C 156.804,107.515 150.304,110.182 141.5,107.5 Z"/></g>
<g><path style="opacity:0.685" fill="#050505" d="M 255.5,87.5 C 252.999,99.4824 257.666,104.982 269.5,104C 271.323,103.003 272.99,101.836 274.5,100.5C 276.216,100.371 277.883,100.038 279.5,99.5C 273.673,108.885 265.839,110.885 256,105.5C 255.501,109.821 255.334,114.154 255.5,118.5C 253.833,118.5 252.167,118.5 250.5,118.5C 250.5,112.833 250.5,107.167 250.5,101.5C 251.265,101.923 252.098,102.257 253,102.5C 256.088,101.746 256.254,100.58 253.5,99C 253.856,96.6558 254.189,94.3225 254.5,92C 254.095,91.0546 253.428,90.3879 252.5,90C 253.691,89.3021 254.691,88.4687 255.5,87.5 Z"/></g>
<g><path style="opacity:0.191" fill="#040403" d="M 311.5,111.5 C 312.458,111.953 313.292,112.619 314,113.5C 314.667,127.5 314.667,141.5 314,155.5C 311.602,158.054 309.269,158.054 307,155.5C 306.333,141.5 306.333,127.5 307,113.5C 308.622,112.901 310.122,112.234 311.5,111.5 Z"/></g>
<g><path style="opacity:0.503" fill="#040404" d="M 121.5,112.5 C 128.158,111.344 130.158,113.844 127.5,120C 125.527,120.495 123.527,120.662 121.5,120.5C 121.5,117.833 121.5,115.167 121.5,112.5 Z"/></g>
<g><path style="opacity:1" fill="#171615" d="M 247.5,127.5 C 248.833,128.833 248.833,130.167 247.5,131.5C 247.013,132.473 246.513,133.473 246,134.5C 245.909,138.253 245.742,141.92 245.5,145.5C 246.374,147.969 247.708,150.135 249.5,152C 248.333,152.5 247.5,153.333 247,154.5C 245.989,153.663 244.822,153.33 243.5,153.5C 243.5,150.5 243.5,147.5 243.5,144.5C 243.168,134.81 243.502,125.144 244.5,115.5C 244.882,119.916 245.882,123.916 247.5,127.5 Z"/></g>
<g><path style="opacity:0.992" fill="#10100f" d="M 309.5,115.5 C 310.707,116.189 312.041,116.355 313.5,116C 312.722,127.816 312.222,139.983 312,152.5C 311.333,153.167 310.667,153.833 310,154.5C 309.823,141.925 309.323,129.425 308.5,117C 309.056,116.617 309.389,116.117 309.5,115.5 Z"/></g>
<g><path style="opacity:1" fill="#080705" d="M 248.5,125.5 C 247.662,125.842 247.328,126.508 247.5,127.5C 245.882,123.916 244.882,119.916 244.5,115.5C 243.502,125.144 243.168,134.81 243.5,144.5C 242.609,143.89 241.609,143.557 240.5,143.5C 240.334,133.494 240.5,123.494 241,113.5C 242.667,112.833 244.333,112.167 246,111.5C 246.667,112.167 247.333,112.833 248,113.5C 248.499,117.486 248.666,121.486 248.5,125.5 Z"/></g>
<g><path style="opacity:0.5" fill="#090909" d="M 166.5,124.5 C 163.103,125.967 162.77,127.967 165.5,130.5C 165.023,131.478 164.357,132.311 163.5,133C 165.43,138.874 166.097,145.04 165.5,151.5C 165.158,152.338 164.492,152.672 163.5,152.5C 162.183,145.333 162.183,138.166 163.5,131C 161.527,130.505 159.527,130.338 157.5,130.5C 157.5,128.5 157.5,126.5 157.5,124.5C 159.735,124.795 161.735,124.461 163.5,123.5C 163.598,122.451 163.598,121.285 163.5,120C 165.56,117.909 167.227,118.242 168.5,121C 169.048,122.596 168.382,123.763 166.5,124.5 Z"/></g>
<g><path style="opacity:0.74" fill="#101010" d="M 204.5,144.5 C 202.345,145.552 202.012,144.886 203.5,142.5C 202.77,139.891 202.27,137.224 202,134.5C 201.333,140.167 201.333,145.833 202,151.5C 203.784,152.667 203.784,153.667 202,154.5C 200.829,153.66 199.662,152.827 198.5,152C 198.049,150.011 198.715,148.177 200.5,146.5C 200.889,143.447 200.223,140.78 198.5,138.5C 201.019,135.455 201.019,132.455 198.5,129.5C 194.5,129.167 190.5,128.833 186.5,128.5C 184.851,129.648 183.351,130.981 182,132.5C 181.621,130.43 182.455,128.93 184.5,128C 183.244,127.583 182.577,126.75 182.5,125.5C 200.355,119.689 207.688,126.023 204.5,144.5 Z"/></g>
<g><path style="opacity:1" fill="#0d0d0c" d="M 271.5,145.5 C 269.215,146.957 267.382,148.957 266,151.5C 265.5,151 265,150.5 264.5,150C 265.701,149.097 266.535,147.931 267,146.5C 267.667,142.5 267.667,138.5 267,134.5C 265.783,131.04 263.617,129.707 260.5,130.5C 256.46,129.093 252.793,129.76 249.5,132.5C 248.833,132.167 248.167,131.833 247.5,131.5C 248.833,130.167 248.833,128.833 247.5,127.5C 247.328,126.508 247.662,125.842 248.5,125.5C 262.62,120.61 270.62,125.61 272.5,140.5C 272.493,142.369 272.16,144.036 271.5,145.5 Z"/></g>
<g><path style="opacity:0.456" fill="#0f0e0f" d="M 215.5,127.5 C 210.776,126.108 210.443,127.275 214.5,131C 213.87,135.611 213.87,140.278 214.5,145C 214.333,147.5 214.167,150 214,152.5C 212.933,153.191 211.766,153.691 210.5,154C 214.19,154.424 214.357,155.258 211,156.5C 210.329,155.748 209.496,155.414 208.5,155.5C 208.5,145.167 208.5,134.833 208.5,124.5C 210.833,124.5 213.167,124.5 215.5,124.5C 215.5,125.5 215.5,126.5 215.5,127.5 Z"/></g>
<g><path style="opacity:0.31" fill="#080807" d="M 281.5,143.5 C 280.512,138.36 280.179,133.026 280.5,127.5C 279.5,127.5 278.5,127.5 277.5,127.5C 277.911,134.982 278.077,142.315 278,149.5C 278.785,151.286 279.951,152.786 281.5,154C 283.994,155.032 286.328,156.198 288.5,157.5C 283.145,158.655 278.978,156.988 276,152.5C 274.583,143.248 274.083,133.915 274.5,124.5C 276.833,124.5 279.167,124.5 281.5,124.5C 281.5,130.833 281.5,137.167 281.5,143.5 Z"/></g>
<g><path style="opacity:0.91" fill="#0b0a09" d="M 121.5,124.5 C 123.833,124.5 126.167,124.5 128.5,124.5C 128.667,135.172 128.5,145.839 128,156.5C 125.959,157.423 123.792,157.756 121.5,157.5C 121.5,146.5 121.5,135.5 121.5,124.5 Z"/></g>
<g><path style="opacity:0.654" fill="#0c0c0c" d="M 145.5,123.5 C 145.881,124.931 146.881,125.764 148.5,126C 147.376,126.249 146.376,126.749 145.5,127.5C 146.127,128.417 146.461,129.417 146.5,130.5C 144.143,130.337 141.81,130.503 139.5,131C 138.075,132.714 138.408,134.047 140.5,135C 142.436,135.813 144.436,136.313 146.5,136.5C 146.577,137.75 147.244,138.583 148.5,139C 143.575,140.814 139.075,139.981 135,136.5C 134.667,135.5 134.333,134.5 134,133.5C 133.667,133.833 133.333,134.167 133,134.5C 133.443,131.16 135.277,128.66 138.5,127C 137.584,126.722 136.918,126.222 136.5,125.5C 139.171,123.882 142.171,123.215 145.5,123.5 Z"/></g>
<g><path style="opacity:0.71" fill="#0b0b0b" d="M 236.5,131.5 C 234.321,131.16 232.488,130.16 231,128.5C 231.526,130.227 231.359,131.894 230.5,133.5C 230.167,133.5 229.833,133.5 229.5,133.5C 229.047,132.542 228.381,131.708 227.5,131C 225.19,130.503 222.857,130.337 220.5,130.5C 218.014,129.05 218.347,127.884 221.5,127C 219.381,126.658 219.047,125.825 220.5,124.5C 228.091,121.967 233.425,124.3 236.5,131.5 Z"/></g>
<g><path style="opacity:0.59" fill="#0c0c0c" d="M 145.5,123.5 C 152.703,123.704 156.703,127.37 157.5,134.5C 155.143,134.663 152.81,134.497 150.5,134C 149.616,132.28 148.283,131.114 146.5,130.5C 146.461,129.417 146.127,128.417 145.5,127.5C 146.376,126.749 147.376,126.249 148.5,126C 146.881,125.764 145.881,124.931 145.5,123.5 Z"/></g>
<g><path style="opacity:0.167" fill="#060605" d="M 170.5,135.5 C 169.833,138.167 169.167,140.833 168.5,143.5C 168.793,139.563 168.46,135.73 167.5,132C 168.583,129.944 170.25,128.611 172.5,128C 170.359,127.015 168.359,125.848 166.5,124.5C 168.382,123.763 169.048,122.596 168.5,121C 167.227,118.242 165.56,117.909 163.5,120C 163.598,121.285 163.598,122.451 163.5,123.5C 162.527,121.052 162.194,118.385 162.5,115.5C 165.187,115.336 167.854,115.503 170.5,116C 170.53,118.624 170.197,121.291 169.5,124C 171.81,124.497 174.143,124.663 176.5,124.5C 177.5,129.5 175.5,131.5 170.5,130.5C 170.5,132.167 170.5,133.833 170.5,135.5 Z"/></g>
<g><path style="opacity:0.667" fill="#080808" d="M 182.5,125.5 C 182.577,126.75 183.244,127.583 184.5,128C 182.455,128.93 181.621,130.43 182,132.5C 183.351,130.981 184.851,129.648 186.5,128.5C 190.5,128.833 194.5,129.167 198.5,129.5C 201.019,132.455 201.019,135.455 198.5,138.5C 194.739,138.471 190.573,139.471 186,141.5C 185.805,140.181 185.972,138.847 186.5,137.5C 189.487,137.002 192.487,136.502 195.5,136C 197.497,134.847 197.83,133.347 196.5,131.5C 193.167,130.167 189.833,130.167 186.5,131.5C 184.224,136.102 181.224,136.602 177.5,133C 178.539,129.986 180.205,127.486 182.5,125.5 Z"/></g>
<g><path style="opacity:0.999" fill="#121211" d="M 166.5,124.5 C 168.359,125.848 170.359,127.015 172.5,128C 170.25,128.611 168.583,129.944 167.5,132C 168.46,135.73 168.793,139.563 168.5,143.5C 168.228,145.611 167.895,147.777 167.5,150C 168.93,151.886 170.597,153.553 172.5,155C 168.738,156.311 166.405,155.144 165.5,151.5C 166.097,145.04 165.43,138.874 163.5,133C 164.357,132.311 165.023,131.478 165.5,130.5C 162.77,127.967 163.103,125.967 166.5,124.5 Z"/></g>
<g><path style="opacity:0.483" fill="#0b0b0b" d="M 229.5,133.5 C 229.833,133.5 230.167,133.5 230.5,133.5C 232.302,140.095 233.135,147.095 233,154.5C 233.414,154.043 233.914,153.709 234.5,153.5C 235.167,148.349 235.834,143.349 236.5,138.5C 236.666,144.509 236.499,150.509 236,156.5C 234.274,157.576 232.441,157.743 230.5,157C 229.518,149.253 229.185,141.42 229.5,133.5 Z"/></g>
<g><path style="opacity:0.824" fill="#101010" d="M 236.5,131.5 C 236.5,133.833 236.5,136.167 236.5,138.5C 235.834,143.349 235.167,148.349 234.5,153.5C 233.914,153.709 233.414,154.043 233,154.5C 233.135,147.095 232.302,140.095 230.5,133.5C 231.359,131.894 231.526,130.227 231,128.5C 232.488,130.16 234.321,131.16 236.5,131.5 Z"/></g>
<g><path style="opacity:0.473" fill="#070707" d="M 302.5,140.5 C 302.666,145.844 302.499,151.177 302,156.5C 298.914,158.22 296.581,157.553 295,154.5C 293.512,156.16 291.679,157.16 289.5,157.5C 290.028,156.279 290.695,155.113 291.5,154C 289.685,153.243 288.019,152.41 286.5,151.5C 290.658,151.34 293.492,149.34 295,145.5C 295.499,141.848 295.665,138.182 295.5,134.5C 296.117,134.389 296.617,134.056 297,133.5C 297.497,131.19 297.663,128.857 297.5,126.5C 298.552,126.351 299.552,126.517 300.5,127C 298.887,133.247 297.887,139.747 297.5,146.5C 296.866,148.567 295.866,150.4 294.5,152C 295.825,151.852 296.992,152.018 298,152.5C 299.126,148.251 299.792,143.918 300,139.5C 300.333,138.833 300.667,138.167 301,137.5C 301.232,138.737 301.732,139.737 302.5,140.5 Z"/></g>
<g><path style="opacity:1" fill="#0f0f0d" d="M 302.5,140.5 C 301.732,139.737 301.232,138.737 301,137.5C 300.667,138.167 300.333,138.833 300,139.5C 299.792,143.918 299.126,148.251 298,152.5C 296.992,152.018 295.825,151.852 294.5,152C 295.866,150.4 296.866,148.567 297.5,146.5C 297.887,139.747 298.887,133.247 300.5,127C 299.552,126.517 298.552,126.351 297.5,126.5C 297.663,128.857 297.497,131.19 297,133.5C 296.617,134.056 296.117,134.389 295.5,134.5C 295.5,131.167 295.5,127.833 295.5,124.5C 297.833,124.5 300.167,124.5 302.5,124.5C 302.5,129.833 302.5,135.167 302.5,140.5 Z"/></g>
<g><path style="opacity:0.518" fill="#070707" d="M 136.5,125.5 C 136.918,126.222 137.584,126.722 138.5,127C 135.277,128.66 133.443,131.16 133,134.5C 133.333,134.167 133.667,133.833 134,133.5C 134.333,134.5 134.667,135.5 135,136.5C 139.075,139.981 143.575,140.814 148.5,139C 147.244,138.583 146.577,137.75 146.5,136.5C 154.745,137.239 158.912,141.572 159,149.5C 158.051,151.093 156.885,152.426 155.5,153.5C 155.114,151.067 154.947,148.067 155,144.5C 153.992,142.741 152.492,141.574 150.5,141C 152.901,140.195 152.734,139.362 150,138.5C 147.989,141.095 145.823,142.762 143.5,143.5C 134.076,142.594 130.243,137.594 132,128.5C 133.129,126.859 134.629,125.859 136.5,125.5 Z"/></g>
<g><path style="opacity:0.497" fill="#080707" d="M 220.5,124.5 C 219.047,125.825 219.381,126.658 221.5,127C 218.347,127.884 218.014,129.05 220.5,130.5C 217.645,131.874 216.145,134.207 216,137.5C 215.5,144.158 215.334,150.825 215.5,157.5C 213.473,157.662 211.473,157.495 209.5,157C 208.944,156.617 208.611,156.117 208.5,155.5C 209.496,155.414 210.329,155.748 211,156.5C 214.357,155.258 214.19,154.424 210.5,154C 211.766,153.691 212.933,153.191 214,152.5C 214.167,150 214.333,147.5 214.5,145C 213.87,140.278 213.87,135.611 214.5,131C 210.443,127.275 210.776,126.108 215.5,127.5C 216.659,125.75 218.326,124.75 220.5,124.5 Z"/></g>
<g><path style="opacity:0.59" fill="#060606" d="M 186.5,137.5 C 185.972,138.847 185.805,140.181 186,141.5C 190.573,139.471 194.739,138.471 198.5,138.5C 200.223,140.78 200.889,143.447 200.5,146.5C 199.609,145.89 198.609,145.557 197.5,145.5C 197.762,144.022 197.429,142.689 196.5,141.5C 192.006,141.877 187.839,143.21 184,145.5C 183.36,147.265 183.527,148.932 184.5,150.5C 183.448,150.649 182.448,150.483 181.5,150C 181.833,149.667 182.167,149.333 182.5,149C 181.692,148.692 181.025,148.192 180.5,147.5C 180.837,145.575 182.17,144.075 184.5,143C 183.359,142.259 183.359,141.425 184.5,140.5C 184.043,139.702 183.376,139.369 182.5,139.5C 183.514,138.326 184.847,137.66 186.5,137.5 Z"/></g>
<g><path style="opacity:0.701" fill="#080808" d="M 271.5,145.5 C 270.307,150.689 267.307,154.356 262.5,156.5C 260.951,156.264 259.451,156.264 258,156.5C 257.131,153.237 255.797,152.904 254,155.5C 253.25,154.874 252.416,154.374 251.5,154C 253.315,153.243 254.981,152.41 256.5,151.5C 261.394,151.108 264.228,148.441 265,143.5C 265.953,138.188 264.453,133.854 260.5,130.5C 263.617,129.707 265.783,131.04 267,134.5C 267.667,138.5 267.667,142.5 267,146.5C 266.535,147.931 265.701,149.097 264.5,150C 265,150.5 265.5,151 266,151.5C 267.382,148.957 269.215,146.957 271.5,145.5 Z"/></g>
<g><path style="opacity:0.711" fill="#050505" d="M 170.5,135.5 C 170.5,140.5 170.5,145.5 170.5,150.5C 172.621,150.325 174.621,150.659 176.5,151.5C 177.575,155.923 175.908,157.923 171.5,157.5C 167.453,157.82 164.786,156.153 163.5,152.5C 164.492,152.672 165.158,152.338 165.5,151.5C 166.405,155.144 168.738,156.311 172.5,155C 170.597,153.553 168.93,151.886 167.5,150C 167.895,147.777 168.228,145.611 168.5,143.5C 169.167,140.833 169.833,138.167 170.5,135.5 Z"/></g>
<g><path style="opacity:0.726" fill="#0b0b0b" d="M 155.5,153.5 C 152.932,156.921 149.432,158.254 145,157.5C 137.234,158.214 132.401,154.881 130.5,147.5C 130.453,146 131.119,145 132.5,144.5C 133.833,144.833 135.167,145.167 136.5,145.5C 139.619,151.098 144.285,152.764 150.5,150.5C 151.484,145.476 149.151,143.142 143.5,143.5C 145.823,142.762 147.989,141.095 150,138.5C 152.734,139.362 152.901,140.195 150.5,141C 152.492,141.574 153.992,142.741 155,144.5C 154.947,148.067 155.114,151.067 155.5,153.5 Z"/></g>
<g><path style="opacity:0.896" fill="#0a0a0a" d="M 182.5,139.5 C 183.376,139.369 184.043,139.702 184.5,140.5C 183.359,141.425 183.359,142.259 184.5,143C 182.17,144.075 180.837,145.575 180.5,147.5C 181.025,148.192 181.692,148.692 182.5,149C 182.167,149.333 181.833,149.667 181.5,150C 182.448,150.483 183.448,150.649 184.5,150.5C 188.39,152.054 192.057,151.721 195.5,149.5C 196.292,150.967 196.292,152.3 195.5,153.5C 193.997,153.165 192.664,153.165 191.5,153.5C 191.808,154.308 192.308,154.975 193,155.5C 193.977,154.226 194.811,154.226 195.5,155.5C 195.082,156.222 194.416,156.722 193.5,157C 189.833,157.667 186.167,157.667 182.5,157C 179.977,155.64 177.977,153.807 176.5,151.5C 175.522,145.858 177.522,141.858 182.5,139.5 Z"/></g>
<g><path style="opacity:0.556" fill="#060506" d="M 247.5,131.5 C 248.167,131.833 248.833,132.167 249.5,132.5C 246.136,139.431 247.136,145.598 252.5,151C 253.793,151.49 255.127,151.657 256.5,151.5C 254.981,152.41 253.315,153.243 251.5,154C 252.416,154.374 253.25,154.874 254,155.5C 255.797,152.904 257.131,153.237 258,156.5C 259.451,156.264 260.951,156.264 262.5,156.5C 259.024,157.643 255.358,157.81 251.5,157C 250.333,156.5 249.5,155.667 249,154.5C 247.334,157.379 244.834,158.212 241.5,157C 240.533,152.599 240.2,148.099 240.5,143.5C 241.609,143.557 242.609,143.89 243.5,144.5C 243.5,147.5 243.5,150.5 243.5,153.5C 244.822,153.33 245.989,153.663 247,154.5C 247.5,153.333 248.333,152.5 249.5,152C 247.708,150.135 246.374,147.969 245.5,145.5C 245.742,141.92 245.909,138.253 246,134.5C 246.513,133.473 247.013,132.473 247.5,131.5 Z"/></g>
<g><path style="opacity:0.853" fill="#0a0a0a" d="M 204.5,144.5 C 204.5,146.833 204.5,149.167 204.5,151.5C 205.5,151.5 206.5,151.5 207.5,151.5C 207.5,153.5 207.5,155.5 207.5,157.5C 204.813,157.664 202.146,157.497 199.5,157C 198.874,156.25 198.374,155.416 198,154.5C 197.329,155.252 196.496,155.586 195.5,155.5C 194.811,154.226 193.977,154.226 193,155.5C 192.308,154.975 191.808,154.308 191.5,153.5C 192.664,153.165 193.997,153.165 195.5,153.5C 196.292,152.3 196.292,150.967 195.5,149.5C 197.104,148.713 197.771,147.38 197.5,145.5C 198.609,145.557 199.609,145.89 200.5,146.5C 198.715,148.177 198.049,150.011 198.5,152C 199.662,152.827 200.829,153.66 202,154.5C 203.784,153.667 203.784,152.667 202,151.5C 201.333,145.833 201.333,140.167 202,134.5C 202.27,137.224 202.77,139.891 203.5,142.5C 202.012,144.886 202.345,145.552 204.5,144.5 Z"/></g>
<g><path style="opacity:0.959" fill="#0d0d0d" d="M 281.5,143.5 C 281.163,147.505 282.83,150.172 286.5,151.5C 288.019,152.41 289.685,153.243 291.5,154C 290.695,155.113 290.028,156.279 289.5,157.5C 289.167,157.5 288.833,157.5 288.5,157.5C 286.328,156.198 283.994,155.032 281.5,154C 279.951,152.786 278.785,151.286 278,149.5C 278.077,142.315 277.911,134.982 277.5,127.5C 278.5,127.5 279.5,127.5 280.5,127.5C 280.179,133.026 280.512,138.36 281.5,143.5 Z"/></g>
</svg>
