<?xml version="1.0" encoding="UTF-8"?>
<!DOCTYPE svg PUBLIC "-//W3C//DTD SVG 1.1//EN" "http://www.w3.org/Graphics/SVG/1.1/DTD/svg11.dtd">
<svg xmlns="http://www.w3.org/2000/svg" version="1.1" width="421px" height="167px" style="shape-rendering:geometricPrecision; text-rendering:geometricPrecision; image-rendering:optimizeQuality; fill-rule:evenodd; clip-rule:evenodd" xmlns:xlink="http://www.w3.org/1999/xlink">
<g><path style="opacity:1" fill="#152649" d="M 155.5,46.5 C 154.833,46.5 154.5,46.1667 154.5,45.5C 152.173,37.4798 155.007,32.4798 163,30.5C 166.684,34.1427 168.351,38.4761 168,43.5C 166.686,44.3128 165.519,45.3128 164.5,46.5C 161.783,45.3469 158.783,45.3469 155.5,46.5 Z"/></g>
<g><path style="opacity:0.973" fill="#151e33" d="M 155.5,46.5 C 158.783,45.3469 161.783,45.3469 164.5,46.5C 165.519,45.3128 166.686,44.3128 168,43.5C 168.351,38.4761 166.684,34.1427 163,30.5C 155.007,32.4798 152.173,37.4798 154.5,45.5C 150.135,39.8713 150.802,34.7046 156.5,30C 164.131,28.0001 169.131,30.6668 171.5,38C 169.502,47.4967 164.169,50.3301 155.5,46.5 Z"/></g>
<g><path style="opacity:0.833" fill="#151d35" d="M 90.5,32.5 C 92.9588,33.8738 93.9588,36.0405 93.5,39C 92.5182,46.6297 88.1848,49.6297 80.5,48C 74.8309,45.1849 72.9976,40.6849 75,34.5C 78.3433,29.7817 82.8433,28.2817 88.5,30C 89.3805,30.7083 90.0472,31.5416 90.5,32.5 Z"/></g>
<g><path style="opacity:0.988" fill="#16274c" d="M 90.5,32.5 C 93.1474,36.1126 93.1474,39.7793 90.5,43.5C 86.0778,46.1175 81.7445,45.7841 77.5,42.5C 76.1569,32.3076 80.4902,28.9743 90.5,32.5 Z"/></g>
<g><path style="opacity:0.999" fill="#14213d" d="M 389.5,57.5 C 388.499,56.2113 388.666,54.8779 390,53.5C 394.318,48.8603 398.151,43.8603 401.5,38.5C 401.291,37.914 400.957,37.414 400.5,37C 397.518,36.502 394.518,36.3354 391.5,36.5C 391.265,40.8035 388.931,42.4702 384.5,41.5C 386.071,46.0861 384.571,49.4195 380,51.5C 379.586,51.0426 379.086,50.7093 378.5,50.5C 376.445,52.5549 374.779,54.8883 373.5,57.5C 374.04,58.7481 374.707,59.9148 375.5,61C 373.484,61.1971 371.484,62.1971 369.5,64C 368.663,65.0113 368.33,66.1779 368.5,67.5C 366.901,67.7678 365.568,67.4345 364.5,66.5C 371.601,56.4864 378.601,46.3198 385.5,36C 392.192,35.1691 398.858,35.3358 405.5,36.5C 400.389,43.7483 395.056,50.7483 389.5,57.5 Z"/></g>
<g><path style="opacity:1" fill="#16274c" d="M 45.5,29.5 C 46.1667,29.5 46.8333,29.5 47.5,29.5C 50.6248,30.4794 53.9581,30.8128 57.5,30.5C 57.1692,38.1955 57.5025,45.8622 58.5,53.5C 61.7021,54.1272 64.8688,54.7939 68,55.5C 68.498,58.4816 68.6646,61.4816 68.5,64.5C 64.9878,63.9455 61.9878,64.6122 59.5,66.5C 59.5,66.8333 59.5,67.1667 59.5,67.5C 58.8333,67.5 58.1667,67.5 57.5,67.5C 54.5584,65.2323 53.8917,62.399 55.5,59C 53.8742,56.9132 52.3742,54.7465 51,52.5C 50.6667,53.1667 50.3333,53.8333 50,54.5C 49,52.5 48,50.5 47,48.5C 46.3292,49.2524 45.4959,49.5858 44.5,49.5C 44.2066,42.7446 44.5399,36.0779 45.5,29.5 Z"/></g>
<g><path style="opacity:1" fill="#15284f" d="M 57.5,67.5 C 57.5,76.8333 57.5,86.1667 57.5,95.5C 55.849,86.5361 54.849,77.2028 54.5,67.5C 53.9204,70.9755 53.0871,74.3088 52,77.5C 51.082,75.3676 49.7487,74.701 48,75.5C 47.6667,74.5 47.3333,73.5 47,72.5C 47.0576,80.4861 47.3909,88.4861 48,96.5C 48.8893,95.1118 49.3893,95.2785 49.5,97C 46.9451,100.335 46.9451,103.669 49.5,107C 47.8659,107.494 46.1992,107.66 44.5,107.5C 44.5,94.1667 44.5,80.8333 44.5,67.5C 45.6828,66.4955 47.0161,65.6622 48.5,65C 45.3778,63.5792 45.0444,61.9125 47.5,60C 44.7828,59.9566 44.1161,58.9566 45.5,57C 44.9444,55.9889 44.2778,55.1556 43.5,54.5C 44.3007,52.9582 44.634,51.2915 44.5,49.5C 45.4959,49.5858 46.3292,49.2524 47,48.5C 48,50.5 49,52.5 50,54.5C 50.3333,53.8333 50.6667,53.1667 51,52.5C 52.3742,54.7465 53.8742,56.9132 55.5,59C 53.8917,62.399 54.5584,65.2323 57.5,67.5 Z"/></g>
<g><path style="opacity:1" fill="#0f172f" d="M 255.5,54.5 C 254.883,54.6107 254.383,54.944 254,55.5C 250.14,53.3269 245.973,52.3269 241.5,52.5C 236.607,52.89 233.274,55.39 231.5,60C 229.435,61.5423 227.435,61.709 225.5,60.5C 224.004,56.2361 221.004,53.5694 216.5,52.5C 216.624,51.8933 216.957,51.56 217.5,51.5C 221.507,52.8396 224.84,55.173 227.5,58.5C 233.415,51.6417 240.749,48.975 249.5,50.5C 251.565,51.8567 253.565,53.19 255.5,54.5 Z"/></g>
<g><path style="opacity:1" fill="#10192d" d="M 308.5,55.5 C 307.791,56.404 306.791,56.7373 305.5,56.5C 302.925,55.2716 300.592,53.6049 298.5,51.5C 295.033,52.7883 291.7,52.7883 288.5,51.5C 295.961,49.3212 302.627,50.6545 308.5,55.5 Z"/></g>
<g><path style="opacity:0.173" fill="#151a2e" d="M 327.5,62.5 C 325.94,60.8439 324.94,58.8439 324.5,56.5C 324.389,55.8826 324.056,55.3826 323.5,55C 319.514,54.5012 315.514,54.3345 311.5,54.5C 311.719,55.675 311.386,56.675 310.5,57.5C 309.893,57.3764 309.56,57.0431 309.5,56.5C 310.434,55.4324 310.768,54.099 310.5,52.5C 315.844,52.334 321.177,52.5006 326.5,53C 327.451,56.0567 327.784,59.2234 327.5,62.5 Z"/></g>
<g><path style="opacity:1" fill="#0d142d" d="M 45.5,29.5 C 44.5399,36.0779 44.2066,42.7446 44.5,49.5C 44.634,51.2915 44.3007,52.9582 43.5,54.5C 28.8333,54.5 14.1667,54.5 -0.5,54.5C -0.5,53.8333 -0.5,53.1667 -0.5,52.5C 13.8333,52.5 28.1667,52.5 42.5,52.5C 42.3337,45.1591 42.5003,37.8258 43,30.5C 43.6708,29.7476 44.5041,29.4142 45.5,29.5 Z"/></g>
<g><path style="opacity:1" fill="#0c142c" d="M 47.5,29.5 C 51.5,29.5 55.5,29.5 59.5,29.5C 59.5,37.1667 59.5,44.8333 59.5,52.5C 62.8333,52.5 66.1667,52.5 69.5,52.5C 69.5,57.1667 69.5,61.8333 69.5,66.5C 66.1667,66.5 62.8333,66.5 59.5,66.5C 61.9878,64.6122 64.9878,63.9455 68.5,64.5C 68.6646,61.4816 68.498,58.4816 68,55.5C 64.8688,54.7939 61.7021,54.1272 58.5,53.5C 57.5025,45.8622 57.1692,38.1955 57.5,30.5C 53.9581,30.8128 50.6248,30.4794 47.5,29.5 Z"/></g>
<g><path style="opacity:1" fill="#0a1227" d="M 364.5,66.5 C 363.883,66.6107 363.383,66.944 363,67.5C 360.668,64.0067 358.168,60.6734 355.5,57.5C 355.586,56.5041 355.252,55.6708 354.5,55C 349.167,54.3333 343.833,54.3333 338.5,55C 339.79,57.292 341.457,59.292 343.5,61C 342.944,61.3826 342.611,61.8826 342.5,62.5C 339.839,59.8292 337.506,56.8292 335.5,53.5C 341.807,52.3361 348.141,52.1694 354.5,53C 358.436,57.0959 361.77,61.5959 364.5,66.5 Z"/></g>
<g><path style="opacity:0.974" fill="#131c32" d="M 116.5,78.5 C 116.322,77.3052 115.989,76.1385 115.5,75C 117.085,73.0754 118.252,70.9087 119,68.5C 120.925,67.1196 122.759,65.6196 124.5,64C 128.887,63.774 133.221,63.274 137.5,62.5C 138.217,59.7293 138.551,57.0626 138.5,54.5C 136.999,53.2485 135.332,52.2485 133.5,51.5C 126.654,52.0491 119.988,53.3824 113.5,55.5C 116.017,53.2649 119.017,51.7649 122.5,51C 129.164,49.7584 135.497,50.5918 141.5,53.5C 142.663,59.1375 142.83,64.8041 142,70.5C 134.626,63.841 127.293,63.841 120,70.5C 118.522,73.1579 117.355,75.8245 116.5,78.5 Z"/></g>
<g><path style="opacity:1" fill="#14274d" d="M -0.5,54.5 C 14.1667,54.5 28.8333,54.5 43.5,54.5C 44.2778,55.1556 44.9444,55.9889 45.5,57C 44.1161,58.9566 44.7828,59.9566 47.5,60C 45.0444,61.9125 45.3778,63.5792 48.5,65C 47.0161,65.6622 45.6828,66.4955 44.5,67.5C 43.596,66.791 43.2627,65.791 43.5,64.5C 28.8333,64.5 14.1667,64.5 -0.5,64.5C -0.5,61.1667 -0.5,57.8333 -0.5,54.5 Z"/></g>
<g><path style="opacity:1" fill="#12274d" d="M 154.5,107.5 C 154.5,92.8333 154.5,78.1667 154.5,63.5C 155.477,60.7131 155.81,57.7131 155.5,54.5C 159.5,54.5 163.5,54.5 167.5,54.5C 167.5,72.1667 167.5,89.8333 167.5,107.5C 163.167,107.5 158.833,107.5 154.5,107.5 Z"/></g>
<g><path style="opacity:0.776" fill="#162038" d="M 215.5,50.5 C 212.992,52.2371 209.992,53.0704 206.5,53C 204.323,54.1861 203.323,56.0194 203.5,58.5C 200.721,58.7214 198.054,58.388 195.5,57.5C 195.5,56.5 195.5,55.5 195.5,54.5C 191.5,54.5 187.5,54.5 183.5,54.5C 182.827,71.5688 182.16,88.7355 181.5,106C 182.252,106.671 182.586,107.504 182.5,108.5C 180.513,90.1966 179.846,71.5299 180.5,52.5C 186.5,52.5 192.5,52.5 198.5,52.5C 198.351,53.552 198.517,54.552 199,55.5C 203.568,51.0137 209.068,49.347 215.5,50.5 Z"/></g>
<g><path style="opacity:1" fill="#12284c" d="M 183.5,54.5 C 187.5,54.5 191.5,54.5 195.5,54.5C 195.5,55.5 195.5,56.5 195.5,57.5C 195.838,60.1569 195.171,62.4902 193.5,64.5C 193.965,66.8083 195.299,68.1416 197.5,68.5C 197.108,70.1789 196.608,71.8455 196,73.5C 195.667,84.1667 195.333,94.8333 195,105.5C 191.506,107.377 187.673,108.044 183.5,107.5C 183.5,89.8333 183.5,72.1667 183.5,54.5 Z"/></g>
<g><path style="opacity:1" fill="#13223f" d="M 355.5,57.5 C 352.267,56.2864 348.934,55.7864 345.5,56C 344.695,58.1341 345.362,59.9674 347.5,61.5C 348.192,60.9747 348.692,60.3081 349,59.5C 351.029,62.1262 350.195,63.1262 346.5,62.5C 348.173,66.5107 349.84,70.5107 351.5,74.5C 347.738,71.0711 344.738,67.0711 342.5,62.5C 342.611,61.8826 342.944,61.3826 343.5,61C 341.457,59.292 339.79,57.292 338.5,55C 343.833,54.3333 349.167,54.3333 354.5,55C 355.252,55.6708 355.586,56.5041 355.5,57.5 Z"/></g>
<g><path style="opacity:1" fill="#13284e" d="M 241.5,52.5 C 243.343,53.2829 245.343,53.9495 247.5,54.5C 248.521,55.0016 248.688,55.6683 248,56.5C 240.126,56.0761 234.293,59.4095 230.5,66.5C 229.224,68.5625 228.39,70.8958 228,73.5C 227.5,80.8258 227.334,88.1591 227.5,95.5C 226.512,90.3595 226.179,85.0262 226.5,79.5C 225.178,79.33 224.011,79.6634 223,80.5C 222.829,85.5329 222.329,90.5329 221.5,95.5C 221.167,95.3333 220.833,95.1667 220.5,95C 219.904,87.815 218.571,80.815 216.5,74C 216.667,72.5 216.833,71 217,69.5C 217.333,70.5 217.667,71.5 218,72.5C 219.067,71.8095 220.234,71.3095 221.5,71C 219.265,67.9134 219.099,64.7467 221,61.5C 222.356,60.6198 223.856,60.2865 225.5,60.5C 227.435,61.709 229.435,61.5423 231.5,60C 233.274,55.39 236.607,52.89 241.5,52.5 Z"/></g>
<g><path style="opacity:1" fill="#13284c" d="M 241.5,52.5 C 245.973,52.3269 250.14,53.3269 254,55.5C 254.383,54.944 254.883,54.6107 255.5,54.5C 255.987,58.4623 256.987,62.2957 258.5,66C 257.756,67.8546 256.756,69.5212 255.5,71C 256.127,73.1351 256.627,75.3018 257,77.5C 257.333,76.8333 257.667,76.1667 258,75.5C 259.702,83.838 259.535,92.1713 257.5,100.5C 259.241,103.393 258.575,105.559 255.5,107C 252.446,107.821 249.446,107.655 246.5,106.5C 246.916,103.552 248.249,102.885 250.5,104.5C 254.104,103.603 254.437,101.937 251.5,99.5C 250.522,99.9767 249.689,100.643 249,101.5C 248.667,101.167 248.333,100.833 248,100.5C 248.575,89.207 248.575,77.8736 248,66.5C 246.383,65.4642 246.216,64.2975 247.5,63C 246.207,62.51 244.873,62.3433 243.5,62.5C 241.508,62.6715 239.842,62.0049 238.5,60.5C 235.532,62.1397 232.865,64.1397 230.5,66.5C 234.293,59.4095 240.126,56.0761 248,56.5C 248.688,55.6683 248.521,55.0016 247.5,54.5C 245.343,53.9495 243.343,53.2829 241.5,52.5 Z"/></g>
<g><path style="opacity:1" fill="#13274e" d="M 288.5,51.5 C 291.7,52.7883 295.033,52.7883 298.5,51.5C 300.592,53.6049 302.925,55.2716 305.5,56.5C 306.538,59.581 307.872,62.581 309.5,65.5C 304.964,65.2152 300.297,64.7152 295.5,64C 290.692,65.2359 286.692,67.7359 283.5,71.5C 283.572,76.4423 283.239,81.4423 282.5,86.5C 279.261,89.3243 279.261,92.3243 282.5,95.5C 283.223,92.9302 284.39,90.5968 286,88.5C 286.847,90.1932 287.68,91.8599 288.5,93.5C 288.539,94.7562 288.039,95.7562 287,96.5C 286.107,95.2888 285.274,95.2888 284.5,96.5C 287.423,99.1612 289.423,101.995 290.5,105C 283.213,105.88 278.879,102.713 277.5,95.5C 276.5,95.5 275.5,95.5 274.5,95.5C 270.659,88.5892 269.659,81.2559 271.5,73.5C 272.958,70.6277 274.125,67.6277 275,64.5C 277.965,60.1791 281.132,56.1791 284.5,52.5C 285.708,51.7659 287.041,51.4326 288.5,51.5 Z"/></g>
<g><path style="opacity:1" fill="#0c153b" d="M 154.5,52.5 C 159.762,52.1953 164.928,52.5286 170,53.5C 170.667,71.8333 170.667,90.1667 170,108.5C 164.401,109.825 158.901,109.825 153.5,108.5C 154.167,108.5 154.5,108.167 154.5,107.5C 158.833,107.5 163.167,107.5 167.5,107.5C 167.5,89.8333 167.5,72.1667 167.5,54.5C 163.5,54.5 159.5,54.5 155.5,54.5C 155.81,57.7131 155.477,60.7131 154.5,63.5C 154.5,59.8333 154.5,56.1667 154.5,52.5 Z"/></g>
<g><path style="opacity:1" fill="#13274e" d="M 389.5,57.5 C 387.983,57.5106 386.816,58.1772 386,59.5C 383.744,63.5371 380.911,67.0371 377.5,70C 375.241,69.5613 372.908,69.0613 370.5,68.5C 370.5,70.1667 370.5,71.8333 370.5,73.5C 367.137,75.8206 364.804,78.4873 363.5,81.5C 360.435,80.024 359.102,77.8573 359.5,75C 357.631,72.6864 355.631,72.3531 353.5,74C 354.252,74.6708 354.586,75.5041 354.5,76.5C 353.609,75.8902 352.609,75.5569 351.5,75.5C 351.5,75.1667 351.5,74.8333 351.5,74.5C 349.84,70.5107 348.173,66.5107 346.5,62.5C 350.195,63.1262 351.029,62.1262 349,59.5C 348.692,60.3081 348.192,60.9747 347.5,61.5C 345.362,59.9674 344.695,58.1341 345.5,56C 348.934,55.7864 352.267,56.2864 355.5,57.5C 358.168,60.6734 360.668,64.0067 363,67.5C 363.383,66.944 363.883,66.6107 364.5,66.5C 365.568,67.4345 366.901,67.7678 368.5,67.5C 368.33,66.1779 368.663,65.0113 369.5,64C 371.484,62.1971 373.484,61.1971 375.5,61C 374.707,59.9148 374.04,58.7481 373.5,57.5C 374.779,54.8883 376.445,52.5549 378.5,50.5C 379.086,50.7093 379.586,51.0426 380,51.5C 384.571,49.4195 386.071,46.0861 384.5,41.5C 388.931,42.4702 391.265,40.8035 391.5,36.5C 394.518,36.3354 397.518,36.502 400.5,37C 400.957,37.414 401.291,37.914 401.5,38.5C 398.151,43.8603 394.318,48.8603 390,53.5C 388.666,54.8779 388.499,56.2113 389.5,57.5 Z"/></g>
<g><path style="opacity:1" fill="#13274b" d="M 116.5,78.5 C 116.5,78.8333 116.5,79.1667 116.5,79.5C 115.357,82.9758 115.19,86.6425 116,90.5C 118.167,91.3333 119.667,92.8333 120.5,95C 123.759,95.75 126.093,96.9167 127.5,98.5C 131.967,98.9702 136.301,98.3036 140.5,96.5C 139.961,100.158 139.627,103.658 139.5,107C 132.167,109 124.833,109 117.5,107C 115.413,106.208 113.579,105.041 112,103.5C 111.617,104.056 111.117,104.389 110.5,104.5C 104.242,99.3228 100.576,92.6561 99.5,84.5C 100.19,74.7802 104.023,66.4469 111,59.5C 111.483,58.552 111.649,57.552 111.5,56.5C 111.842,55.6618 112.508,55.3284 113.5,55.5C 119.988,53.3824 126.654,52.0491 133.5,51.5C 135.332,52.2485 136.999,53.2485 138.5,54.5C 138.551,57.0626 138.217,59.7293 137.5,62.5C 133.221,63.274 128.887,63.774 124.5,64C 122.759,65.6196 120.925,67.1196 119,68.5C 118.252,70.9087 117.085,73.0754 115.5,75C 115.989,76.1385 116.322,77.3052 116.5,78.5 Z"/></g>
<g><path style="opacity:0.246" fill="#212b40" d="M 154.5,52.5 C 154.5,56.1667 154.5,59.8333 154.5,63.5C 154.5,78.1667 154.5,92.8333 154.5,107.5C 154.5,108.167 154.167,108.5 153.5,108.5C 152.834,99.3394 152.5,90.0061 152.5,80.5C 152.502,70.8086 153.168,61.4752 154.5,52.5 Z"/></g>
<g><path style="opacity:1" fill="#152340" d="M 255.5,54.5 C 259.472,58.2129 261.638,62.8796 262,68.5C 262.667,81.8333 262.667,95.1667 262,108.5C 256.918,109.637 251.751,109.804 246.5,109C 245.544,105.606 245.211,102.106 245.5,98.5C 246.313,90.4989 246.98,82.3323 247.5,74C 247.922,69.5855 246.255,66.2522 242.5,64C 243.056,63.6174 243.389,63.1174 243.5,62.5C 244.873,62.3433 246.207,62.51 247.5,63C 246.216,64.2975 246.383,65.4642 248,66.5C 248.575,77.8736 248.575,89.207 248,100.5C 248.333,100.833 248.667,101.167 249,101.5C 249.689,100.643 250.522,99.9767 251.5,99.5C 254.437,101.937 254.104,103.603 250.5,104.5C 248.249,102.885 246.916,103.552 246.5,106.5C 249.446,107.655 252.446,107.821 255.5,107C 258.575,105.559 259.241,103.393 257.5,100.5C 259.535,92.1713 259.702,83.838 258,75.5C 257.667,76.1667 257.333,76.8333 257,77.5C 256.627,75.3018 256.127,73.1351 255.5,71C 256.756,69.5212 257.756,67.8546 258.5,66C 256.987,62.2957 255.987,58.4623 255.5,54.5 Z"/></g>
<g><path style="opacity:1" fill="#081028" d="M -0.5,64.5 C 14.1667,64.5 28.8333,64.5 43.5,64.5C 43.2627,65.791 43.596,66.791 44.5,67.5C 44.5,80.8333 44.5,94.1667 44.5,107.5C 44.5,108.167 44.1667,108.5 43.5,108.5C 42.5042,94.6766 42.1709,80.6766 42.5,66.5C 28.1667,66.5 13.8333,66.5 -0.5,66.5C -0.5,65.8333 -0.5,65.1667 -0.5,64.5 Z"/></g>
<g><path style="opacity:0.892" fill="#1b2235" d="M 111.5,56.5 C 111.649,57.552 111.483,58.552 111,59.5C 104.023,66.4469 100.19,74.7802 99.5,84.5C 98.6673,72.9712 102.667,63.6378 111.5,56.5 Z"/></g>
<g><path style="opacity:1" fill="#12193c" d="M 324.5,56.5 C 324.94,58.8439 325.94,60.8439 327.5,62.5C 327.5,74.8333 327.5,87.1667 327.5,99.5C 326.778,99.0825 326.278,98.4158 326,97.5C 325.817,100.365 325.317,103.031 324.5,105.5C 324.5,89.1667 324.5,72.8333 324.5,56.5 Z"/></g>
<g><path style="opacity:1" fill="#13274b" d="M 57.5,95.5 C 57.1818,100.032 57.5151,104.366 58.5,108.5C 53.5,109.833 48.5,109.833 43.5,108.5C 44.1667,108.5 44.5,108.167 44.5,107.5C 46.1992,107.66 47.8659,107.494 49.5,107C 46.9451,103.669 46.9451,100.335 49.5,97C 49.3893,95.2785 48.8893,95.1118 48,96.5C 47.3909,88.4861 47.0576,80.4861 47,72.5C 47.3333,73.5 47.6667,74.5 48,75.5C 49.7487,74.701 51.082,75.3676 52,77.5C 53.0871,74.3088 53.9204,70.9755 54.5,67.5C 54.849,77.2028 55.849,86.5361 57.5,95.5 Z"/></g>
<g><path style="opacity:1" fill="#11213d" d="M 309.5,65.5 C 311.994,67.875 313.494,70.875 314,74.5C 313.243,80.5992 313.576,86.5992 315,92.5C 309.232,95.8631 302.898,98.1964 296,99.5C 293.867,97.8624 291.367,97.029 288.5,97C 292.093,96.336 292.093,95.1693 288.5,93.5C 287.68,91.8599 286.847,90.1932 286,88.5C 284.39,90.5968 283.223,92.9302 282.5,95.5C 279.261,92.3243 279.261,89.3243 282.5,86.5C 283.239,81.4423 283.572,76.4423 283.5,71.5C 286.692,67.7359 290.692,65.2359 295.5,64C 300.297,64.7152 304.964,65.2152 309.5,65.5 Z M 296.5,65.5 C 303.274,65.4522 308.108,68.4522 311,74.5C 313.556,83.3184 311.056,90.1518 303.5,95C 292.914,96.4281 286.914,91.7615 285.5,81C 285.905,76.7505 287.405,72.9172 290,69.5C 292.013,67.7518 294.18,66.4185 296.5,65.5 Z"/></g>
<g><path style="opacity:1" fill="#13284d" d="M 215.5,50.5 C 216.492,50.3284 217.158,50.6618 217.5,51.5C 216.957,51.56 216.624,51.8933 216.5,52.5C 221.004,53.5694 224.004,56.2361 225.5,60.5C 223.856,60.2865 222.356,60.6198 221,61.5C 219.099,64.7467 219.265,67.9134 221.5,71C 220.234,71.3095 219.067,71.8095 218,72.5C 217.667,71.5 217.333,70.5 217,69.5C 216.833,71 216.667,72.5 216.5,74C 218.571,80.815 219.904,87.815 220.5,95C 220.833,95.1667 221.167,95.3333 221.5,95.5C 222.329,90.5329 222.829,85.5329 223,80.5C 224.011,79.6634 225.178,79.33 226.5,79.5C 226.179,85.0262 226.512,90.3595 227.5,95.5C 227.5,99.1667 227.5,102.833 227.5,106.5C 223.534,107.162 219.534,107.495 215.5,107.5C 215.453,94.6539 215.453,81.9873 215.5,69.5C 214.606,69.4827 213.606,69.1494 212.5,68.5C 211.833,68.5 211.5,68.1667 211.5,67.5C 212.791,66.4583 212.791,65.2917 211.5,64C 205.21,60.9977 200.543,62.4977 197.5,68.5C 195.299,68.1416 193.965,66.8083 193.5,64.5C 195.171,62.4902 195.838,60.1569 195.5,57.5C 198.054,58.388 200.721,58.7214 203.5,58.5C 203.323,56.0194 204.323,54.1861 206.5,53C 209.992,53.0704 212.992,52.2371 215.5,50.5 Z"/></g>
<g><path style="opacity:1" fill="#12284d" d="M 370.5,73.5 C 372.506,76.8597 374.006,80.5263 375,84.5C 376.676,85.0611 378.009,86.0611 379,87.5C 379.251,89.433 379.751,91.2663 380.5,93C 379.207,93.49 377.873,93.6567 376.5,93.5C 376.628,95.6547 376.128,97.6547 375,99.5C 372.741,97.7538 371.408,95.4205 371,92.5C 369.989,91.6634 368.822,91.33 367.5,91.5C 365.852,90.2228 364.018,89.2228 362,88.5C 360.723,90.7472 359.223,92.7472 357.5,94.5C 358.376,91.2011 358.543,87.8678 358,84.5C 356.378,83.9011 354.878,83.2344 353.5,82.5C 353.918,81.7784 354.584,81.2784 355.5,81C 355.53,79.5707 355.197,78.0707 354.5,76.5C 354.586,75.5041 354.252,74.6708 353.5,74C 355.631,72.3531 357.631,72.6864 359.5,75C 359.102,77.8573 360.435,80.024 363.5,81.5C 364.804,78.4873 367.137,75.8206 370.5,73.5 Z"/></g>
<g><path style="opacity:0.9" fill="#141f36" d="M 75.5,52.5 C 81.1667,52.5 86.8333,52.5 92.5,52.5C 92.6666,71.1696 92.4999,89.8363 92,108.5C 86.6667,109.833 81.3333,109.833 76,108.5C 75.5001,89.8363 75.3334,71.1696 75.5,52.5 Z"/></g>
<g><path style="opacity:1" fill="#11274d" d="M 76.5,54.5 C 80.8333,54.5 85.1667,54.5 89.5,54.5C 90.3335,70.5066 90.8335,86.5066 91,102.5C 87.6249,106.988 83.1249,108.488 77.5,107C 76.9415,106.275 76.6082,105.442 76.5,104.5C 76.5938,87.8962 76.5938,71.2296 76.5,54.5 Z"/></g>
<g><path style="opacity:1" fill="#0e1934" d="M 183.5,54.5 C 183.5,72.1667 183.5,89.8333 183.5,107.5C 187.673,108.044 191.506,107.377 195,105.5C 195.333,94.8333 195.667,84.1667 196,73.5C 196.608,71.8455 197.108,70.1789 197.5,68.5C 200.543,62.4977 205.21,60.9977 211.5,64C 212.791,65.2917 212.791,66.4583 211.5,67.5C 207.861,63.6117 204.028,63.6117 200,67.5C 198.74,81.1116 198.073,94.7783 198,108.5C 192.734,109.824 187.567,109.824 182.5,108.5C 182.586,107.504 182.252,106.671 181.5,106C 182.16,88.7355 182.827,71.5688 183.5,54.5 Z"/></g>
<g><path style="opacity:0.385" fill="#08102c" d="M 57.5,67.5 C 58.1667,67.5 58.8333,67.5 59.5,67.5C 59.829,81.3435 59.4957,95.0102 58.5,108.5C 57.5151,104.366 57.1818,100.032 57.5,95.5C 57.5,86.1667 57.5,76.8333 57.5,67.5 Z"/></g>
<g><path style="opacity:0.894" fill="#131321" d="M 389.5,67.5 C 398.818,66.3743 403.318,70.3743 403,79.5C 401.122,86.5255 396.622,89.0255 389.5,87C 383.975,84.0812 382.142,79.5812 384,73.5C 385.36,70.9774 387.193,68.9774 389.5,67.5 Z M 396.5,71.5 C 399.287,72.3775 400.62,74.3775 400.5,77.5C 400.533,80.1016 399.533,82.1016 397.5,83.5C 397.579,82.0695 397.246,80.7362 396.5,79.5C 397.167,78.1667 397.833,76.8333 398.5,75.5C 397.82,74.1401 397.153,72.8068 396.5,71.5 Z M 389.5,71.5 C 389.586,72.4959 389.252,73.3292 388.5,74C 389.282,76.7405 389.782,79.5738 390,82.5C 390.414,82.9574 390.914,83.2907 391.5,83.5C 392.113,82.0202 392.446,80.6869 392.5,79.5C 393.605,81.6114 395.271,82.9447 397.5,83.5C 388.818,85.9906 385.318,82.6573 387,73.5C 387.708,72.6195 388.542,71.9528 389.5,71.5 Z"/></g>
<g><path style="opacity:0.976" fill="#161825" d="M 389.5,71.5 C 391.833,71.5 394.167,71.5 396.5,71.5C 397.153,72.8068 397.82,74.1401 398.5,75.5C 397.833,76.8333 397.167,78.1667 396.5,79.5C 397.246,80.7362 397.579,82.0695 397.5,83.5C 395.271,82.9447 393.605,81.6114 392.5,79.5C 392.446,80.6869 392.113,82.0202 391.5,83.5C 390.914,83.2907 390.414,82.9574 390,82.5C 389.782,79.5738 389.282,76.7405 388.5,74C 389.252,73.3292 389.586,72.4959 389.5,71.5 Z"/></g>
<g><path style="opacity:0.488" fill="#0e172e" d="M 351.5,75.5 C 352.609,75.5569 353.609,75.8902 354.5,76.5C 355.197,78.0707 355.53,79.5707 355.5,81C 354.584,81.2784 353.918,81.7784 353.5,82.5C 348.418,89.6499 343.085,96.6499 337.5,103.5C 336.893,103.376 336.56,103.043 336.5,102.5C 341.781,94.7121 347.281,87.0454 353,79.5C 353.3,77.9343 352.8,76.601 351.5,75.5 Z"/></g>
<g><path style="opacity:1" fill="#13274c" d="M 353.5,82.5 C 354.878,83.2344 356.378,83.9011 358,84.5C 358.543,87.8678 358.376,91.2011 357.5,94.5C 356.542,94.9528 355.708,95.6195 355,96.5C 353.489,99.7961 352.323,103.129 351.5,106.5C 351.5,106.833 351.5,107.167 351.5,107.5C 350.448,107.351 349.448,107.517 348.5,108C 343.18,114.31 338.847,121.143 335.5,128.5C 330.833,128.5 326.167,128.5 321.5,128.5C 325.902,121.42 329.902,114.086 333.5,106.5C 334.512,105.128 335.512,103.795 336.5,102.5C 336.56,103.043 336.893,103.376 337.5,103.5C 343.085,96.6499 348.418,89.6499 353.5,82.5 Z"/></g>
<g><path style="opacity:1" fill="#0e1a2f" d="M 367.5,91.5 C 370.168,96.1687 373.168,100.669 376.5,105C 380.003,106.526 383.336,108.026 386.5,109.5C 383.482,109.665 380.482,109.498 377.5,109C 372.667,102.833 367.833,96.6667 363,90.5C 359.39,96.0769 355.557,101.41 351.5,106.5C 352.323,103.129 353.489,99.7961 355,96.5C 355.708,95.6195 356.542,94.9528 357.5,94.5C 359.223,92.7472 360.723,90.7472 362,88.5C 364.018,89.2228 365.852,90.2228 367.5,91.5 Z"/></g>
<g><path style="opacity:0.71" fill="#0c1528" d="M 380.5,87.5 C 386.492,94.1668 392.159,101.167 397.5,108.5C 395.604,109.466 393.604,109.799 391.5,109.5C 392.429,108.685 393.429,107.852 394.5,107C 389.194,100.876 384.527,94.3757 380.5,87.5 Z"/></g>
<g><path style="opacity:1" fill="#132647" d="M 389.5,57.5 C 384.755,64.6468 379.755,71.6468 374.5,78.5C 376.552,81.5355 378.552,84.5355 380.5,87.5C 384.527,94.3757 389.194,100.876 394.5,107C 393.429,107.852 392.429,108.685 391.5,109.5C 389.833,109.5 388.167,109.5 386.5,109.5C 383.336,108.026 380.003,106.526 376.5,105C 373.168,100.669 370.168,96.1687 367.5,91.5C 368.822,91.33 369.989,91.6634 371,92.5C 371.408,95.4205 372.741,97.7538 375,99.5C 376.128,97.6547 376.628,95.6547 376.5,93.5C 377.873,93.6567 379.207,93.49 380.5,93C 379.751,91.2663 379.251,89.433 379,87.5C 378.009,86.0611 376.676,85.0611 375,84.5C 374.006,80.5263 372.506,76.8597 370.5,73.5C 370.5,71.8333 370.5,70.1667 370.5,68.5C 372.908,69.0613 375.241,69.5613 377.5,70C 380.911,67.0371 383.744,63.5371 386,59.5C 386.816,58.1772 387.983,57.5106 389.5,57.5 Z"/></g>
<g><path style="opacity:0.974" fill="#131e38" d="M 284.5,52.5 C 281.132,56.1791 277.965,60.1791 275,64.5C 274.125,67.6277 272.958,70.6277 271.5,73.5C 269.659,81.2559 270.659,88.5892 274.5,95.5C 280.118,106.639 289.118,110.806 301.5,108C 303.226,106.47 305.226,105.47 307.5,105C 308.289,102.635 309.456,100.468 311,98.5C 314.356,100.037 317.523,99.7035 320.5,97.5C 321.614,98.723 321.781,100.056 321,101.5C 318.276,101.776 315.609,101.776 313,101.5C 310.546,106.892 312.379,108.892 318.5,107.5C 320.952,107.461 322.952,106.794 324.5,105.5C 325.317,103.031 325.817,100.365 326,97.5C 326.278,98.4158 326.778,99.0825 327.5,99.5C 327.784,102.777 327.451,105.943 326.5,109C 321.177,109.499 315.844,109.666 310.5,109.5C 310.995,103.814 309.995,103.314 307.5,108C 290.662,114.999 278.495,110.166 271,93.5C 267.374,81.8864 268.707,70.8864 275,60.5C 277.747,57.2463 280.914,54.5797 284.5,52.5 Z"/></g>
<g><path style="opacity:1" fill="#131e36" d="M 243.5,62.5 C 243.389,63.1174 243.056,63.6174 242.5,64C 246.255,66.2522 247.922,69.5855 247.5,74C 246.98,82.3323 246.313,90.4989 245.5,98.5C 245.899,88.1017 245.399,77.7683 244,67.5C 240.685,63.8947 237.018,63.5614 233,66.5C 232.138,68.087 231.471,69.7536 231,71.5C 230.667,83.8333 230.333,96.1667 230,108.5C 224.584,109.639 219.084,109.806 213.5,109C 212.632,95.502 212.299,82.002 212.5,68.5C 213.606,69.1494 214.606,69.4827 215.5,69.5C 215.453,81.9873 215.453,94.6539 215.5,107.5C 219.534,107.495 223.534,107.162 227.5,106.5C 227.5,102.833 227.5,99.1667 227.5,95.5C 227.334,88.1591 227.5,80.8258 228,73.5C 228.39,70.8958 229.224,68.5625 230.5,66.5C 232.865,64.1397 235.532,62.1397 238.5,60.5C 239.842,62.0049 241.508,62.6715 243.5,62.5 Z"/></g>
<g><path style="opacity:1" fill="#13274c" d="M 324.5,56.5 C 324.5,72.8333 324.5,89.1667 324.5,105.5C 322.952,106.794 320.952,107.461 318.5,107.5C 312.379,108.892 310.546,106.892 313,101.5C 315.609,101.776 318.276,101.776 321,101.5C 321.781,100.056 321.614,98.723 320.5,97.5C 317.523,99.7035 314.356,100.037 311,98.5C 309.456,100.468 308.289,102.635 307.5,105C 305.226,105.47 303.226,106.47 301.5,108C 289.118,110.806 280.118,106.639 274.5,95.5C 275.5,95.5 276.5,95.5 277.5,95.5C 278.879,102.713 283.213,105.88 290.5,105C 289.423,101.995 287.423,99.1612 284.5,96.5C 285.274,95.2888 286.107,95.2888 287,96.5C 288.039,95.7562 288.539,94.7562 288.5,93.5C 292.093,95.1693 292.093,96.336 288.5,97C 291.367,97.029 293.867,97.8624 296,99.5C 302.898,98.1964 309.232,95.8631 315,92.5C 313.576,86.5992 313.243,80.5992 314,74.5C 313.494,70.875 311.994,67.875 309.5,65.5C 307.872,62.581 306.538,59.581 305.5,56.5C 306.791,56.7373 307.791,56.404 308.5,55.5C 309.167,55.5 309.5,55.8333 309.5,56.5C 309.56,57.0431 309.893,57.3764 310.5,57.5C 311.386,56.675 311.719,55.675 311.5,54.5C 315.514,54.3345 319.514,54.5012 323.5,55C 324.056,55.3826 324.389,55.8826 324.5,56.5 Z"/></g>
<g><path style="opacity:1" fill="#121c32" d="M 116.5,79.5 C 116.687,91.5253 122.687,97.0253 134.5,96C 137.548,95.3936 140.048,93.8936 142,91.5C 142.83,97.1959 142.663,102.863 141.5,108.5C 129.901,113.258 119.568,111.924 110.5,104.5C 111.117,104.389 111.617,104.056 112,103.5C 113.579,105.041 115.413,106.208 117.5,107C 124.833,109 132.167,109 139.5,107C 139.627,103.658 139.961,100.158 140.5,96.5C 136.301,98.3036 131.967,98.9702 127.5,98.5C 126.093,96.9167 123.759,95.75 120.5,95C 119.667,92.8333 118.167,91.3333 116,90.5C 115.19,86.6425 115.357,82.9758 116.5,79.5 Z"/></g>
<g><path style="opacity:0.998" fill="#101932" d="M 333.5,106.5 C 329.902,114.086 325.902,121.42 321.5,128.5C 326.167,128.5 330.833,128.5 335.5,128.5C 338.847,121.143 343.18,114.31 348.5,108C 349.448,107.517 350.448,107.351 351.5,107.5C 346.386,115.121 341.053,122.621 335.5,130C 328.833,130.667 322.167,130.667 315.5,130C 321.641,122.188 327.641,114.355 333.5,106.5 Z"/></g>
</svg>
