<?xml version="1.0" encoding="UTF-8"?>
<!DOCTYPE svg PUBLIC "-//W3C//DTD SVG 1.1//EN" "http://www.w3.org/Graphics/SVG/1.1/DTD/svg11.dtd">
<svg xmlns="http://www.w3.org/2000/svg" version="1.1" width="500px" height="500px" style="shape-rendering:geometricPrecision; text-rendering:geometricPrecision; image-rendering:optimizeQuality; fill-rule:evenodd; clip-rule:evenodd" xmlns:xlink="http://www.w3.org/1999/xlink">
<g><path style="opacity:1" fill="#de1f26" d="M 71.5,225.5 C 71.5,226.167 71.5,226.833 71.5,227.5C 70.1411,228.007 69.1411,229.007 68.5,230.5C 67.2426,228.03 65.7426,225.697 64,223.5C 63.6174,224.056 63.1174,224.389 62.5,224.5C 60.7354,223.539 58.7354,223.205 56.5,223.5C 56.6621,225.527 56.4955,227.527 56,229.5C 54.0643,227.783 51.8976,226.449 49.5,225.5C 47.6227,224.072 46.2894,224.572 45.5,227C 46.741,228.731 47.741,230.564 48.5,232.5C 48.6602,234.199 48.4935,235.866 48,237.5C 46.9887,236.663 45.8221,236.33 44.5,236.5C 43.0669,234.442 42.4003,232.108 42.5,229.5C 41.5,229.5 40.5,229.5 39.5,229.5C 38.6473,227.107 36.9806,225.774 34.5,225.5C 33.4908,224.061 33.8241,222.728 35.5,221.5C 37.6435,221.43 39.6435,220.93 41.5,220C 40.269,218.817 40.269,217.651 41.5,216.5C 42.7678,217.428 44.1011,217.595 45.5,217C 44.4468,215.251 44.7801,213.751 46.5,212.5C 49.5,211.833 52.5,211.167 55.5,210.5C 56.5421,216.344 58.8754,216.844 62.5,212C 60.4233,211.808 58.4233,211.308 56.5,210.5C 57,210.167 57.5,209.833 58,209.5C 62.7919,208.414 67.6252,208.247 72.5,209C 73.7808,211.403 75.6142,213.237 78,214.5C 78.3333,214.167 78.6667,213.833 79,213.5C 81.2182,215.034 83.3848,216.701 85.5,218.5C 84.675,219.386 83.675,219.719 82.5,219.5C 81.9445,223.997 82.6112,228.164 84.5,232C 82.9281,235.417 81.7614,235.251 81,231.5C 80.586,231.957 80.086,232.291 79.5,232.5C 78.6044,228.776 77.6044,225.11 76.5,221.5C 73.6301,221.248 71.2967,222.248 69.5,224.5C 69.9569,225.298 70.6236,225.631 71.5,225.5 Z"/></g>
<g><path style="opacity:0.998" fill="#d62d2e" d="M 91.5,214.5 C 90.1667,214.5 88.8333,214.5 87.5,214.5C 86.8429,217.841 88.1763,219.841 91.5,220.5C 89.5767,221.308 87.5767,221.808 85.5,222C 87.9102,222.057 89.2435,223.224 89.5,225.5C 88.8333,225.5 88.1667,225.5 87.5,225.5C 86.791,224.596 85.791,224.263 84.5,224.5C 84.3433,225.873 84.51,227.207 85,228.5C 87.9822,233.78 91.1489,238.947 94.5,244C 95.448,244.483 96.448,244.649 97.5,244.5C 97.5299,245.497 97.0299,246.164 96,246.5C 94.7753,246.138 93.6086,245.638 92.5,245C 89.6823,241.936 87.0156,238.77 84.5,235.5C 83.5853,236.328 82.9186,237.328 82.5,238.5C 83.3721,240.45 84.0388,242.45 84.5,244.5C 82.5491,243.284 81.0491,241.618 80,239.5C 77.4944,235.156 75.8277,230.489 75,225.5C 73.7083,224.209 72.5417,224.209 71.5,225.5C 70.6236,225.631 69.9569,225.298 69.5,224.5C 71.2967,222.248 73.6301,221.248 76.5,221.5C 77.6044,225.11 78.6044,228.776 79.5,232.5C 80.086,232.291 80.586,231.957 81,231.5C 81.7614,235.251 82.9281,235.417 84.5,232C 82.6112,228.164 81.9445,223.997 82.5,219.5C 83.675,219.719 84.675,219.386 85.5,218.5C 83.3848,216.701 81.2182,215.034 79,213.5C 78.6667,213.833 78.3333,214.167 78,214.5C 75.6142,213.237 73.7808,211.403 72.5,209C 67.6252,208.247 62.7919,208.414 58,209.5C 57.5,209.833 57,210.167 56.5,210.5C 58.4233,211.308 60.4233,211.808 62.5,212C 58.8754,216.844 56.5421,216.344 55.5,210.5C 52.5,211.167 49.5,211.833 46.5,212.5C 47.9002,211.9 48.9002,210.9 49.5,209.5C 61.5177,205.399 73.5177,205.566 85.5,210C 88.1064,210.792 90.1064,212.292 91.5,214.5 Z"/></g>
<g><path style="opacity:1" fill="#d74744" d="M 49.5,209.5 C 48.9002,210.9 47.9002,211.9 46.5,212.5C 44.7801,213.751 44.4468,215.251 45.5,217C 44.1011,217.595 42.7678,217.428 41.5,216.5C 40.269,217.651 40.269,218.817 41.5,220C 39.6435,220.93 37.6435,221.43 35.5,221.5C 33.8241,222.728 33.4908,224.061 34.5,225.5C 34.1961,226.15 33.8627,226.817 33.5,227.5C 34.3195,229.974 35.3195,232.307 36.5,234.5C 34.6614,233.492 33.3281,231.992 32.5,230C 31.552,229.517 30.552,229.351 29.5,229.5C 29.9118,231.973 28.9118,233.306 26.5,233.5C 30.7452,222.254 38.4119,214.254 49.5,209.5 Z"/></g>
<g><path style="opacity:0.908" fill="#191919" d="M 156.5,248.5 C 158.074,246.898 158.741,244.898 158.5,242.5C 158.802,239.627 159.469,236.961 160.5,234.5C 161.931,233.22 162.598,231.553 162.5,229.5C 162.873,226.426 163.539,223.426 164.5,220.5C 167.833,220.5 171.167,220.5 174.5,220.5C 174.663,222.857 174.497,225.19 174,227.5C 167.934,244.363 162.268,261.363 157,278.5C 153.943,279.451 150.777,279.784 147.5,279.5C 141.491,259.808 135.491,240.141 129.5,220.5C 133.106,220.211 136.606,220.544 140,221.5C 144.192,234.411 148.192,247.411 152,260.5C 153.689,256.496 155.189,252.496 156.5,248.5 Z"/></g>
<g><path style="opacity:0.888" fill="#161616" d="M 191.5,269.5 C 199.984,270.493 208.651,270.826 217.5,270.5C 217.5,273.5 217.5,276.5 217.5,279.5C 204.833,279.5 192.167,279.5 179.5,279.5C 179.167,260.155 179.5,240.822 180.5,221.5C 192.787,220.354 205.121,220.187 217.5,221C 218.617,224.073 218.784,227.24 218,230.5C 208.917,231.485 199.751,231.818 190.5,231.5C 190.5,236.167 190.5,240.833 190.5,245.5C 198.5,245.5 206.5,245.5 214.5,245.5C 214.5,248.5 214.5,251.5 214.5,254.5C 206.5,254.5 198.5,254.5 190.5,254.5C 190.179,259.695 190.513,264.695 191.5,269.5 Z"/></g>
<g><path style="opacity:0.912" fill="#181818" d="M 261.5,228.5 C 261.427,230.027 262.094,231.027 263.5,231.5C 266.831,241.683 263.831,249.516 254.5,255C 258.917,263 262.917,271.167 266.5,279.5C 262.445,279.824 258.445,279.491 254.5,278.5C 249.402,268.725 244.735,258.725 240.5,248.5C 242.857,246.902 245.523,245.902 248.5,245.5C 254.025,243.74 255.858,240.073 254,234.5C 252.786,232.951 251.286,231.785 249.5,231C 244.511,230.501 239.511,230.334 234.5,230.5C 234.5,246.833 234.5,263.167 234.5,279.5C 230.833,279.5 227.167,279.5 223.5,279.5C 223.333,260.164 223.5,240.83 224,221.5C 232.421,220.351 240.921,220.184 249.5,221C 254.705,221.759 258.705,224.259 261.5,228.5 Z"/></g>
<g><path style="opacity:0.847" fill="#242424" d="M 274.5,220.5 C 283.656,218.151 286.656,221.318 283.5,230C 280.183,230.498 276.85,230.665 273.5,230.5C 273.253,227.061 273.586,223.728 274.5,220.5 Z"/></g>
<g><path style="opacity:0.88" fill="#0f0f0f" d="M 321.5,256.5 C 315.167,256.5 308.833,256.5 302.5,256.5C 302.5,264.167 302.5,271.833 302.5,279.5C 298.685,280.082 295.351,279.248 292.5,277C 292.296,258.543 292.629,240.043 293.5,221.5C 302.868,220.147 312.201,220.313 321.5,222C 332.009,225.842 336.175,233.342 334,244.5C 331.789,250.634 327.622,254.634 321.5,256.5 Z M 303.5,231.5 C 309.29,231.096 314.956,231.596 320.5,233C 323.712,236.302 324.379,240.135 322.5,244.5C 320.596,244.738 319.262,245.738 318.5,247.5C 313.5,247.5 308.5,247.5 303.5,247.5C 303.5,242.167 303.5,236.833 303.5,231.5 Z"/></g>
<g><path style="opacity:0.905" fill="#161616" d="M 372.5,269.5 C 372.402,271.553 373.069,273.22 374.5,274.5C 375.038,276.117 375.371,277.784 375.5,279.5C 371.833,279.5 368.167,279.5 364.5,279.5C 362.22,271.929 360.22,264.262 358.5,256.5C 358.741,254.102 358.074,252.102 356.5,250.5C 355.03,247.051 353.864,243.384 353,239.5C 348.806,252.418 344.806,265.418 341,278.5C 337.606,279.456 334.106,279.789 330.5,279.5C 331.038,277.883 331.371,276.216 331.5,274.5C 332.492,271.177 333.492,267.844 334.5,264.5C 335.309,263.531 336.309,262.698 337.5,262C 336.748,261.329 336.414,260.496 336.5,259.5C 340.155,246.701 344.322,234.034 349,221.5C 351.401,220.398 353.901,220.231 356.5,221C 362.147,237.074 367.48,253.241 372.5,269.5 Z"/></g>
<g><path style="opacity:0.917" fill="#101010" d="M 406.5,221.5 C 418.858,223.629 423.691,230.963 421,243.5C 419.746,248.249 416.912,251.582 412.5,253.5C 411.07,255.455 411.403,257.121 413.5,258.5C 416.659,263.484 419.326,268.818 421.5,274.5C 421.427,276.027 422.094,277.027 423.5,277.5C 420.316,279.414 416.649,280.08 412.5,279.5C 412.573,277.973 411.906,276.973 410.5,276.5C 407.655,271.469 405.322,266.136 403.5,260.5C 402.829,259.153 402.829,257.986 403.5,257C 402.473,256.487 401.473,255.987 400.5,255.5C 399.542,253.698 398.875,251.698 398.5,249.5C 398.5,248.5 398.5,247.5 398.5,246.5C 401.385,246.806 404.052,246.473 406.5,245.5C 407.5,244.833 408.5,244.167 409.5,243.5C 410.75,243.423 411.583,242.756 412,241.5C 412.796,238.961 412.629,236.628 411.5,234.5C 409.99,233.164 408.323,231.997 406.5,231C 401.511,230.501 396.511,230.334 391.5,230.5C 391.5,246.833 391.5,263.167 391.5,279.5C 388.167,279.5 384.833,279.5 381.5,279.5C 381.5,260.167 381.5,240.833 381.5,221.5C 389.833,221.5 398.167,221.5 406.5,221.5 Z"/></g>
<g><path style="opacity:0.882" fill="#121212" d="M 466.5,263.5 C 466.427,265.027 467.094,266.027 468.5,266.5C 470.295,269.404 472.128,272.404 474,275.5C 474.49,276.793 474.657,278.127 474.5,279.5C 470.818,279.665 467.152,279.499 463.5,279C 459.942,272.945 456.609,266.779 453.5,260.5C 453.25,258.326 452.25,256.659 450.5,255.5C 449.778,255.082 449.278,254.416 449,253.5C 445.781,256.264 442.781,259.264 440,262.5C 439.501,268.157 439.334,273.824 439.5,279.5C 436.167,279.5 432.833,279.5 429.5,279.5C 429.333,260.164 429.5,240.83 430,221.5C 433.057,220.549 436.223,220.216 439.5,220.5C 439.334,229.839 439.5,239.173 440,248.5C 446.977,239.356 454.143,230.356 461.5,221.5C 465.365,220.194 469.198,220.194 473,221.5C 473.667,222.167 473.667,222.833 473,223.5C 467.103,230.393 461.603,237.559 456.5,245C 460.075,251.065 463.408,257.231 466.5,263.5 Z"/></g>
<g><path style="opacity:0.145" fill="#adadad" d="M 406.5,221.5 C 398.167,221.5 389.833,221.5 381.5,221.5C 381.5,240.833 381.5,260.167 381.5,279.5C 380.503,260.007 380.17,240.34 380.5,220.5C 389.349,220.174 398.016,220.507 406.5,221.5 Z"/></g>
<g><path style="opacity:0.431" fill="#cb5e5a" d="M 99.5,221.5 C 102.739,223.635 104.739,226.635 105.5,230.5C 104.508,230.328 103.842,230.662 103.5,231.5C 101.856,229.519 100.19,227.519 98.5,225.5C 97.5713,226.689 97.238,228.022 97.5,229.5C 96.5489,228.081 96.2155,226.415 96.5,224.5C 97.8734,224.657 99.2068,224.49 100.5,224C 99.7476,223.329 99.4142,222.496 99.5,221.5 Z"/></g>
<g><path style="opacity:0.565" fill="#d15f5c" d="M 87.5,225.5 C 88.1667,225.5 88.8333,225.5 89.5,225.5C 91.2125,228.294 92.5459,231.294 93.5,234.5C 90.7751,232.01 88.7751,229.01 87.5,225.5 Z"/></g>
<g><path style="opacity:0.961" fill="#d96967" d="M 39.5,229.5 C 40.5,229.5 41.5,229.5 42.5,229.5C 42.4003,232.108 43.0669,234.442 44.5,236.5C 42.1,234.704 40.4333,232.37 39.5,229.5 Z"/></g>
<g><path style="opacity:0.078" fill="#a6a6a6" d="M 261.5,228.5 C 262.906,228.973 263.573,229.973 263.5,231.5C 262.094,231.027 261.427,230.027 261.5,228.5 Z"/></g>
<g><path style="opacity:0.043" fill="#a1a1a1" d="M 162.5,229.5 C 162.598,231.553 161.931,233.22 160.5,234.5C 160.402,232.447 161.069,230.78 162.5,229.5 Z"/></g>
<g><path style="opacity:0.912" fill="#060606" d="M 273.5,232.5 C 276.833,232.5 280.167,232.5 283.5,232.5C 283.5,248.167 283.5,263.833 283.5,279.5C 280.167,279.5 276.833,279.5 273.5,279.5C 273.5,263.833 273.5,248.167 273.5,232.5 Z"/></g>
<g><path style="opacity:0.031" fill="#d0d0d0" d="M 273.5,232.5 C 276.962,231.518 280.629,231.185 284.5,231.5C 284.83,247.675 284.496,263.675 283.5,279.5C 283.5,263.833 283.5,248.167 283.5,232.5C 280.167,232.5 276.833,232.5 273.5,232.5 Z"/></g>
<g><path style="opacity:1" fill="#d43836" d="M 71.5,227.5 C 74.7525,233.004 77.7525,238.67 80.5,244.5C 74.9759,243.01 74.3093,244.177 78.5,248C 76.8078,249.401 76.1412,251.234 76.5,253.5C 72.7835,249.711 70.9502,245.044 71,239.5C 67.6225,234.738 64.7891,229.738 62.5,224.5C 63.1174,224.389 63.6174,224.056 64,223.5C 65.7426,225.697 67.2426,228.03 68.5,230.5C 69.1411,229.007 70.1411,228.007 71.5,227.5 Z"/></g>
<g><path style="opacity:0.188" fill="#828282" d="M 411.5,234.5 C 412.629,236.628 412.796,238.961 412,241.5C 411.583,242.756 410.75,243.423 409.5,243.5C 411.126,240.754 411.793,237.754 411.5,234.5 Z"/></g>
<g><path style="opacity:0.941" fill="#d53d39" d="M 62.5,224.5 C 58.1605,224.854 57.3272,226.854 60,230.5C 65.3618,238.561 70.1951,246.894 74.5,255.5C 72.9878,253.683 70.9878,252.683 68.5,252.5C 68.5,253.833 68.5,255.167 68.5,256.5C 67.6942,255.003 67.0276,253.336 66.5,251.5C 66.0431,250.702 65.3764,250.369 64.5,250.5C 59.2617,242.365 54.2617,234.032 49.5,225.5C 51.8976,226.449 54.0643,227.783 56,229.5C 56.4955,227.527 56.6621,225.527 56.5,223.5C 58.7354,223.205 60.7354,223.539 62.5,224.5 Z"/></g>
<g><path style="opacity:0.427" fill="#6e6e6e" d="M 158.5,242.5 C 158.741,244.898 158.074,246.898 156.5,248.5C 156.595,246.214 157.262,244.214 158.5,242.5 Z"/></g>
<g><path style="opacity:0.086" fill="#b2b2b2" d="M 248.5,245.5 C 245.523,245.902 242.857,246.902 240.5,248.5C 239.596,247.791 239.263,246.791 239.5,245.5C 242.5,245.5 245.5,245.5 248.5,245.5 Z"/></g>
<g><path style="opacity:0.125" fill="#9e9e9e" d="M 322.5,244.5 C 321.738,246.262 320.404,247.262 318.5,247.5C 319.262,245.738 320.596,244.738 322.5,244.5 Z"/></g>
<g><path style="opacity:0.082" fill="#969696" d="M 406.5,245.5 C 404.052,246.473 401.385,246.806 398.5,246.5C 398.5,247.5 398.5,248.5 398.5,249.5C 397.566,248.432 397.232,247.099 397.5,245.5C 400.5,245.5 403.5,245.5 406.5,245.5 Z"/></g>
<g><path style="opacity:0.067" fill="#717171" d="M 303.5,231.5 C 303.5,236.833 303.5,242.167 303.5,247.5C 308.5,247.5 313.5,247.5 318.5,247.5C 313.36,248.488 308.026,248.821 302.5,248.5C 302.178,242.642 302.511,236.975 303.5,231.5 Z"/></g>
<g><path style="opacity:1" fill="#d7302d" d="M 54.5,253.5 C 51.7693,251.054 49.7693,248.054 48.5,244.5C 48.528,242.418 47.8613,240.584 46.5,239C 48.2555,238.86 49.9222,239.36 51.5,240.5C 53.5533,244.83 55.8867,248.997 58.5,253C 58.1667,253.5 57.8333,254 57.5,254.5C 56.5832,253.873 55.5832,253.539 54.5,253.5 Z"/></g>
<g><path style="opacity:1" fill="#de2026" d="M 36.5,234.5 C 38.664,236.822 40.3307,239.489 41.5,242.5C 41.8185,246.136 42.9852,249.469 45,252.5C 46.3073,254.192 47.8073,255.525 49.5,256.5C 49.1507,259.463 50.1507,261.796 52.5,263.5C 52.2444,264.689 51.9111,265.856 51.5,267C 53.1025,267.29 54.6025,268.123 56,269.5C 58.7554,273.255 61.0887,277.255 63,281.5C 64.0391,282.71 65.2058,283.71 66.5,284.5C 68.2503,285.659 69.2503,287.326 69.5,289.5C 67.9522,290.794 65.9522,291.461 63.5,291.5C 61.5,291.333 59.5,291.167 57.5,291C 53.2528,289.028 48.9195,287.528 44.5,286.5C 43.2905,286.068 42.2905,285.401 41.5,284.5C 37.8192,280.319 34.3192,275.985 31,271.5C 30.8142,269.1 30.3142,266.766 29.5,264.5C 28.0392,262.53 26.3725,260.863 24.5,259.5C 24.3336,251.826 24.5003,244.159 25,236.5C 25.5133,235.473 26.0133,234.473 26.5,233.5C 28.9118,233.306 29.9118,231.973 29.5,229.5C 30.552,229.351 31.552,229.517 32.5,230C 33.3281,231.992 34.6614,233.492 36.5,234.5 Z"/></g>
<g><path style="opacity:0.973" fill="#d14644" d="M 41.5,242.5 C 44.526,246.884 47.1926,251.551 49.5,256.5C 47.8073,255.525 46.3073,254.192 45,252.5C 42.9852,249.469 41.8185,246.136 41.5,242.5 Z"/></g>
<g><path style="opacity:0.549" fill="#c1413e" d="M 105.5,230.5 C 107.129,232.858 108.295,235.524 109,238.5C 109.667,245.833 109.667,253.167 109,260.5C 108.768,261.737 108.268,262.737 107.5,263.5C 108.49,255.523 108.657,247.523 108,239.5C 106.396,236.753 105.562,233.753 105.5,230.5 Z"/></g>
<g><path style="opacity:0.247" fill="#757575" d="M 356.5,250.5 C 358.074,252.102 358.741,254.102 358.5,256.5C 357.262,254.786 356.595,252.786 356.5,250.5 Z"/></g>
<g><path style="opacity:1" fill="#d3504c" d="M 48.5,232.5 C 54.0685,241.295 59.4019,250.295 64.5,259.5C 62.3379,259.103 61.0046,257.769 60.5,255.5C 60.1667,256.167 59.8333,256.833 59.5,257.5C 61.2168,261.991 61.8835,266.657 61.5,271.5C 60.3104,265.11 57.9771,259.11 54.5,253.5C 55.5832,253.539 56.5832,253.873 57.5,254.5C 57.8333,254 58.1667,253.5 58.5,253C 55.8867,248.997 53.5533,244.83 51.5,240.5C 49.9222,239.36 48.2555,238.86 46.5,239C 47.8613,240.584 48.528,242.418 48.5,244.5C 46.6378,242.109 45.3045,239.442 44.5,236.5C 45.8221,236.33 46.9887,236.663 48,237.5C 48.4935,235.866 48.6602,234.199 48.5,232.5 Z"/></g>
<g><path style="opacity:0.294" fill="#8f8f8f" d="M 412.5,253.5 C 412.629,255.216 412.962,256.883 413.5,258.5C 411.403,257.121 411.07,255.455 412.5,253.5 Z"/></g>
<g><path style="opacity:0.812" fill="#d66f69" d="M 64.5,250.5 C 65.3764,250.369 66.0431,250.702 66.5,251.5C 67.0276,253.336 67.6942,255.003 68.5,256.5C 69.8825,260.934 71.5492,265.267 73.5,269.5C 71.0228,265.899 68.5228,262.233 66,258.5C 65.4054,257.101 65.5721,255.768 66.5,254.5C 65.8201,253.14 65.1534,251.807 64.5,250.5 Z"/></g>
<g><path style="opacity:0.098" fill="#8e8e8e" d="M 450.5,255.5 C 452.25,256.659 453.25,258.326 453.5,260.5C 451.75,259.341 450.75,257.674 450.5,255.5 Z"/></g>
<g><path style="opacity:0.051" fill="#767676" d="M 400.5,255.5 C 401.473,255.987 402.473,256.487 403.5,257C 402.829,257.986 402.829,259.153 403.5,260.5C 401.75,259.341 400.75,257.674 400.5,255.5 Z"/></g>
<g><path style="opacity:1" fill="#dd1f25" d="M 91.5,214.5 C 94.8102,216.146 97.4768,218.48 99.5,221.5C 99.4142,222.496 99.7476,223.329 100.5,224C 99.2068,224.49 97.8734,224.657 96.5,224.5C 96.2155,226.415 96.5489,228.081 97.5,229.5C 98.4212,230.981 99.5879,232.314 101,233.5C 102.301,233.361 103.134,232.695 103.5,231.5C 103.842,230.662 104.508,230.328 105.5,230.5C 105.562,233.753 106.396,236.753 108,239.5C 108.657,247.523 108.49,255.523 107.5,263.5C 104.843,265.466 103.177,268.133 102.5,271.5C 101.808,270.975 101.308,270.308 101,269.5C 100.506,271.134 100.34,272.801 100.5,274.5C 99.1266,274.343 97.7932,274.51 96.5,275C 97.428,275.388 98.0946,276.055 98.5,277C 97.5705,278.077 96.9038,279.244 96.5,280.5C 94.4727,280.338 92.4727,280.505 90.5,281C 91.6091,282.813 90.9424,283.646 88.5,283.5C 88.5,284.5 88.5,285.5 88.5,286.5C 84.1025,287.197 79.7692,288.197 75.5,289.5C 75.6567,288.127 75.49,286.793 75,285.5C 74.586,285.957 74.086,286.291 73.5,286.5C 70.6767,283.098 68.6767,279.265 67.5,275C 68.0253,274.308 68.6919,273.808 69.5,273.5C 71.5634,275.242 73.5634,276.909 75.5,278.5C 76.1667,278.833 76.8333,279.167 77.5,279.5C 78.6225,277.712 78.7891,275.712 78,273.5C 76.7698,270.709 75.2698,268.042 73.5,265.5C 74.8631,264.107 75.6964,262.441 76,260.5C 77.6103,262.939 78.4436,265.606 78.5,268.5C 80.8954,269.363 83.2287,269.363 85.5,268.5C 85.98,266.051 86.98,263.885 88.5,262C 87.646,260.978 86.646,260.145 85.5,259.5C 82.8492,261.003 81.5159,260.17 81.5,257C 81.7549,255.674 82.4216,254.674 83.5,254C 81.1201,254.522 78.7868,254.355 76.5,253.5C 76.1412,251.234 76.8078,249.401 78.5,248C 74.3093,244.177 74.9759,243.01 80.5,244.5C 80.3433,245.873 80.51,247.207 81,248.5C 83.0934,251.771 85.26,254.938 87.5,258C 88.8989,258.595 90.2322,258.428 91.5,257.5C 92.2733,255.187 92.9399,252.854 93.5,250.5C 91.9547,249.548 90.288,249.215 88.5,249.5C 88.5123,246.858 87.179,245.525 84.5,245.5C 84.5,245.167 84.5,244.833 84.5,244.5C 84.0388,242.45 83.3721,240.45 82.5,238.5C 82.9186,237.328 83.5853,236.328 84.5,235.5C 87.0156,238.77 89.6823,241.936 92.5,245C 93.6086,245.638 94.7753,246.138 96,246.5C 97.0299,246.164 97.5299,245.497 97.5,244.5C 98.5983,243.399 98.765,242.066 98,240.5C 96.9563,239.377 96.2896,238.044 96,236.5C 95.3292,235.748 94.4959,235.414 93.5,235.5C 93.5,235.167 93.5,234.833 93.5,234.5C 92.5459,231.294 91.2125,228.294 89.5,225.5C 89.2435,223.224 87.9102,222.057 85.5,222C 87.5767,221.808 89.5767,221.308 91.5,220.5C 88.1763,219.841 86.8429,217.841 87.5,214.5C 88.8333,214.5 90.1667,214.5 91.5,214.5 Z"/></g>
<g><path style="opacity:1" fill="#d3413f" d="M 80.5,244.5 C 83.5571,248.258 86.3904,252.258 89,256.5C 89.6667,255.5 89.6667,254.5 89,253.5C 86.8431,251.183 85.3431,248.516 84.5,245.5C 87.179,245.525 88.5123,246.858 88.5,249.5C 90.288,249.215 91.9547,249.548 93.5,250.5C 92.9399,252.854 92.2733,255.187 91.5,257.5C 90.2322,258.428 88.8989,258.595 87.5,258C 85.26,254.938 83.0934,251.771 81,248.5C 80.51,247.207 80.3433,245.873 80.5,244.5 Z"/></g>
<g><path style="opacity:0.376" fill="#dd6e6b" d="M 93.5,235.5 C 94.4959,235.414 95.3292,235.748 96,236.5C 96.2896,238.044 96.9563,239.377 98,240.5C 98.765,242.066 98.5983,243.399 97.5,244.5C 96.4618,241.419 95.1285,238.419 93.5,235.5 Z"/></g>
<g><path style="opacity:0.843" fill="#767676" d="M 336.5,259.5 C 336.414,260.496 336.748,261.329 337.5,262C 336.309,262.698 335.309,263.531 334.5,264.5C 334.402,262.447 335.069,260.78 336.5,259.5 Z"/></g>
<g><path style="opacity:0.992" fill="#d82e2f" d="M 74.5,255.5 C 77.2945,257.819 79.1278,260.819 80,264.5C 81.1133,266.329 82.6133,267.163 84.5,267C 81.2085,262.874 78.5419,258.374 76.5,253.5C 78.7868,254.355 81.1201,254.522 83.5,254C 82.4216,254.674 81.7549,255.674 81.5,257C 81.5159,260.17 82.8492,261.003 85.5,259.5C 86.646,260.145 87.646,260.978 88.5,262C 86.98,263.885 85.98,266.051 85.5,268.5C 83.2287,269.363 80.8954,269.363 78.5,268.5C 78.4436,265.606 77.6103,262.939 76,260.5C 75.6964,262.441 74.8631,264.107 73.5,265.5C 75.2698,268.042 76.7698,270.709 78,273.5C 78.7891,275.712 78.6225,277.712 77.5,279.5C 76.6205,275.964 75.2872,272.631 73.5,269.5C 71.5492,265.267 69.8825,260.934 68.5,256.5C 68.5,255.167 68.5,253.833 68.5,252.5C 70.9878,252.683 72.9878,253.683 74.5,255.5 Z"/></g>
<g><path style="opacity:0.171" fill="#9c9c9c" d="M 321.5,256.5 C 315.69,257.49 309.69,257.823 303.5,257.5C 303.825,265.019 303.492,272.352 302.5,279.5C 302.5,271.833 302.5,264.167 302.5,256.5C 308.833,256.5 315.167,256.5 321.5,256.5 Z"/></g>
<g><path style="opacity:0.075" fill="#929292" d="M 466.5,263.5 C 467.906,263.973 468.573,264.973 468.5,266.5C 467.094,266.027 466.427,265.027 466.5,263.5 Z"/></g>
<g><path style="opacity:0.09" fill="#cbcbcb" d="M 191.5,269.5 C 200.5,269.5 209.5,269.5 218.5,269.5C 218.813,273.042 218.479,276.375 217.5,279.5C 217.5,276.5 217.5,273.5 217.5,270.5C 208.651,270.826 199.984,270.493 191.5,269.5 Z"/></g>
<g><path style="opacity:1" fill="#d63332" d="M 64.5,259.5 C 68.5257,265.55 72.1923,271.883 75.5,278.5C 73.5634,276.909 71.5634,275.242 69.5,273.5C 68.6919,273.808 68.0253,274.308 67.5,275C 68.6767,279.265 70.6767,283.098 73.5,286.5C 74.086,286.291 74.586,285.957 75,285.5C 75.49,286.793 75.6567,288.127 75.5,289.5C 79.7692,288.197 84.1025,287.197 88.5,286.5C 88.5,285.5 88.5,284.5 88.5,283.5C 90.9424,283.646 91.6091,282.813 90.5,281C 92.4727,280.505 94.4727,280.338 96.5,280.5C 92.248,286.13 86.5813,289.463 79.5,290.5C 77.1432,290.663 74.8098,290.497 72.5,290C 73.8825,288.539 73.5492,287.706 71.5,287.5C 69.8419,284.912 68.1752,282.245 66.5,279.5C 66.3059,276.67 65.6392,274.004 64.5,271.5C 63.5,271.5 62.5,271.5 61.5,271.5C 61.8835,266.657 61.2168,261.991 59.5,257.5C 59.8333,256.833 60.1667,256.167 60.5,255.5C 61.0046,257.769 62.3379,259.103 64.5,259.5 Z"/></g>
<g><path style="opacity:0.702" fill="#db6362" d="M 61.5,271.5 C 62.5,271.5 63.5,271.5 64.5,271.5C 65.6392,274.004 66.3059,276.67 66.5,279.5C 65.8333,279.167 65.1667,278.833 64.5,278.5C 63.9885,275.978 62.9885,273.645 61.5,271.5 Z"/></g>
<g><path style="opacity:0.027" fill="#c7c7c7" d="M 372.5,269.5 C 373.931,270.78 374.598,272.447 374.5,274.5C 373.069,273.22 372.402,271.553 372.5,269.5 Z"/></g>
<g><path style="opacity:1" fill="#d45350" d="M 24.5,259.5 C 26.3725,260.863 28.0392,262.53 29.5,264.5C 30.3142,266.766 30.8142,269.1 31,271.5C 34.3192,275.985 37.8192,280.319 41.5,284.5C 32.3132,278.632 26.6465,270.299 24.5,259.5 Z"/></g>
<g><path style="opacity:0.576" fill="#cf4645" d="M 49.5,256.5 C 54.5117,263.867 59.5117,271.2 64.5,278.5C 64.7036,280.685 65.3702,282.685 66.5,284.5C 65.2058,283.71 64.0391,282.71 63,281.5C 61.0887,277.255 58.7554,273.255 56,269.5C 54.6025,268.123 53.1025,267.29 51.5,267C 51.9111,265.856 52.2444,264.689 52.5,263.5C 50.1507,261.796 49.1507,259.463 49.5,256.5 Z"/></g>
<g><path style="opacity:1" fill="#d24846" d="M 107.5,263.5 C 106.087,270.666 102.421,276.333 96.5,280.5C 96.9038,279.244 97.5705,278.077 98.5,277C 98.0946,276.055 97.428,275.388 96.5,275C 97.7932,274.51 99.1266,274.343 100.5,274.5C 100.34,272.801 100.506,271.134 101,269.5C 101.308,270.308 101.808,270.975 102.5,271.5C 103.177,268.133 104.843,265.466 107.5,263.5 Z"/></g>
<g><path style="opacity:0.067" fill="#a0a0a0" d="M 421.5,274.5 C 422.906,274.973 423.573,275.973 423.5,277.5C 422.094,277.027 421.427,276.027 421.5,274.5 Z"/></g>
<g><path style="opacity:0.024" fill="#c9c9c9" d="M 331.5,274.5 C 331.371,276.216 331.038,277.883 330.5,279.5C 329.322,277.662 329.655,275.995 331.5,274.5 Z"/></g>
<g><path style="opacity:0.031" fill="#939393" d="M 410.5,276.5 C 411.906,276.973 412.573,277.973 412.5,279.5C 411.094,279.027 410.427,278.027 410.5,276.5 Z"/></g>
<g><path style="opacity:0.812" fill="#ca4947" d="M 44.5,286.5 C 48.9195,287.528 53.2528,289.028 57.5,291C 59.5,291.167 61.5,291.333 63.5,291.5C 65.9522,291.461 67.9522,290.794 69.5,289.5C 70.8333,289.5 71.5,288.833 71.5,287.5C 73.5492,287.706 73.8825,288.539 72.5,290C 74.8098,290.497 77.1432,290.663 79.5,290.5C 78.7375,291.268 77.7375,291.768 76.5,292C 66.5407,293.355 56.8741,292.355 47.5,289C 46.0577,288.623 45.0577,287.79 44.5,286.5 Z"/></g>
</svg>
